0
SECTION
2
HEADER
9
$INSUNITS
70
4
9
$ACADVER
1
AC1014
9
$HANDSEED
5
FFFF
0
ENDSEC
0
SECTION
2
TABLES
0
TABLE
2
VPORT
5
8
100
AcDbSymbolTable
0
ENDTAB
0
TABLE
2
LTYPE
5
5
100
AcDbSymbolTable
0
LTYPE
5
14
100
AcDbSymbolTableRecord
100
AcDbLinetypeTableRecord
2
BYBLOCK
70
0
0
LTYPE
5
15
100
AcDbSymbolTableRecord
100
AcDbLinetypeTableRecord
2
BYLAYER
70
0
0
ENDTAB
0
TABLE
2
LAYER
5
2
100
AcDbSymbolTable
70
2
0
LAYER
5
50
100
AcDbSymbolTableRecord
100
AcDbLayerTableRecord
2
0
70
0
6
CONTINUOUS
0
ENDTAB
0
TABLE
2
STYLE
5
3
100
AcDbSymbolTable
70
1
0
STYLE
5
11
100
AcDbSymbolTableRecord
100
AcDbTextStyleTableRecord
2
STANDARD
70
0
0
ENDTAB
0
TABLE
2
VIEW
5
6
100
AcDbSymbolTable
70
0
0
ENDTAB
0
TABLE
2
UCS
5
7
100
AcDbSymbolTable
70
0
0
ENDTAB
0
TABLE
2
APPID
5
9
100
AcDbSymbolTable
70
2
0
APPID
5
12
100
AcDbSymbolTableRecord
100
AcDbRegAppTableRecord
2
ACAD
70
0
0
ENDTAB
0
TABLE
2
DIMSTYLE
5
A
100
AcDbSymbolTable
70
1
0
ENDTAB
0
TABLE
2
BLOCK_RECORD
5
1
100
AcDbSymbolTable
70
1
0
BLOCK_RECORD
5
1F
100
AcDbSymbolTableRecord
100
AcDbBlockTableRecord
2
*MODEL_SPACE
0
BLOCK_RECORD
5
1B
100
AcDbSymbolTableRecord
100
AcDbBlockTableRecord
2
*PAPER_SPACE
0
ENDTAB
0
ENDSEC
0
SECTION
2
BLOCKS
0
BLOCK
5
20
100
AcDbEntity
100
AcDbBlockBegin
2
*MODEL_SPACE
0
ENDBLK
5
21
100
AcDbEntity
100
AcDbBlockEnd
0
BLOCK
5
1C
100
AcDbEntity
100
AcDbBlockBegin
2
*PAPER_SPACE
0
ENDBLK
5
1D
100
AcDbEntity
100
AcDbBlockEnd
0
ENDSEC
0
SECTION
2
ENTITIES
0
LWPOLYLINE
5
100
100
AcDbEntity
8
0
100
AcDbPolyline
90
4
70
1
43
0.0
10
-2.5249999999999999
20
-2.5249999999999995
10
-2.5250000000000021
20
-16.524999999999999
10
-16.525000000000002
20
-16.524999999999995
10
-16.524999999999999
20
-2.5249999999999972
0
LWPOLYLINE
5
101
100
AcDbEntity
8
0
100
AcDbPolyline
90
4
70
1
43
0.0
10
-40.625
20
-35.575000000000003
10
-54.625
20
-35.574999999999996
10
-54.625
20
-21.574999999999992
10
-40.625
20
-21.574999999999996
0
LWPOLYLINE
5
102
100
AcDbEntity
8
0
100
AcDbPolyline
90
4
70
1
43
0.0
10
-69.200000000000017
20
-54.624999999999993
10
-83.200000000000003
20
-54.624999999999993
10
-83.200000000000003
20
-40.624999999999993
10
-69.200000000000017
20
-40.624999999999993
0
LWPOLYLINE
5
103
100
AcDbEntity
8
0
100
AcDbPolyline
90
4
70
1
43
0.0
10
-73.674999999999997
20
-16.524999999999991
10
-73.674999999999997
20
-2.5249999999999906
10
-59.675000000000004
20
-2.5249999999999928
10
-59.675000000000004
20
-16.524999999999991
0
LWPOLYLINE
5
104
100
AcDbEntity
8
0
100
AcDbPolyline
90
4
70
1
43
0.0
10
-116.82500000000002
20
-16.524999999999984
10
-130.82499999999999
20
-16.524999999999984
10
-130.82499999999999
20
-2.5249999999999839
10
-116.82500000000002
20
-2.5249999999999857
0
LWPOLYLINE
5
105
100
AcDbEntity
8
0
100
AcDbPolyline
90
4
70
1
43
0.0
10
-107.30000000000001
20
-40.624999999999993
10
-107.30000000000001
20
-54.624999999999993
10
-121.30000000000001
20
-54.624999999999986
10
-121.30000000000001
20
-40.624999999999986
0
LWPOLYLINE
5
106
100
AcDbEntity
8
0
100
AcDbPolyline
90
4
70
1
43
0.0
10
-145.40000000000001
20
-54.624999999999986
10
-159.40000000000001
20
-54.624999999999986
10
-159.40000000000001
20
-40.624999999999986
10
-145.40000000000001
20
-40.624999999999986
0
LWPOLYLINE
5
107
100
AcDbEntity
8
0
100
AcDbPolyline
90
4
70
1
43
0.0
10
-168.92500000000001
20
-2.524999999999979
10
-154.92500000000001
20
-2.5249999999999813
10
-154.92500000000001
20
-16.524999999999977
10
-168.92500000000001
20
-16.524999999999977
0
LWPOLYLINE
5
108
100
AcDbEntity
8
0
100
AcDbPolyline
90
4
70
1
43
0.0
10
-187.97499999999999
20
-35.574999999999982
10
-187.97499999999999
20
-21.574999999999982
10
-173.97500000000002
20
-21.574999999999982
10
-173.97500000000002
20
-35.574999999999982
0
LWPOLYLINE
5
109
100
AcDbEntity
8
0
100
AcDbPolyline
90
4
70
1
43
0.0
10
-126.34999999999999
20
-40.624999999999986
10
-126.34999999999999
20
-54.624999999999986
10
-140.34999999999999
20
-54.624999999999986
10
-140.34999999999999
20
-40.624999999999986
0
LWPOLYLINE
5
110
100
AcDbEntity
8
0
100
AcDbPolyline
90
4
70
1
43
0.0
10
-130.82499999999999
20
-35.574999999999989
10
-130.82499999999999
20
-21.574999999999985
10
-116.82500000000002
20
-21.574999999999989
10
-116.82500000000002
20
-35.574999999999989
0
LWPOLYLINE
5
111
100
AcDbEntity
8
0
100
AcDbPolyline
90
4
70
1
43
0.0
10
-97.77500000000002
20
-16.524999999999988
10
-111.77500000000002
20
-16.524999999999984
10
-111.77500000000002
20
-2.5249999999999861
10
-97.77500000000002
20
-2.5249999999999879
0
LWPOLYLINE
5
112
100
AcDbEntity
8
0
100
AcDbPolyline
90
4
70
1
43
0.0
10
-59.675000000000004
20
-35.574999999999996
10
-73.674999999999997
20
-35.574999999999996
10
-73.674999999999997
20
-21.574999999999992
10
-59.675000000000004
20
-21.574999999999992
0
LWPOLYLINE
5
113
100
AcDbEntity
8
0
100
AcDbPolyline
90
4
70
1
43
0.0
10
-64.15000000000002
20
-54.624999999999993
10
-64.15000000000002
20
-40.624999999999993
10
-50.150000000000013
20
-40.624999999999993
10
-50.150000000000013
20
-54.624999999999993
0
LWPOLYLINE
5
114
100
AcDbEntity
8
0
100
AcDbPolyline
90
4
70
1
43
0.0
10
-54.625
20
-2.5249999999999928
10
-40.625
20
-2.524999999999995
10
-40.625
20
-16.524999999999995
10
-54.625
20
-16.524999999999991
0
LWPOLYLINE
5
115
100
AcDbEntity
8
0
100
AcDbPolyline
90
4
70
1
43
0.0
10
-16.525000000000002
20
-21.575000000000003
10
-2.5250000000000017
20
-21.575000000000003
10
-2.5250000000000044
20
-35.575000000000003
10
-16.525000000000002
20
-35.575000000000003
0
LWPOLYLINE
5
116
100
AcDbEntity
8
0
100
AcDbPolyline
90
4
70
1
43
0.0
10
-35.57500000000001
20
-21.574999999999996
10
-21.575000000000006
20
-21.574999999999996
10
-21.575000000000006
20
-35.575000000000003
10
-35.57500000000001
20
-35.575000000000003
0
LWPOLYLINE
5
117
100
AcDbEntity
8
0
100
AcDbPolyline
90
4
70
1
43
0.0
10
-45.100000000000016
20
-40.624999999999993
10
-31.100000000000009
20
-40.625
10
-31.100000000000012
20
-54.625
10
-45.100000000000016
20
-54.624999999999993
0
LWPOLYLINE
5
118
100
AcDbEntity
8
0
100
AcDbPolyline
90
4
70
1
43
0.0
10
-88.250000000000014
20
-40.624999999999993
10
-88.250000000000014
20
-54.624999999999993
10
-102.25000000000001
20
-54.624999999999993
10
-102.25000000000001
20
-40.624999999999993
0
LWPOLYLINE
5
119
100
AcDbEntity
8
0
100
AcDbPolyline
90
4
70
1
43
0.0
10
-92.724999999999994
20
-2.5249999999999884
10
-78.724999999999994
20
-2.5249999999999906
10
-78.724999999999994
20
-16.524999999999991
10
-92.724999999999994
20
-16.524999999999988
0
LWPOLYLINE
5
120
100
AcDbEntity
8
0
100
AcDbPolyline
90
4
70
1
43
0.0
10
-135.875
20
-16.524999999999984
10
-149.875
20
-16.524999999999981
10
-149.875
20
-2.5249999999999817
10
-135.875
20
-2.5249999999999835
0
LWPOLYLINE
5
121
100
AcDbEntity
8
0
100
AcDbPolyline
90
12
70
1
43
0.0
10
-130.82500000000002
20
-73.674999999999983
10
-130.82499999999999
20
-59.674999999999983
10
-108.27500000000001
20
-59.674999999999997
10
-108.27500000000001
20
-58.67499999999999
10
-101.27500000000001
20
-58.67499999999999
10
-101.27500000000001
20
-59.674999999999997
10
-89.224999999999994
20
-59.674999999999997
10
-89.224999999999994
20
-58.67499999999999
10
-82.224999999999994
20
-58.67499999999999
10
-82.224999999999994
20
-59.674999999999997
10
-59.675000000000011
20
-59.674999999999997
10
-59.675000000000011
20
-73.674999999999983
0
LWPOLYLINE
5
122
100
AcDbEntity
8
0
100
AcDbPolyline
90
4
70
1
43
0.0
10
-183.21250000000003
20
-54.624999999999979
10
-183.21250000000003
20
-40.624999999999972
10
-169.21250000000001
20
-40.624999999999986
10
-169.21250000000001
20
-54.624999999999986
0
LWPOLYLINE
5
123
100
AcDbEntity
8
0
100
AcDbPolyline
90
4
70
1
43
0.0
10
-187.97499999999999
20
-2.5249999999999773
10
-173.97500000000002
20
-2.524999999999979
10
-173.97500000000002
20
-16.524999999999977
10
-187.97499999999999
20
-16.524999999999977
0
LWPOLYLINE
5
124
100
AcDbEntity
8
0
100
AcDbPolyline
90
4
70
1
43
0.0
10
-154.92500000000001
20
-21.574999999999985
10
-154.92500000000001
20
-35.574999999999989
10
-168.92500000000001
20
-35.574999999999982
10
-168.92500000000001
20
-21.574999999999982
0
LWPOLYLINE
5
125
100
AcDbEntity
8
0
100
AcDbPolyline
90
8
70
1
43
0.0
10
-146.375
20
-58.674999999999983
10
-139.375
20
-58.674999999999983
10
-139.375
20
-59.674999999999983
10
-133.49375000000003
20
-59.674999999999983
10
-133.49375000000003
20
-73.674999999999983
10
-147.49375000000003
20
-73.674999999999983
10
-147.49375000000001
20
-59.674999999999983
10
-146.375
20
-59.674999999999983
0
LWPOLYLINE
5
126
100
AcDbEntity
8
0
100
AcDbPolyline
90
4
70
1
43
0.0
10
-149.875
20
-21.574999999999985
10
-135.875
20
-21.574999999999985
10
-135.875
20
-35.574999999999989
10
-149.875
20
-35.574999999999989
0
LWPOLYLINE
5
127
100
AcDbEntity
8
0
100
AcDbPolyline
90
4
70
1
43
0.0
10
-111.77500000000002
20
-21.574999999999989
10
-97.77500000000002
20
-21.574999999999989
10
-97.77500000000002
20
-35.574999999999989
10
-111.77500000000002
20
-35.574999999999989
0
LWPOLYLINE
5
128
100
AcDbEntity
8
0
100
AcDbPolyline
90
4
70
1
43
0.0
10
-92.724999999999994
20
-21.574999999999989
10
-78.724999999999994
20
-21.574999999999992
10
-78.724999999999994
20
-35.574999999999996
10
-92.724999999999994
20
-35.574999999999989
0
LWPOLYLINE
5
129
100
AcDbEntity
8
0
100
AcDbPolyline
90
8
70
1
43
0.0
10
-51.125000000000014
20
-59.674999999999997
10
-51.125000000000014
20
-58.67499999999999
10
-44.125000000000014
20
-58.67499999999999
10
-44.125000000000014
20
-59.674999999999997
10
-43.006250000000009
20
-59.674999999999997
10
-43.006250000000009
20
-73.674999999999983
10
-57.006250000000016
20
-73.674999999999983
10
-57.006250000000016
20
-59.674999999999997
0
LWPOLYLINE
5
130
100
AcDbEntity
8
0
100
AcDbPolyline
90
4
70
1
43
0.0
10
-21.575000000000003
20
-2.5249999999999972
10
-21.575000000000003
20
-16.524999999999995
10
-35.575000000000003
20
-16.524999999999995
10
-35.575000000000003
20
-2.524999999999995
0
LWPOLYLINE
5
131
100
AcDbEntity
8
0
100
AcDbPolyline
90
4
70
1
43
0.0
10
-7.287500000000005
20
-40.625
10
-7.2875000000000068
20
-54.625
10
-21.287500000000009
20
-54.625
10
-21.287500000000005
20
-40.625
0
LWPOLYLINE
5
132
100
AcDbEntity
8
0
100
AcDbPolyline
90
32
70
1
43
0.0
10
-22.010468635614941
20
0
42
0.22264785814420882
10
-21.050000000000004
20
0.4500000000000004
10
-17.923220448682095
20
4.9168279304541525
42
-0.24473534683155754
10
-16.899180548033286
20
5.4499999999999975
10
-4.1508194519665604
20
5.4500000000000011
42
-0.24473534683150563
10
-3.1267795513178975
20
4.9168279304543576
10
-0.22596009934991143
20
0.77280014193037438
42
-0.15387907795855291
10
1.4232365286304116e-12
20
0.055972211475996403
10
-9.4368957093138306e-14
20
-76.255972211476148
42
-0.15387907795849778
10
-0.22596009935121231
20
-76.972800141930293
10
-3.1267795513180019
20
-81.116827930454193
42
-0.24473534683156389
10
-4.1508194519667914
20
-81.650000000000048
10
-16.899180548033236
20
-81.650000000000048
42
-0.24473534683156611
10
-17.923220448682034
20
-81.116827930454193
10
-21.049999999999951
20
-76.650000000000034
42
0.22264785814421931
10
-22.010468635614888
20
-76.200000000000017
10
-168.48953136438507
20
-76.199999999999974
42
0.22264785814424298
10
-169.44999999999999
20
-76.650000000000048
10
-172.57677955131797
20
-81.116827930454178
42
-0.24473534683158188
10
-173.60081945196683
20
-81.650000000000048
10
-186.34918054803336
20
-81.650000000000048
42
-0.24473534683157094
10
-187.37322044868208
20
-81.116827930454349
10
-190.2740399006498
20
-76.97280014193035
42
-0.15387907795856426
10
-190.50000000000108
20
-76.255972211476063
10
-190.5
20
0.05597221147616481
42
-0.15387907795850106
10
-190.27403990064883
20
0.7728001419303171
10
-187.37322044868205
20
4.916827930454196
42
-0.24473534683158094
10
-186.34918054803325
20
5.4500000000000126
10
-173.60081945196683
20
5.4500000000000206
42
-0.24473534683155729
10
-172.57677955131805
20
4.916827930454188
10
-169.4500000000001
20
0.45000000000001428
42
0.22264785814420426
10
-168.48953136438513
20
3.1918911957973251e-15
0
CIRCLE
5
133
100
AcDbEntity
8
0
100
AcDbCircle
10
179.97500000000005
20
2.7000000000000188
30
0
40
1.2750000000000128
210
0
220
0
230
-1
0
CIRCLE
5
134
100
AcDbEntity
8
0
100
AcDbCircle
10
10.524999999999967
20
-78.899999999999977
30
0
40
1.2749999999999995
210
0
220
0
230
-1
0
CIRCLE
5
135
100
AcDbEntity
8
0
100
AcDbCircle
10
179.97500000000005
20
-78.899999999999977
30
0
40
1.2750000000000128
210
0
220
0
230
-1
0
CIRCLE
5
136
100
AcDbEntity
8
0
100
AcDbCircle
10
10.525000000000002
20
2.7000000000000006
30
0
40
1.2749999999999995
210
0
220
0
230
-1
0
ENDSEC
0
SECTION
2
OBJECTS
0
DICTIONARY
5
C
100
AcDbDictionary
3
ACAD_GROUP
350
D
3
ACAD_MLINESTYLE
350
17
0
DICTIONARY
5
D
100
AcDbDictionary
0
DICTIONARY
5
1A
330
C
100
AcDbDictionary
0
DICTIONARY
5
17
100
AcDbDictionary
0
ENDSEC
0
EOF
