%TF.GenerationSoftware,KiCad,Pcbnew,(6.0.10)*%
%TF.CreationDate,2023-02-13T13:47:23-06:00*%
%TF.ProjectId,AlphaWetPCB,416c7068-6157-4657-9450-43422e6b6963,rev?*%
%TF.SameCoordinates,Original*%
%TF.FileFunction,Soldermask,Bot*%
%TF.FilePolarity,Negative*%
%FSLAX46Y46*%
G04 Gerber Fmt 4.6, Leading zero omitted, Abs format (unit mm)*
G04 Created by KiCad (PCBNEW (6.0.10)) date 2023-02-13 13:47:23*
%MOMM*%
%LPD*%
G01*
G04 APERTURE LIST*
G04 Aperture macros list*
%AMRoundRect*
0 Rectangle with rounded corners*
0 $1 Rounding radius*
0 $2 $3 $4 $5 $6 $7 $8 $9 X,Y pos of 4 corners*
0 Add a 4 corners polygon primitive as box body*
4,1,4,$2,$3,$4,$5,$6,$7,$8,$9,$2,$3,0*
0 Add four circle primitives for the rounded corners*
1,1,$1+$1,$2,$3*
1,1,$1+$1,$4,$5*
1,1,$1+$1,$6,$7*
1,1,$1+$1,$8,$9*
0 Add four rect primitives between the rounded corners*
20,1,$1+$1,$2,$3,$4,$5,0*
20,1,$1+$1,$4,$5,$6,$7,0*
20,1,$1+$1,$6,$7,$8,$9,0*
20,1,$1+$1,$8,$9,$2,$3,0*%
G04 Aperture macros list end*
%ADD10RoundRect,0.200000X0.275000X-0.200000X0.275000X0.200000X-0.275000X0.200000X-0.275000X-0.200000X0*%
%ADD11C,3.987800*%
%ADD12C,3.048000*%
%ADD13RoundRect,0.150000X0.475000X0.150000X-0.475000X0.150000X-0.475000X-0.150000X0.475000X-0.150000X0*%
%ADD14R,1.200000X0.900000*%
%ADD15RoundRect,0.200000X-0.200000X-0.275000X0.200000X-0.275000X0.200000X0.275000X-0.200000X0.275000X0*%
%ADD16C,1.750000*%
%ADD17RoundRect,0.250000X-1.025000X-1.000000X1.025000X-1.000000X1.025000X1.000000X-1.025000X1.000000X0*%
%ADD18C,3.300000*%
%ADD19RoundRect,0.140000X0.140000X0.170000X-0.140000X0.170000X-0.140000X-0.170000X0.140000X-0.170000X0*%
%ADD20RoundRect,0.250000X-0.625000X0.375000X-0.625000X-0.375000X0.625000X-0.375000X0.625000X0.375000X0*%
%ADD21RoundRect,0.250000X1.025000X1.000000X-1.025000X1.000000X-1.025000X-1.000000X1.025000X-1.000000X0*%
%ADD22RoundRect,0.140000X-0.170000X0.140000X-0.170000X-0.140000X0.170000X-0.140000X0.170000X0.140000X0*%
%ADD23RoundRect,0.150000X-0.587500X-0.150000X0.587500X-0.150000X0.587500X0.150000X-0.587500X0.150000X0*%
%ADD24RoundRect,0.135000X0.135000X0.185000X-0.135000X0.185000X-0.135000X-0.185000X0.135000X-0.185000X0*%
%ADD25RoundRect,0.140000X-0.140000X-0.170000X0.140000X-0.170000X0.140000X0.170000X-0.140000X0.170000X0*%
%ADD26RoundRect,0.140000X0.170000X-0.140000X0.170000X0.140000X-0.170000X0.140000X-0.170000X-0.140000X0*%
%ADD27C,0.650000*%
%ADD28R,0.600000X1.450000*%
%ADD29R,0.300000X1.450000*%
%ADD30O,1.000000X1.600000*%
%ADD31O,1.000000X2.100000*%
%ADD32RoundRect,0.006000X-0.094000X0.414000X-0.094000X-0.414000X0.094000X-0.414000X0.094000X0.414000X0*%
%ADD33RoundRect,0.020000X-0.400000X0.080000X-0.400000X-0.080000X0.400000X-0.080000X0.400000X0.080000X0*%
%ADD34R,3.100000X3.100000*%
%ADD35R,1.700000X1.000000*%
%ADD36R,1.700000X1.700000*%
%ADD37O,1.700000X1.700000*%
%ADD38RoundRect,0.200000X0.200000X0.275000X-0.200000X0.275000X-0.200000X-0.275000X0.200000X-0.275000X0*%
%ADD39RoundRect,0.150000X-0.150000X0.650000X-0.150000X-0.650000X0.150000X-0.650000X0.150000X0.650000X0*%
%ADD40R,1.200000X1.400000*%
G04 APERTURE END LIST*
D10*
%TO.C,R9*%
X222724696Y-91564256D03*
X222724696Y-89914256D03*
%TD*%
D11*
%TO.C,S3*%
X128587500Y-79057500D03*
D12*
X90487500Y-94297500D03*
X128587500Y-94297500D03*
D11*
X90487500Y-79057500D03*
%TD*%
%TO.C,S6*%
X185737500Y-79057500D03*
D12*
X185737500Y-94297500D03*
X147637500Y-94297500D03*
D11*
X147637500Y-79057500D03*
%TD*%
D13*
%TO.C,U4*%
X139287500Y-28450000D03*
X139287500Y-29400000D03*
X139362500Y-30350000D03*
X136937500Y-30350000D03*
X136937500Y-29400000D03*
X136937500Y-28450000D03*
%TD*%
D14*
%TO.C,D3*%
X93662500Y-32606250D03*
X93662500Y-29306250D03*
%TD*%
D15*
%TO.C,R1*%
X133466019Y-28481282D03*
X135116019Y-28481282D03*
%TD*%
D14*
%TO.C,D28*%
X198437500Y-69912500D03*
X198437500Y-66612500D03*
%TD*%
D16*
%TO.C,SW6*%
X142557500Y-30162500D03*
X152717500Y-30162500D03*
D11*
X147637500Y-30162500D03*
D17*
X154997500Y-32702500D03*
D18*
X151447500Y-32702500D03*
D17*
X141547500Y-35242500D03*
D18*
X145097500Y-35242500D03*
%TD*%
D19*
%TO.C,C11*%
X211467500Y-87018750D03*
X210507500Y-87018750D03*
%TD*%
D14*
%TO.C,D27*%
X179387500Y-70706250D03*
X179387500Y-67406250D03*
%TD*%
D20*
%TO.C,F1*%
X130968750Y-23206250D03*
X130968750Y-26006250D03*
%TD*%
D14*
%TO.C,D2*%
X74612500Y-32606250D03*
X74612500Y-29306250D03*
%TD*%
D16*
%TO.C,SW1*%
X47307500Y-30162500D03*
X57467500Y-30162500D03*
D11*
X52387500Y-30162500D03*
D21*
X45027500Y-27622500D03*
D18*
X48577500Y-27622500D03*
D21*
X58477500Y-25082500D03*
D18*
X54927500Y-25082500D03*
%TD*%
D14*
%TO.C,D35*%
X176212500Y-76137500D03*
X176212500Y-79437500D03*
%TD*%
%TO.C,D24*%
X122237500Y-70706250D03*
X122237500Y-67406250D03*
%TD*%
D11*
%TO.C,SW9*%
X204787500Y-30162500D03*
D16*
X199707500Y-30162500D03*
X209867500Y-30162500D03*
D21*
X197427500Y-27622500D03*
D18*
X200977500Y-27622500D03*
X207327500Y-25082500D03*
D21*
X210877500Y-25082500D03*
%TD*%
D16*
%TO.C,SW16*%
X142557500Y-49212500D03*
D11*
X147637500Y-49212500D03*
D16*
X152717500Y-49212500D03*
D18*
X143827500Y-46672500D03*
D21*
X140277500Y-46672500D03*
D18*
X150177500Y-44132500D03*
D21*
X153727500Y-44132500D03*
%TD*%
D22*
%TO.C,C4*%
X196687500Y-89238750D03*
X196687500Y-90198750D03*
%TD*%
D16*
%TO.C,SW26*%
X152082500Y-68262500D03*
D11*
X157162500Y-68262500D03*
D16*
X162242500Y-68262500D03*
D18*
X153352500Y-65722500D03*
D21*
X149802500Y-65722500D03*
D18*
X159702500Y-63182500D03*
D21*
X163252500Y-63182500D03*
%TD*%
D14*
%TO.C,D9*%
X207962500Y-32606250D03*
X207962500Y-29306250D03*
%TD*%
D15*
%TO.C,R4*%
X194662500Y-82518750D03*
X196312500Y-82518750D03*
%TD*%
D14*
%TO.C,D4*%
X112712500Y-32606250D03*
X112712500Y-29306250D03*
%TD*%
D23*
%TO.C,U1*%
X193797295Y-87484478D03*
X193797295Y-85584478D03*
X195672295Y-86534478D03*
%TD*%
D14*
%TO.C,D33*%
X163512500Y-76137500D03*
X163512500Y-79437500D03*
%TD*%
D16*
%TO.C,SW5*%
X133667500Y-30162500D03*
X123507500Y-30162500D03*
D11*
X128587500Y-30162500D03*
D18*
X132397500Y-32702500D03*
D17*
X135947500Y-32702500D03*
X122497500Y-35242500D03*
D18*
X126047500Y-35242500D03*
%TD*%
D14*
%TO.C,D12*%
X74612500Y-51656250D03*
X74612500Y-48356250D03*
%TD*%
%TO.C,D7*%
X169862500Y-32606250D03*
X169862500Y-29306250D03*
%TD*%
D24*
%TO.C,R8*%
X226008166Y-85763956D03*
X224988166Y-85763956D03*
%TD*%
D19*
%TO.C,C17*%
X211467500Y-91018750D03*
X210507500Y-91018750D03*
%TD*%
D14*
%TO.C,D13*%
X93662500Y-51656250D03*
X93662500Y-48356250D03*
%TD*%
%TO.C,D6*%
X150812500Y-26131250D03*
X150812500Y-29431250D03*
%TD*%
D16*
%TO.C,SW10*%
X218757500Y-30162500D03*
D11*
X223837500Y-30162500D03*
D16*
X228917500Y-30162500D03*
D18*
X220027500Y-27622500D03*
D21*
X216477500Y-27622500D03*
X229927500Y-25082500D03*
D18*
X226377500Y-25082500D03*
%TD*%
D16*
%TO.C,SW24*%
X124142500Y-68262500D03*
D11*
X119062500Y-68262500D03*
D16*
X113982500Y-68262500D03*
D18*
X115252500Y-65722500D03*
D21*
X111702500Y-65722500D03*
X125152500Y-63182500D03*
D18*
X121602500Y-63182500D03*
%TD*%
D16*
%TO.C,SW23*%
X105092500Y-68262500D03*
D11*
X100012500Y-68262500D03*
D16*
X94932500Y-68262500D03*
D21*
X92652500Y-65722500D03*
D18*
X96202500Y-65722500D03*
D21*
X106102500Y-63182500D03*
D18*
X102552500Y-63182500D03*
%TD*%
D14*
%TO.C,D8*%
X188912500Y-32606250D03*
X188912500Y-29306250D03*
%TD*%
%TO.C,D22*%
X84137500Y-70706250D03*
X84137500Y-67406250D03*
%TD*%
%TO.C,D23*%
X103187500Y-70706250D03*
X103187500Y-67406250D03*
%TD*%
D25*
%TO.C,C10*%
X225018166Y-86770506D03*
X225978166Y-86770506D03*
%TD*%
D14*
%TO.C,D29*%
X222250000Y-70706250D03*
X222250000Y-67406250D03*
%TD*%
%TO.C,D18*%
X188912500Y-51656250D03*
X188912500Y-48356250D03*
%TD*%
D26*
%TO.C,C15*%
X204887500Y-86298750D03*
X204887500Y-85338750D03*
%TD*%
D27*
%TO.C,J1*%
X141002500Y-25000000D03*
X135222500Y-25000000D03*
D28*
X134862500Y-26445000D03*
X135662500Y-26445000D03*
D29*
X136862500Y-26445000D03*
X137862500Y-26445000D03*
X138362500Y-26445000D03*
X139362500Y-26445000D03*
D28*
X140562500Y-26445000D03*
X141362500Y-26445000D03*
X141362500Y-26445000D03*
X140562500Y-26445000D03*
D29*
X139862500Y-26445000D03*
X138862500Y-26445000D03*
X137362500Y-26445000D03*
X136362500Y-26445000D03*
D28*
X135662500Y-26445000D03*
X134862500Y-26445000D03*
D30*
X142432500Y-21350000D03*
D31*
X133792500Y-25530000D03*
X142432500Y-25530000D03*
D30*
X133792500Y-21350000D03*
%TD*%
D14*
%TO.C,D16*%
X150812500Y-51656250D03*
X150812500Y-48356250D03*
%TD*%
D32*
%TO.C,U3*%
X214887500Y-83083750D03*
X215287500Y-83083750D03*
X215687500Y-83083750D03*
X216087500Y-83083750D03*
X216487500Y-83083750D03*
X216887500Y-83083750D03*
X217287500Y-83083750D03*
X217687500Y-83083750D03*
X218087500Y-83083750D03*
X218487500Y-83083750D03*
X218887500Y-83083750D03*
X219287500Y-83083750D03*
X219687500Y-83083750D03*
X220087500Y-83083750D03*
D33*
X220922500Y-83918750D03*
X220922500Y-84318750D03*
X220922500Y-84718750D03*
X220922500Y-85118750D03*
X220922500Y-85518750D03*
X220922500Y-85918750D03*
X220922500Y-86318750D03*
X220922500Y-86718750D03*
X220922500Y-87118750D03*
X220922500Y-87518750D03*
X220922500Y-87918750D03*
X220922500Y-88318750D03*
X220922500Y-88718750D03*
X220922500Y-89118750D03*
D32*
X220087500Y-89953750D03*
X219687500Y-89953750D03*
X219287500Y-89953750D03*
X218887500Y-89953750D03*
X218487500Y-89953750D03*
X218087500Y-89953750D03*
X217687500Y-89953750D03*
X217287500Y-89953750D03*
X216887500Y-89953750D03*
X216487500Y-89953750D03*
X216087500Y-89953750D03*
X215687500Y-89953750D03*
X215287500Y-89953750D03*
X214887500Y-89953750D03*
D33*
X214052500Y-89118750D03*
X214052500Y-88718750D03*
X214052500Y-88318750D03*
X214052500Y-87918750D03*
X214052500Y-87518750D03*
X214052500Y-87118750D03*
X214052500Y-86718750D03*
X214052500Y-86318750D03*
X214052500Y-85918750D03*
X214052500Y-85518750D03*
X214052500Y-85118750D03*
X214052500Y-84718750D03*
X214052500Y-84318750D03*
X214052500Y-83918750D03*
D34*
X217487500Y-86518750D03*
%TD*%
D16*
%TO.C,SW39*%
X87788750Y-87312500D03*
X97948750Y-87312500D03*
D11*
X92868750Y-87312500D03*
D18*
X89058750Y-84772500D03*
D21*
X85508750Y-84772500D03*
D18*
X95408750Y-82232500D03*
D21*
X98958750Y-82232500D03*
%TD*%
D22*
%TO.C,C13*%
X218263631Y-91559298D03*
X218263631Y-92519298D03*
%TD*%
D14*
%TO.C,D5*%
X125412500Y-26131250D03*
X125412500Y-29431250D03*
%TD*%
%TO.C,D32*%
X112712500Y-76137500D03*
X112712500Y-79437500D03*
%TD*%
D16*
%TO.C,SW13*%
X95567500Y-49212500D03*
X85407500Y-49212500D03*
D11*
X90487500Y-49212500D03*
D21*
X83127500Y-46672500D03*
D18*
X86677500Y-46672500D03*
D21*
X96577500Y-44132500D03*
D18*
X93027500Y-44132500D03*
%TD*%
D25*
%TO.C,C2*%
X193577911Y-84067246D03*
X194537911Y-84067246D03*
%TD*%
D11*
%TO.C,SW40*%
X121443750Y-87312500D03*
D16*
X126523750Y-87312500D03*
X116363750Y-87312500D03*
D18*
X117633750Y-84772500D03*
D21*
X114083750Y-84772500D03*
D18*
X123983750Y-82232500D03*
D21*
X127533750Y-82232500D03*
%TD*%
D14*
%TO.C,D10*%
X227012500Y-32606250D03*
X227012500Y-29306250D03*
%TD*%
D16*
%TO.C,SW21*%
X62230000Y-68262500D03*
X52070000Y-68262500D03*
D11*
X57150000Y-68262500D03*
D18*
X53340000Y-65722500D03*
D21*
X49790000Y-65722500D03*
X63240000Y-63182500D03*
D18*
X59690000Y-63182500D03*
%TD*%
D11*
%TO.C,SW43*%
X166687500Y-87312500D03*
D16*
X171767500Y-87312500D03*
X161607500Y-87312500D03*
D18*
X170497500Y-89852500D03*
D17*
X174047500Y-89852500D03*
D18*
X164147500Y-92392500D03*
D17*
X160597500Y-92392500D03*
%TD*%
D11*
%TO.C,SW11*%
X52387500Y-49212500D03*
D16*
X57467500Y-49212500D03*
X47307500Y-49212500D03*
D21*
X45027500Y-46672500D03*
D18*
X48577500Y-46672500D03*
X54927500Y-44132500D03*
D21*
X58477500Y-44132500D03*
%TD*%
D24*
%TO.C,R7*%
X211497500Y-88018750D03*
X210477500Y-88018750D03*
%TD*%
D16*
%TO.C,SW2*%
X76517500Y-30162500D03*
X66357500Y-30162500D03*
D11*
X71437500Y-30162500D03*
D21*
X64077500Y-27622500D03*
D18*
X67627500Y-27622500D03*
X73977500Y-25082500D03*
D21*
X77527500Y-25082500D03*
%TD*%
D24*
%TO.C,R5*%
X198797500Y-80318750D03*
X197777500Y-80318750D03*
%TD*%
D19*
%TO.C,C8*%
X211467500Y-86018750D03*
X210507500Y-86018750D03*
%TD*%
D16*
%TO.C,SW27*%
X181292500Y-68262500D03*
X171132500Y-68262500D03*
D11*
X176212500Y-68262500D03*
D18*
X172402500Y-65722500D03*
D21*
X168852500Y-65722500D03*
D18*
X178752500Y-63182500D03*
D21*
X182302500Y-63182500D03*
%TD*%
D14*
%TO.C,D1*%
X55562500Y-32606250D03*
X55562500Y-29306250D03*
%TD*%
D11*
%TO.C,SW29*%
X219075000Y-68262500D03*
D16*
X224155000Y-68262500D03*
X213995000Y-68262500D03*
D21*
X211715000Y-65722500D03*
D18*
X215265000Y-65722500D03*
D21*
X225165000Y-63182500D03*
D18*
X221615000Y-63182500D03*
%TD*%
D14*
%TO.C,D25*%
X141287500Y-70706250D03*
X141287500Y-67406250D03*
%TD*%
D11*
%TO.C,SW25*%
X138112500Y-68262500D03*
D16*
X143192500Y-68262500D03*
X133032500Y-68262500D03*
D21*
X130752500Y-65722500D03*
D18*
X134302500Y-65722500D03*
X140652500Y-63182500D03*
D21*
X144202500Y-63182500D03*
%TD*%
D35*
%TO.C,SWR1*%
X203175000Y-71918750D03*
X196875000Y-71918750D03*
X196875000Y-75718750D03*
X203175000Y-75718750D03*
%TD*%
D14*
%TO.C,D19*%
X207962500Y-51656250D03*
X207962500Y-48356250D03*
%TD*%
D16*
%TO.C,SW12*%
X76517500Y-49212500D03*
X66357500Y-49212500D03*
D11*
X71437500Y-49212500D03*
D21*
X64077500Y-46672500D03*
D18*
X67627500Y-46672500D03*
D21*
X77527500Y-44132500D03*
D18*
X73977500Y-44132500D03*
%TD*%
D19*
%TO.C,C18*%
X211467500Y-90018750D03*
X210507500Y-90018750D03*
%TD*%
D16*
%TO.C,SW7*%
X171767500Y-30162500D03*
X161607500Y-30162500D03*
D11*
X166687500Y-30162500D03*
D18*
X162877500Y-27622500D03*
D21*
X159327500Y-27622500D03*
D18*
X169227500Y-25082500D03*
D21*
X172777500Y-25082500D03*
%TD*%
D11*
%TO.C,SW19*%
X204787500Y-49212500D03*
D16*
X199707500Y-49212500D03*
X209867500Y-49212500D03*
D18*
X200977500Y-46672500D03*
D21*
X197427500Y-46672500D03*
D18*
X207327500Y-44132500D03*
D21*
X210877500Y-44132500D03*
%TD*%
D36*
%TO.C,SWD2*%
X227950000Y-94456250D03*
D37*
X225410000Y-94456250D03*
X222870000Y-94456250D03*
%TD*%
D38*
%TO.C,R3*%
X142787437Y-28481282D03*
X141137437Y-28481282D03*
%TD*%
D26*
%TO.C,C5*%
X226998166Y-87250506D03*
X226998166Y-86290506D03*
%TD*%
D22*
%TO.C,C12*%
X212987500Y-92038750D03*
X212987500Y-92998750D03*
%TD*%
D16*
%TO.C,SW22*%
X75882500Y-68262500D03*
D11*
X80962500Y-68262500D03*
D16*
X86042500Y-68262500D03*
D18*
X77152500Y-65722500D03*
D21*
X73602500Y-65722500D03*
D18*
X83502500Y-63182500D03*
D21*
X87052500Y-63182500D03*
%TD*%
D14*
%TO.C,D15*%
X131762500Y-51656250D03*
X131762500Y-48356250D03*
%TD*%
%TO.C,D20*%
X227012500Y-51656250D03*
X227012500Y-48356250D03*
%TD*%
%TO.C,D30*%
X100012500Y-76137500D03*
X100012500Y-79437500D03*
%TD*%
D11*
%TO.C,SW3*%
X90487500Y-30162500D03*
D16*
X95567500Y-30162500D03*
X85407500Y-30162500D03*
D18*
X86677500Y-27622500D03*
D21*
X83127500Y-27622500D03*
D18*
X93027500Y-25082500D03*
D21*
X96577500Y-25082500D03*
%TD*%
D11*
%TO.C,SW45*%
X183356250Y-87312500D03*
D16*
X188436250Y-87312500D03*
X178276250Y-87312500D03*
D18*
X179546250Y-84772500D03*
D21*
X175996250Y-84772500D03*
X189446250Y-82232500D03*
D18*
X185896250Y-82232500D03*
%TD*%
D14*
%TO.C,D31*%
X106362500Y-76137500D03*
X106362500Y-79437500D03*
%TD*%
D26*
%TO.C,C9*%
X218227444Y-81536680D03*
X218227444Y-80576680D03*
%TD*%
D19*
%TO.C,C14*%
X213567500Y-81918750D03*
X212607500Y-81918750D03*
%TD*%
D11*
%TO.C,SW18*%
X185737500Y-49212500D03*
D16*
X180657500Y-49212500D03*
X190817500Y-49212500D03*
D18*
X181927500Y-46672500D03*
D21*
X178377500Y-46672500D03*
X191827500Y-44132500D03*
D18*
X188277500Y-44132500D03*
%TD*%
D39*
%TO.C,U2*%
X198382500Y-82018750D03*
X199652500Y-82018750D03*
X200922500Y-82018750D03*
X202192500Y-82018750D03*
X202192500Y-89218750D03*
X200922500Y-89218750D03*
X199652500Y-89218750D03*
X198382500Y-89218750D03*
%TD*%
D24*
%TO.C,R6*%
X211497500Y-89018750D03*
X210477500Y-89018750D03*
%TD*%
D16*
%TO.C,SW28*%
X200342500Y-68262500D03*
X190182500Y-68262500D03*
D11*
X195262500Y-68262500D03*
D21*
X187902500Y-65722500D03*
D18*
X191452500Y-65722500D03*
D21*
X201352500Y-63182500D03*
D18*
X197802500Y-63182500D03*
%TD*%
D35*
%TO.C,SWR2*%
X213543750Y-71918750D03*
X219843750Y-71918750D03*
X219843750Y-75718750D03*
X213543750Y-75718750D03*
%TD*%
D16*
%TO.C,SW8*%
X180657500Y-30162500D03*
D11*
X185737500Y-30162500D03*
D16*
X190817500Y-30162500D03*
D18*
X181927500Y-27622500D03*
D21*
X178377500Y-27622500D03*
D18*
X188277500Y-25082500D03*
D21*
X191827500Y-25082500D03*
%TD*%
D25*
%TO.C,C7*%
X225018166Y-87770506D03*
X225978166Y-87770506D03*
%TD*%
D14*
%TO.C,D11*%
X55562500Y-51656250D03*
X55562500Y-48356250D03*
%TD*%
%TO.C,D14*%
X112712500Y-51656250D03*
X112712500Y-48356250D03*
%TD*%
D16*
%TO.C,SW14*%
X114617500Y-49212500D03*
D11*
X109537500Y-49212500D03*
D16*
X104457500Y-49212500D03*
D21*
X102177500Y-46672500D03*
D18*
X105727500Y-46672500D03*
X112077500Y-44132500D03*
D21*
X115627500Y-44132500D03*
%TD*%
D19*
%TO.C,C1*%
X195262500Y-88900000D03*
X194302500Y-88900000D03*
%TD*%
D16*
%TO.C,SW20*%
X218757500Y-49212500D03*
X228917500Y-49212500D03*
D11*
X223837500Y-49212500D03*
D21*
X216477500Y-46672500D03*
D18*
X220027500Y-46672500D03*
X226377500Y-44132500D03*
D21*
X229927500Y-44132500D03*
%TD*%
D16*
%TO.C,SW44*%
X159861250Y-87312500D03*
X149701250Y-87312500D03*
D11*
X154781250Y-87312500D03*
D18*
X150971250Y-84772500D03*
D21*
X147421250Y-84772500D03*
D18*
X157321250Y-82232500D03*
D21*
X160871250Y-82232500D03*
%TD*%
D26*
%TO.C,C6*%
X226998166Y-85270506D03*
X226998166Y-84310506D03*
%TD*%
D16*
%TO.C,SW15*%
X133667500Y-49212500D03*
D11*
X128587500Y-49212500D03*
D16*
X123507500Y-49212500D03*
D18*
X124777500Y-46672500D03*
D21*
X121227500Y-46672500D03*
D18*
X131127500Y-44132500D03*
D21*
X134677500Y-44132500D03*
%TD*%
D14*
%TO.C,D17*%
X169862500Y-51656250D03*
X169862500Y-48356250D03*
%TD*%
%TO.C,D21*%
X60325000Y-70706250D03*
X60325000Y-67406250D03*
%TD*%
D11*
%TO.C,SW4*%
X109537500Y-30162500D03*
D16*
X114617500Y-30162500D03*
X104457500Y-30162500D03*
D21*
X102177500Y-27622500D03*
D18*
X105727500Y-27622500D03*
D21*
X115627500Y-25082500D03*
D18*
X112077500Y-25082500D03*
%TD*%
D16*
%TO.C,SW42*%
X143192500Y-87312500D03*
X133032500Y-87312500D03*
D11*
X138112500Y-87312500D03*
D21*
X130752500Y-84772500D03*
D18*
X134302500Y-84772500D03*
D21*
X144202500Y-82232500D03*
D18*
X140652500Y-82232500D03*
%TD*%
D40*
%TO.C,Y1*%
X228648166Y-86870506D03*
X228648166Y-84670506D03*
X230348166Y-84670506D03*
X230348166Y-86870506D03*
%TD*%
D16*
%TO.C,SW41*%
X104457500Y-87312500D03*
X114617500Y-87312500D03*
D11*
X109537500Y-87312500D03*
D18*
X113347500Y-89852500D03*
D17*
X116897500Y-89852500D03*
D18*
X106997500Y-92392500D03*
D17*
X103447500Y-92392500D03*
%TD*%
D11*
%TO.C,SW17*%
X166687500Y-49212500D03*
D16*
X171767500Y-49212500D03*
X161607500Y-49212500D03*
D21*
X159327500Y-46672500D03*
D18*
X162877500Y-46672500D03*
D21*
X172777500Y-44132500D03*
D18*
X169227500Y-44132500D03*
%TD*%
D14*
%TO.C,D34*%
X169862500Y-76137500D03*
X169862500Y-79437500D03*
%TD*%
%TO.C,D26*%
X160337500Y-70706250D03*
X160337500Y-67406250D03*
%TD*%
M02*
