%TF.GenerationSoftware,KiCad,Pcbnew,(6.0.10)*%
%TF.CreationDate,2023-02-13T13:47:23-06:00*%
%TF.ProjectId,AlphaWetPCB,416c7068-6157-4657-9450-43422e6b6963,rev?*%
%TF.SameCoordinates,Original*%
%TF.FileFunction,Paste,Bot*%
%TF.FilePolarity,Positive*%
%FSLAX46Y46*%
G04 Gerber Fmt 4.6, Leading zero omitted, Abs format (unit mm)*
G04 Created by KiCad (PCBNEW (6.0.10)) date 2023-02-13 13:47:23*
%MOMM*%
%LPD*%
G01*
G04 APERTURE LIST*
G04 Aperture macros list*
%AMRoundRect*
0 Rectangle with rounded corners*
0 $1 Rounding radius*
0 $2 $3 $4 $5 $6 $7 $8 $9 X,Y pos of 4 corners*
0 Add a 4 corners polygon primitive as box body*
4,1,4,$2,$3,$4,$5,$6,$7,$8,$9,$2,$3,0*
0 Add four circle primitives for the rounded corners*
1,1,$1+$1,$2,$3*
1,1,$1+$1,$4,$5*
1,1,$1+$1,$6,$7*
1,1,$1+$1,$8,$9*
0 Add four rect primitives between the rounded corners*
20,1,$1+$1,$2,$3,$4,$5,0*
20,1,$1+$1,$4,$5,$6,$7,0*
20,1,$1+$1,$6,$7,$8,$9,0*
20,1,$1+$1,$8,$9,$2,$3,0*%
G04 Aperture macros list end*
%ADD10C,0.010000*%
%ADD11RoundRect,0.200000X0.275000X-0.200000X0.275000X0.200000X-0.275000X0.200000X-0.275000X-0.200000X0*%
%ADD12RoundRect,0.150000X0.475000X0.150000X-0.475000X0.150000X-0.475000X-0.150000X0.475000X-0.150000X0*%
%ADD13R,1.200000X0.900000*%
%ADD14RoundRect,0.200000X-0.200000X-0.275000X0.200000X-0.275000X0.200000X0.275000X-0.200000X0.275000X0*%
%ADD15RoundRect,0.250000X-1.025000X-1.000000X1.025000X-1.000000X1.025000X1.000000X-1.025000X1.000000X0*%
%ADD16RoundRect,0.140000X0.140000X0.170000X-0.140000X0.170000X-0.140000X-0.170000X0.140000X-0.170000X0*%
%ADD17RoundRect,0.250000X-0.625000X0.375000X-0.625000X-0.375000X0.625000X-0.375000X0.625000X0.375000X0*%
%ADD18RoundRect,0.250000X1.025000X1.000000X-1.025000X1.000000X-1.025000X-1.000000X1.025000X-1.000000X0*%
%ADD19RoundRect,0.140000X-0.170000X0.140000X-0.170000X-0.140000X0.170000X-0.140000X0.170000X0.140000X0*%
%ADD20RoundRect,0.150000X-0.587500X-0.150000X0.587500X-0.150000X0.587500X0.150000X-0.587500X0.150000X0*%
%ADD21RoundRect,0.135000X0.135000X0.185000X-0.135000X0.185000X-0.135000X-0.185000X0.135000X-0.185000X0*%
%ADD22RoundRect,0.140000X-0.140000X-0.170000X0.140000X-0.170000X0.140000X0.170000X-0.140000X0.170000X0*%
%ADD23RoundRect,0.140000X0.170000X-0.140000X0.170000X0.140000X-0.170000X0.140000X-0.170000X-0.140000X0*%
%ADD24R,0.600000X1.450000*%
%ADD25R,0.300000X1.450000*%
%ADD26RoundRect,0.006000X-0.094000X0.414000X-0.094000X-0.414000X0.094000X-0.414000X0.094000X0.414000X0*%
%ADD27RoundRect,0.020000X-0.400000X0.080000X-0.400000X-0.080000X0.400000X-0.080000X0.400000X0.080000X0*%
%ADD28R,1.700000X1.000000*%
%ADD29RoundRect,0.200000X0.200000X0.275000X-0.200000X0.275000X-0.200000X-0.275000X0.200000X-0.275000X0*%
%ADD30RoundRect,0.150000X-0.150000X0.650000X-0.150000X-0.650000X0.150000X-0.650000X0.150000X0.650000X0*%
%ADD31R,1.200000X1.400000*%
G04 APERTURE END LIST*
%TO.C,U3*%
G36*
X218467500Y-87498750D02*
G01*
X216507500Y-87498750D01*
X216507500Y-85538750D01*
X218467500Y-85538750D01*
X218467500Y-87498750D01*
G37*
D10*
X218467500Y-87498750D02*
X216507500Y-87498750D01*
X216507500Y-85538750D01*
X218467500Y-85538750D01*
X218467500Y-87498750D01*
%TD*%
D11*
%TO.C,R9*%
X222724696Y-91564256D03*
X222724696Y-89914256D03*
%TD*%
D12*
%TO.C,U4*%
X139287500Y-28450000D03*
X139287500Y-29400000D03*
X139362500Y-30350000D03*
X136937500Y-30350000D03*
X136937500Y-29400000D03*
X136937500Y-28450000D03*
%TD*%
D13*
%TO.C,D3*%
X93662500Y-32606250D03*
X93662500Y-29306250D03*
%TD*%
D14*
%TO.C,R1*%
X133466019Y-28481282D03*
X135116019Y-28481282D03*
%TD*%
D13*
%TO.C,D28*%
X198437500Y-69912500D03*
X198437500Y-66612500D03*
%TD*%
D15*
%TO.C,SW6*%
X154997500Y-32702500D03*
X141547500Y-35242500D03*
%TD*%
D16*
%TO.C,C11*%
X211467500Y-87018750D03*
X210507500Y-87018750D03*
%TD*%
D13*
%TO.C,D27*%
X179387500Y-70706250D03*
X179387500Y-67406250D03*
%TD*%
D17*
%TO.C,F1*%
X130968750Y-23206250D03*
X130968750Y-26006250D03*
%TD*%
D13*
%TO.C,D2*%
X74612500Y-32606250D03*
X74612500Y-29306250D03*
%TD*%
D18*
%TO.C,SW1*%
X45027500Y-27622500D03*
X58477500Y-25082500D03*
%TD*%
D13*
%TO.C,D35*%
X176212500Y-76137500D03*
X176212500Y-79437500D03*
%TD*%
%TO.C,D24*%
X122237500Y-70706250D03*
X122237500Y-67406250D03*
%TD*%
D18*
%TO.C,SW9*%
X197427500Y-27622500D03*
X210877500Y-25082500D03*
%TD*%
%TO.C,SW16*%
X140277500Y-46672500D03*
X153727500Y-44132500D03*
%TD*%
D19*
%TO.C,C4*%
X196687500Y-89238750D03*
X196687500Y-90198750D03*
%TD*%
D18*
%TO.C,SW26*%
X149802500Y-65722500D03*
X163252500Y-63182500D03*
%TD*%
D13*
%TO.C,D9*%
X207962500Y-32606250D03*
X207962500Y-29306250D03*
%TD*%
D14*
%TO.C,R4*%
X194662500Y-82518750D03*
X196312500Y-82518750D03*
%TD*%
D13*
%TO.C,D4*%
X112712500Y-32606250D03*
X112712500Y-29306250D03*
%TD*%
D20*
%TO.C,U1*%
X193797295Y-87484478D03*
X193797295Y-85584478D03*
X195672295Y-86534478D03*
%TD*%
D13*
%TO.C,D33*%
X163512500Y-76137500D03*
X163512500Y-79437500D03*
%TD*%
D15*
%TO.C,SW5*%
X135947500Y-32702500D03*
X122497500Y-35242500D03*
%TD*%
D13*
%TO.C,D12*%
X74612500Y-51656250D03*
X74612500Y-48356250D03*
%TD*%
%TO.C,D7*%
X169862500Y-32606250D03*
X169862500Y-29306250D03*
%TD*%
D21*
%TO.C,R8*%
X226008166Y-85763956D03*
X224988166Y-85763956D03*
%TD*%
D16*
%TO.C,C17*%
X211467500Y-91018750D03*
X210507500Y-91018750D03*
%TD*%
D13*
%TO.C,D13*%
X93662500Y-51656250D03*
X93662500Y-48356250D03*
%TD*%
%TO.C,D6*%
X150812500Y-26131250D03*
X150812500Y-29431250D03*
%TD*%
D18*
%TO.C,SW10*%
X216477500Y-27622500D03*
X229927500Y-25082500D03*
%TD*%
%TO.C,SW24*%
X111702500Y-65722500D03*
X125152500Y-63182500D03*
%TD*%
%TO.C,SW23*%
X92652500Y-65722500D03*
X106102500Y-63182500D03*
%TD*%
D13*
%TO.C,D8*%
X188912500Y-32606250D03*
X188912500Y-29306250D03*
%TD*%
%TO.C,D22*%
X84137500Y-70706250D03*
X84137500Y-67406250D03*
%TD*%
%TO.C,D23*%
X103187500Y-70706250D03*
X103187500Y-67406250D03*
%TD*%
D22*
%TO.C,C10*%
X225018166Y-86770506D03*
X225978166Y-86770506D03*
%TD*%
D13*
%TO.C,D29*%
X222250000Y-70706250D03*
X222250000Y-67406250D03*
%TD*%
%TO.C,D18*%
X188912500Y-51656250D03*
X188912500Y-48356250D03*
%TD*%
D23*
%TO.C,C15*%
X204887500Y-86298750D03*
X204887500Y-85338750D03*
%TD*%
D24*
%TO.C,J1*%
X134862500Y-26445000D03*
X135662500Y-26445000D03*
D25*
X136862500Y-26445000D03*
X137862500Y-26445000D03*
X138362500Y-26445000D03*
X139362500Y-26445000D03*
D24*
X140562500Y-26445000D03*
X141362500Y-26445000D03*
X141362500Y-26445000D03*
X140562500Y-26445000D03*
D25*
X139862500Y-26445000D03*
X138862500Y-26445000D03*
X137362500Y-26445000D03*
X136362500Y-26445000D03*
D24*
X135662500Y-26445000D03*
X134862500Y-26445000D03*
%TD*%
D13*
%TO.C,D16*%
X150812500Y-51656250D03*
X150812500Y-48356250D03*
%TD*%
D26*
%TO.C,U3*%
X214887500Y-83083750D03*
X215287500Y-83083750D03*
X215687500Y-83083750D03*
X216087500Y-83083750D03*
X216487500Y-83083750D03*
X216887500Y-83083750D03*
X217287500Y-83083750D03*
X217687500Y-83083750D03*
X218087500Y-83083750D03*
X218487500Y-83083750D03*
X218887500Y-83083750D03*
X219287500Y-83083750D03*
X219687500Y-83083750D03*
X220087500Y-83083750D03*
D27*
X220922500Y-83918750D03*
X220922500Y-84318750D03*
X220922500Y-84718750D03*
X220922500Y-85118750D03*
X220922500Y-85518750D03*
X220922500Y-85918750D03*
X220922500Y-86318750D03*
X220922500Y-86718750D03*
X220922500Y-87118750D03*
X220922500Y-87518750D03*
X220922500Y-87918750D03*
X220922500Y-88318750D03*
X220922500Y-88718750D03*
X220922500Y-89118750D03*
D26*
X220087500Y-89953750D03*
X219687500Y-89953750D03*
X219287500Y-89953750D03*
X218887500Y-89953750D03*
X218487500Y-89953750D03*
X218087500Y-89953750D03*
X217687500Y-89953750D03*
X217287500Y-89953750D03*
X216887500Y-89953750D03*
X216487500Y-89953750D03*
X216087500Y-89953750D03*
X215687500Y-89953750D03*
X215287500Y-89953750D03*
X214887500Y-89953750D03*
D27*
X214052500Y-89118750D03*
X214052500Y-88718750D03*
X214052500Y-88318750D03*
X214052500Y-87918750D03*
X214052500Y-87518750D03*
X214052500Y-87118750D03*
X214052500Y-86718750D03*
X214052500Y-86318750D03*
X214052500Y-85918750D03*
X214052500Y-85518750D03*
X214052500Y-85118750D03*
X214052500Y-84718750D03*
X214052500Y-84318750D03*
X214052500Y-83918750D03*
%TD*%
D18*
%TO.C,SW39*%
X85508750Y-84772500D03*
X98958750Y-82232500D03*
%TD*%
D19*
%TO.C,C13*%
X218263631Y-91559298D03*
X218263631Y-92519298D03*
%TD*%
D13*
%TO.C,D5*%
X125412500Y-26131250D03*
X125412500Y-29431250D03*
%TD*%
%TO.C,D32*%
X112712500Y-76137500D03*
X112712500Y-79437500D03*
%TD*%
D18*
%TO.C,SW13*%
X83127500Y-46672500D03*
X96577500Y-44132500D03*
%TD*%
D22*
%TO.C,C2*%
X193577911Y-84067246D03*
X194537911Y-84067246D03*
%TD*%
D18*
%TO.C,SW40*%
X114083750Y-84772500D03*
X127533750Y-82232500D03*
%TD*%
D13*
%TO.C,D10*%
X227012500Y-32606250D03*
X227012500Y-29306250D03*
%TD*%
D18*
%TO.C,SW21*%
X49790000Y-65722500D03*
X63240000Y-63182500D03*
%TD*%
D15*
%TO.C,SW43*%
X174047500Y-89852500D03*
X160597500Y-92392500D03*
%TD*%
D18*
%TO.C,SW11*%
X45027500Y-46672500D03*
X58477500Y-44132500D03*
%TD*%
D21*
%TO.C,R7*%
X211497500Y-88018750D03*
X210477500Y-88018750D03*
%TD*%
D18*
%TO.C,SW2*%
X64077500Y-27622500D03*
X77527500Y-25082500D03*
%TD*%
D21*
%TO.C,R5*%
X198797500Y-80318750D03*
X197777500Y-80318750D03*
%TD*%
D16*
%TO.C,C8*%
X211467500Y-86018750D03*
X210507500Y-86018750D03*
%TD*%
D18*
%TO.C,SW27*%
X168852500Y-65722500D03*
X182302500Y-63182500D03*
%TD*%
D13*
%TO.C,D1*%
X55562500Y-32606250D03*
X55562500Y-29306250D03*
%TD*%
D18*
%TO.C,SW29*%
X211715000Y-65722500D03*
X225165000Y-63182500D03*
%TD*%
D13*
%TO.C,D25*%
X141287500Y-70706250D03*
X141287500Y-67406250D03*
%TD*%
D18*
%TO.C,SW25*%
X130752500Y-65722500D03*
X144202500Y-63182500D03*
%TD*%
D28*
%TO.C,SWR1*%
X203175000Y-71918750D03*
X196875000Y-71918750D03*
X196875000Y-75718750D03*
X203175000Y-75718750D03*
%TD*%
D13*
%TO.C,D19*%
X207962500Y-51656250D03*
X207962500Y-48356250D03*
%TD*%
D18*
%TO.C,SW12*%
X64077500Y-46672500D03*
X77527500Y-44132500D03*
%TD*%
D16*
%TO.C,C18*%
X211467500Y-90018750D03*
X210507500Y-90018750D03*
%TD*%
D18*
%TO.C,SW7*%
X159327500Y-27622500D03*
X172777500Y-25082500D03*
%TD*%
%TO.C,SW19*%
X197427500Y-46672500D03*
X210877500Y-44132500D03*
%TD*%
D29*
%TO.C,R3*%
X142787437Y-28481282D03*
X141137437Y-28481282D03*
%TD*%
D23*
%TO.C,C5*%
X226998166Y-87250506D03*
X226998166Y-86290506D03*
%TD*%
D19*
%TO.C,C12*%
X212987500Y-92038750D03*
X212987500Y-92998750D03*
%TD*%
D18*
%TO.C,SW22*%
X73602500Y-65722500D03*
X87052500Y-63182500D03*
%TD*%
D13*
%TO.C,D15*%
X131762500Y-51656250D03*
X131762500Y-48356250D03*
%TD*%
%TO.C,D20*%
X227012500Y-51656250D03*
X227012500Y-48356250D03*
%TD*%
%TO.C,D30*%
X100012500Y-76137500D03*
X100012500Y-79437500D03*
%TD*%
D18*
%TO.C,SW3*%
X83127500Y-27622500D03*
X96577500Y-25082500D03*
%TD*%
%TO.C,SW45*%
X175996250Y-84772500D03*
X189446250Y-82232500D03*
%TD*%
D13*
%TO.C,D31*%
X106362500Y-76137500D03*
X106362500Y-79437500D03*
%TD*%
D23*
%TO.C,C9*%
X218227444Y-81536680D03*
X218227444Y-80576680D03*
%TD*%
D16*
%TO.C,C14*%
X213567500Y-81918750D03*
X212607500Y-81918750D03*
%TD*%
D18*
%TO.C,SW18*%
X178377500Y-46672500D03*
X191827500Y-44132500D03*
%TD*%
D30*
%TO.C,U2*%
X198382500Y-82018750D03*
X199652500Y-82018750D03*
X200922500Y-82018750D03*
X202192500Y-82018750D03*
X202192500Y-89218750D03*
X200922500Y-89218750D03*
X199652500Y-89218750D03*
X198382500Y-89218750D03*
%TD*%
D21*
%TO.C,R6*%
X211497500Y-89018750D03*
X210477500Y-89018750D03*
%TD*%
D18*
%TO.C,SW28*%
X187902500Y-65722500D03*
X201352500Y-63182500D03*
%TD*%
D28*
%TO.C,SWR2*%
X213543750Y-71918750D03*
X219843750Y-71918750D03*
X219843750Y-75718750D03*
X213543750Y-75718750D03*
%TD*%
D18*
%TO.C,SW8*%
X178377500Y-27622500D03*
X191827500Y-25082500D03*
%TD*%
D22*
%TO.C,C7*%
X225018166Y-87770506D03*
X225978166Y-87770506D03*
%TD*%
D13*
%TO.C,D11*%
X55562500Y-51656250D03*
X55562500Y-48356250D03*
%TD*%
%TO.C,D14*%
X112712500Y-51656250D03*
X112712500Y-48356250D03*
%TD*%
D18*
%TO.C,SW14*%
X102177500Y-46672500D03*
X115627500Y-44132500D03*
%TD*%
D16*
%TO.C,C1*%
X195262500Y-88900000D03*
X194302500Y-88900000D03*
%TD*%
D18*
%TO.C,SW20*%
X216477500Y-46672500D03*
X229927500Y-44132500D03*
%TD*%
%TO.C,SW44*%
X147421250Y-84772500D03*
X160871250Y-82232500D03*
%TD*%
D23*
%TO.C,C6*%
X226998166Y-85270506D03*
X226998166Y-84310506D03*
%TD*%
D18*
%TO.C,SW15*%
X121227500Y-46672500D03*
X134677500Y-44132500D03*
%TD*%
D13*
%TO.C,D17*%
X169862500Y-51656250D03*
X169862500Y-48356250D03*
%TD*%
%TO.C,D21*%
X60325000Y-70706250D03*
X60325000Y-67406250D03*
%TD*%
D18*
%TO.C,SW4*%
X102177500Y-27622500D03*
X115627500Y-25082500D03*
%TD*%
%TO.C,SW42*%
X130752500Y-84772500D03*
X144202500Y-82232500D03*
%TD*%
D31*
%TO.C,Y1*%
X228648166Y-86870506D03*
X228648166Y-84670506D03*
X230348166Y-84670506D03*
X230348166Y-86870506D03*
%TD*%
D15*
%TO.C,SW41*%
X116897500Y-89852500D03*
X103447500Y-92392500D03*
%TD*%
D18*
%TO.C,SW17*%
X159327500Y-46672500D03*
X172777500Y-44132500D03*
%TD*%
D13*
%TO.C,D34*%
X169862500Y-76137500D03*
X169862500Y-79437500D03*
%TD*%
%TO.C,D26*%
X160337500Y-70706250D03*
X160337500Y-67406250D03*
%TD*%
M02*
