%TF.GenerationSoftware,KiCad,Pcbnew,(6.0.10)*%
%TF.CreationDate,2023-02-13T13:47:23-06:00*%
%TF.ProjectId,AlphaWetPCB,416c7068-6157-4657-9450-43422e6b6963,rev?*%
%TF.SameCoordinates,Original*%
%TF.FileFunction,Soldermask,Top*%
%TF.FilePolarity,Negative*%
%FSLAX46Y46*%
G04 Gerber Fmt 4.6, Leading zero omitted, Abs format (unit mm)*
G04 Created by KiCad (PCBNEW (6.0.10)) date 2023-02-13 13:47:23*
%MOMM*%
%LPD*%
G01*
G04 APERTURE LIST*
%ADD10C,3.987800*%
%ADD11C,3.048000*%
%ADD12C,1.750000*%
%ADD13C,3.300000*%
%ADD14C,0.650000*%
%ADD15O,1.000000X1.600000*%
%ADD16O,1.000000X2.100000*%
%ADD17R,1.700000X1.700000*%
%ADD18O,1.700000X1.700000*%
G04 APERTURE END LIST*
D10*
%TO.C,S3*%
X128587500Y-79057500D03*
D11*
X90487500Y-94297500D03*
X128587500Y-94297500D03*
D10*
X90487500Y-79057500D03*
%TD*%
%TO.C,S6*%
X185737500Y-79057500D03*
D11*
X185737500Y-94297500D03*
X147637500Y-94297500D03*
D10*
X147637500Y-79057500D03*
%TD*%
D12*
%TO.C,SW6*%
X142557500Y-30162500D03*
X152717500Y-30162500D03*
D10*
X147637500Y-30162500D03*
D13*
X151447500Y-32702500D03*
X145097500Y-35242500D03*
%TD*%
D12*
%TO.C,SW1*%
X47307500Y-30162500D03*
X57467500Y-30162500D03*
D10*
X52387500Y-30162500D03*
D13*
X48577500Y-27622500D03*
X54927500Y-25082500D03*
%TD*%
D10*
%TO.C,SW9*%
X204787500Y-30162500D03*
D12*
X199707500Y-30162500D03*
X209867500Y-30162500D03*
D13*
X200977500Y-27622500D03*
X207327500Y-25082500D03*
%TD*%
D12*
%TO.C,SW16*%
X142557500Y-49212500D03*
D10*
X147637500Y-49212500D03*
D12*
X152717500Y-49212500D03*
D13*
X143827500Y-46672500D03*
X150177500Y-44132500D03*
%TD*%
D12*
%TO.C,SW26*%
X152082500Y-68262500D03*
D10*
X157162500Y-68262500D03*
D12*
X162242500Y-68262500D03*
D13*
X153352500Y-65722500D03*
X159702500Y-63182500D03*
%TD*%
D12*
%TO.C,SW5*%
X133667500Y-30162500D03*
X123507500Y-30162500D03*
D10*
X128587500Y-30162500D03*
D13*
X132397500Y-32702500D03*
X126047500Y-35242500D03*
%TD*%
D12*
%TO.C,SW10*%
X218757500Y-30162500D03*
D10*
X223837500Y-30162500D03*
D12*
X228917500Y-30162500D03*
D13*
X220027500Y-27622500D03*
X226377500Y-25082500D03*
%TD*%
D12*
%TO.C,SW24*%
X124142500Y-68262500D03*
D10*
X119062500Y-68262500D03*
D12*
X113982500Y-68262500D03*
D13*
X115252500Y-65722500D03*
X121602500Y-63182500D03*
%TD*%
D12*
%TO.C,SW23*%
X105092500Y-68262500D03*
D10*
X100012500Y-68262500D03*
D12*
X94932500Y-68262500D03*
D13*
X96202500Y-65722500D03*
X102552500Y-63182500D03*
%TD*%
D14*
%TO.C,J1*%
X141002500Y-25000000D03*
X135222500Y-25000000D03*
D15*
X142432500Y-21350000D03*
D16*
X133792500Y-25530000D03*
X142432500Y-25530000D03*
D15*
X133792500Y-21350000D03*
%TD*%
D12*
%TO.C,SW39*%
X87788750Y-87312500D03*
X97948750Y-87312500D03*
D10*
X92868750Y-87312500D03*
D13*
X89058750Y-84772500D03*
X95408750Y-82232500D03*
%TD*%
D12*
%TO.C,SW13*%
X95567500Y-49212500D03*
X85407500Y-49212500D03*
D10*
X90487500Y-49212500D03*
D13*
X86677500Y-46672500D03*
X93027500Y-44132500D03*
%TD*%
D10*
%TO.C,SW40*%
X121443750Y-87312500D03*
D12*
X126523750Y-87312500D03*
X116363750Y-87312500D03*
D13*
X117633750Y-84772500D03*
X123983750Y-82232500D03*
%TD*%
D12*
%TO.C,SW21*%
X62230000Y-68262500D03*
X52070000Y-68262500D03*
D10*
X57150000Y-68262500D03*
D13*
X53340000Y-65722500D03*
X59690000Y-63182500D03*
%TD*%
D10*
%TO.C,SW43*%
X166687500Y-87312500D03*
D12*
X171767500Y-87312500D03*
X161607500Y-87312500D03*
D13*
X170497500Y-89852500D03*
X164147500Y-92392500D03*
%TD*%
D10*
%TO.C,SW11*%
X52387500Y-49212500D03*
D12*
X57467500Y-49212500D03*
X47307500Y-49212500D03*
D13*
X48577500Y-46672500D03*
X54927500Y-44132500D03*
%TD*%
D12*
%TO.C,SW2*%
X76517500Y-30162500D03*
X66357500Y-30162500D03*
D10*
X71437500Y-30162500D03*
D13*
X67627500Y-27622500D03*
X73977500Y-25082500D03*
%TD*%
D12*
%TO.C,SW27*%
X181292500Y-68262500D03*
X171132500Y-68262500D03*
D10*
X176212500Y-68262500D03*
D13*
X172402500Y-65722500D03*
X178752500Y-63182500D03*
%TD*%
D10*
%TO.C,SW29*%
X219075000Y-68262500D03*
D12*
X224155000Y-68262500D03*
X213995000Y-68262500D03*
D13*
X215265000Y-65722500D03*
X221615000Y-63182500D03*
%TD*%
D10*
%TO.C,SW25*%
X138112500Y-68262500D03*
D12*
X143192500Y-68262500D03*
X133032500Y-68262500D03*
D13*
X134302500Y-65722500D03*
X140652500Y-63182500D03*
%TD*%
D12*
%TO.C,SW12*%
X76517500Y-49212500D03*
X66357500Y-49212500D03*
D10*
X71437500Y-49212500D03*
D13*
X67627500Y-46672500D03*
X73977500Y-44132500D03*
%TD*%
D12*
%TO.C,SW7*%
X171767500Y-30162500D03*
X161607500Y-30162500D03*
D10*
X166687500Y-30162500D03*
D13*
X162877500Y-27622500D03*
X169227500Y-25082500D03*
%TD*%
D10*
%TO.C,SW19*%
X204787500Y-49212500D03*
D12*
X199707500Y-49212500D03*
X209867500Y-49212500D03*
D13*
X200977500Y-46672500D03*
X207327500Y-44132500D03*
%TD*%
D17*
%TO.C,SWD2*%
X227950000Y-94456250D03*
D18*
X225410000Y-94456250D03*
X222870000Y-94456250D03*
%TD*%
D12*
%TO.C,SW22*%
X75882500Y-68262500D03*
D10*
X80962500Y-68262500D03*
D12*
X86042500Y-68262500D03*
D13*
X77152500Y-65722500D03*
X83502500Y-63182500D03*
%TD*%
D10*
%TO.C,SW3*%
X90487500Y-30162500D03*
D12*
X95567500Y-30162500D03*
X85407500Y-30162500D03*
D13*
X86677500Y-27622500D03*
X93027500Y-25082500D03*
%TD*%
D10*
%TO.C,SW45*%
X183356250Y-87312500D03*
D12*
X188436250Y-87312500D03*
X178276250Y-87312500D03*
D13*
X179546250Y-84772500D03*
X185896250Y-82232500D03*
%TD*%
D10*
%TO.C,SW18*%
X185737500Y-49212500D03*
D12*
X180657500Y-49212500D03*
X190817500Y-49212500D03*
D13*
X181927500Y-46672500D03*
X188277500Y-44132500D03*
%TD*%
D12*
%TO.C,SW28*%
X200342500Y-68262500D03*
X190182500Y-68262500D03*
D10*
X195262500Y-68262500D03*
D13*
X191452500Y-65722500D03*
X197802500Y-63182500D03*
%TD*%
D12*
%TO.C,SW8*%
X180657500Y-30162500D03*
D10*
X185737500Y-30162500D03*
D12*
X190817500Y-30162500D03*
D13*
X181927500Y-27622500D03*
X188277500Y-25082500D03*
%TD*%
D12*
%TO.C,SW14*%
X114617500Y-49212500D03*
D10*
X109537500Y-49212500D03*
D12*
X104457500Y-49212500D03*
D13*
X105727500Y-46672500D03*
X112077500Y-44132500D03*
%TD*%
D12*
%TO.C,SW20*%
X218757500Y-49212500D03*
X228917500Y-49212500D03*
D10*
X223837500Y-49212500D03*
D13*
X220027500Y-46672500D03*
X226377500Y-44132500D03*
%TD*%
D12*
%TO.C,SW44*%
X159861250Y-87312500D03*
X149701250Y-87312500D03*
D10*
X154781250Y-87312500D03*
D13*
X150971250Y-84772500D03*
X157321250Y-82232500D03*
%TD*%
D12*
%TO.C,SW15*%
X133667500Y-49212500D03*
D10*
X128587500Y-49212500D03*
D12*
X123507500Y-49212500D03*
D13*
X124777500Y-46672500D03*
X131127500Y-44132500D03*
%TD*%
D10*
%TO.C,SW4*%
X109537500Y-30162500D03*
D12*
X114617500Y-30162500D03*
X104457500Y-30162500D03*
D13*
X105727500Y-27622500D03*
X112077500Y-25082500D03*
%TD*%
D12*
%TO.C,SW42*%
X143192500Y-87312500D03*
X133032500Y-87312500D03*
D10*
X138112500Y-87312500D03*
D13*
X134302500Y-84772500D03*
X140652500Y-82232500D03*
%TD*%
D12*
%TO.C,SW41*%
X104457500Y-87312500D03*
X114617500Y-87312500D03*
D10*
X109537500Y-87312500D03*
D13*
X113347500Y-89852500D03*
X106997500Y-92392500D03*
%TD*%
D10*
%TO.C,SW17*%
X166687500Y-49212500D03*
D12*
X171767500Y-49212500D03*
X161607500Y-49212500D03*
D13*
X162877500Y-46672500D03*
X169227500Y-44132500D03*
%TD*%
M02*
