M48
; DRILL file {KiCad (6.0.10)} date Mon Feb 13 13:01:43 2023
; FORMAT={-:-/ absolute / inch / decimal}
; #@! TF.CreationDate,2023-02-13T13:01:43-06:00
; #@! TF.GenerationSoftware,Kicad,Pcbnew,(6.0.10)
; #@! TF.FileFunction,NonPlated,1,2,NPTH
FMAT,2
INCH
; #@! TA.AperFunction,NonPlated,NPTH,ComponentDrill
T1C0.0256
; #@! TA.AperFunction,NonPlated,NPTH,ComponentDrill
T2C0.0689
; #@! TA.AperFunction,NonPlated,NPTH,ComponentDrill
T3C0.1200
; #@! TA.AperFunction,NonPlated,NPTH,ComponentDrill
T4C0.1570
%
G90
G05
T1
X5.3237Y-0.9843
X5.5513Y-0.9843
T2
X1.8625Y-1.1875
X1.8625Y-1.9375
X2.05Y-2.6875
X2.2625Y-1.1875
X2.2625Y-1.9375
X2.45Y-2.6875
X2.6125Y-1.1875
X2.6125Y-1.9375
X2.9875Y-2.6875
X3.0125Y-1.1875
X3.0125Y-1.9375
X3.3625Y-1.1875
X3.3625Y-1.9375
X3.3875Y-2.6875
X3.4562Y-3.4375
X3.7375Y-2.6875
X3.7625Y-1.1875
X3.7625Y-1.9375
X3.8562Y-3.4375
X4.1125Y-1.1875
X4.1125Y-1.9375
X4.1125Y-3.4375
X4.1375Y-2.6875
X4.4875Y-2.6875
X4.5125Y-1.1875
X4.5125Y-1.9375
X4.5125Y-3.4375
X4.5812Y-3.4375
X4.8625Y-1.1875
X4.8625Y-1.9375
X4.8875Y-2.6875
X4.9813Y-3.4375
X5.2375Y-2.6875
X5.2375Y-3.4375
X5.2625Y-1.1875
X5.2625Y-1.9375
X5.6125Y-1.1875
X5.6125Y-1.9375
X5.6375Y-2.6875
X5.6375Y-3.4375
X5.8937Y-3.4375
X5.9875Y-2.6875
X6.0125Y-1.1875
X6.0125Y-1.9375
X6.2938Y-3.4375
X6.3625Y-1.1875
X6.3625Y-1.9375
X6.3625Y-3.4375
X6.3875Y-2.6875
X6.7375Y-2.6875
X6.7625Y-1.1875
X6.7625Y-1.9375
X6.7625Y-3.4375
X7.0187Y-3.4375
X7.1125Y-1.1875
X7.1125Y-1.9375
X7.1375Y-2.6875
X7.4188Y-3.4375
X7.4875Y-2.6875
X7.5125Y-1.1875
X7.5125Y-1.9375
X7.8625Y-1.1875
X7.8625Y-1.9375
X7.8875Y-2.6875
X8.2625Y-1.1875
X8.2625Y-1.9375
X8.425Y-2.6875
X8.6125Y-1.1875
X8.6125Y-1.9375
X8.825Y-2.6875
X9.0125Y-1.1875
X9.0125Y-1.9375
T3
X3.5625Y-3.7125
X5.0625Y-3.7125
X5.8125Y-3.7125
X7.3125Y-3.7125
T4
X2.0625Y-1.1875
X2.0625Y-1.9375
X2.25Y-2.6875
X2.8125Y-1.1875
X2.8125Y-1.9375
X3.1875Y-2.6875
X3.5625Y-1.1875
X3.5625Y-1.9375
X3.5625Y-3.1125
X3.6562Y-3.4375
X3.9375Y-2.6875
X4.3125Y-1.1875
X4.3125Y-1.9375
X4.3125Y-3.4375
X4.6875Y-2.6875
X4.7812Y-3.4375
X5.0625Y-1.1875
X5.0625Y-1.9375
X5.0625Y-3.1125
X5.4375Y-2.6875
X5.4375Y-3.4375
X5.8125Y-1.1875
X5.8125Y-1.9375
X5.8125Y-3.1125
X6.0938Y-3.4375
X6.1875Y-2.6875
X6.5625Y-1.1875
X6.5625Y-1.9375
X6.5625Y-3.4375
X6.9375Y-2.6875
X7.2188Y-3.4375
X7.3125Y-1.1875
X7.3125Y-1.9375
X7.3125Y-3.1125
X7.6875Y-2.6875
X8.0625Y-1.1875
X8.0625Y-1.9375
X8.625Y-2.6875
X8.8125Y-1.1875
X8.8125Y-1.9375
T0
M30
