M48
; DRILL file {KiCad (6.0.10)} date Mon Feb 13 13:01:43 2023
; FORMAT={-:-/ absolute / inch / decimal}
; #@! TF.CreationDate,2023-02-13T13:01:43-06:00
; #@! TF.GenerationSoftware,Kicad,Pcbnew,(6.0.10)
; #@! TF.FileFunction,Plated,1,2,PTH
FMAT,2
INCH
; #@! TA.AperFunction,Plated,PTH,ViaDrill
T1C0.0157
; #@! TA.AperFunction,Plated,PTH,ComponentDrill
T2C0.0236
; #@! TA.AperFunction,Plated,PTH,ComponentDrill
T3C0.0394
; #@! TA.AperFunction,Plated,PTH,ComponentDrill
T4C0.1181
%
G90
G05
T1
X1.9597Y-2.3741
X2.0312Y-1.75
X2.0342Y-1.007
X2.2188Y-2.5
X2.7812Y-1.75
X2.792Y-1.007
X2.846Y-2.3428
X3.1562Y-2.5
X3.5312Y-1.0
X3.5312Y-1.75
X3.5781Y-2.3113
X3.625Y-3.25
X3.9062Y-2.5
X4.2812Y-1.0
X4.2812Y-1.75
X4.3102Y-2.2789
X4.6562Y-2.5
X4.75Y-3.2812
X5.0Y-1.0312
X5.0312Y-1.75
X5.0448Y-2.2483
X5.0938Y-1.375
X5.1875Y-1.1562
X5.3295Y-1.1776
X5.4062Y-2.5
X5.4062Y-3.25
X5.5Y-1.25
X5.7806Y-2.2178
X5.7812Y-1.75
X5.8438Y-1.375
X5.875Y-1.0312
X6.0625Y-3.25
X6.1562Y-2.5
X6.5156Y-2.1847
X6.5312Y-1.0
X6.5312Y-1.75
X6.8438Y-2.0312
X6.875Y-2.0625
X6.9062Y-2.0938
X6.9062Y-2.5
X6.9375Y-2.125
X6.9688Y-2.1562
X7.0Y-2.0312
X7.0Y-2.1875
X7.0312Y-2.0625
X7.0312Y-2.2188
X7.0625Y-2.0938
X7.0625Y-2.25
X7.0938Y-2.125
X7.0938Y-2.2812
X7.125Y-2.1562
X7.125Y-2.3125
X7.1562Y-2.1875
X7.1562Y-2.3438
X7.1875Y-2.2188
X7.1875Y-2.375
X7.1875Y-3.2812
X7.2188Y-2.25
X7.2188Y-2.5938
X7.2188Y-2.7812
X7.2463Y-2.1537
X7.25Y-2.2812
X7.2776Y-0.999
X7.2812Y-1.75
X7.2812Y-2.3125
X7.3125Y-2.3438
X7.3438Y-2.375
X7.3438Y-2.7812
X7.3438Y-3.0
X7.5825Y-3.6057
X7.6562Y-2.5
X7.6562Y-3.0625
X7.6562Y-3.125
X7.6602Y-3.5381
X7.7172Y-3.3093
X7.7194Y-3.4614
X7.875Y-2.9062
X7.875Y-3.0938
X8.0035Y-3.3524
X8.012Y-2.1195
X8.0187Y-3.2287
X8.0312Y-1.0
X8.0354Y-1.7541
X8.0423Y-2.7837
X8.1412Y-3.3866
X8.2495Y-3.4191
X8.3306Y-3.6433
X8.3696Y-3.5204
X8.3893Y-3.5755
X8.4075Y-3.268
X8.4208Y-2.7842
X8.4688Y-2.125
X8.4719Y-3.3748
X8.5153Y-3.359
X8.5153Y-3.4062
X8.5153Y-3.4535
X8.5312Y-2.9062
X8.5312Y-3.0
X8.5625Y-3.359
X8.5625Y-3.4535
X8.5782Y-3.1464
X8.5861Y-3.6806
X8.6097Y-3.359
X8.6097Y-3.4062
X8.6097Y-3.4535
X8.6875Y-3.0625
X8.7826Y-1.7488
X8.7879Y-1.007
X8.8147Y-3.6022
X8.8179Y-3.5521
X8.8438Y-3.0938
X8.8617Y-3.4868
X8.948Y-3.4744
X8.9638Y-3.2912
X9.0625Y-3.625
T3
X8.7744Y-3.7188
X8.8744Y-3.7188
X8.9744Y-3.7188
T4
X1.9125Y-1.0875
X1.9125Y-1.8375
X2.1Y-2.5875
X2.1625Y-0.9875
X2.1625Y-1.7375
X2.35Y-2.4875
X2.6625Y-1.0875
X2.6625Y-1.8375
X2.9125Y-0.9875
X2.9125Y-1.7375
X3.0375Y-2.5875
X3.2875Y-2.4875
X3.4125Y-1.0875
X3.4125Y-1.8375
X3.5063Y-3.3375
X3.6625Y-0.9875
X3.6625Y-1.7375
X3.7563Y-3.2375
X3.7875Y-2.5875
X4.0375Y-2.4875
X4.1625Y-1.0875
X4.1625Y-1.8375
X4.2125Y-3.6375
X4.4125Y-0.9875
X4.4125Y-1.7375
X4.4625Y-3.5375
X4.5375Y-2.5875
X4.6312Y-3.3375
X4.7875Y-2.4875
X4.8812Y-3.2375
X4.9125Y-1.8375
X4.9625Y-1.3875
X5.1625Y-1.7375
X5.2125Y-1.2875
X5.2875Y-2.5875
X5.2875Y-3.3375
X5.5375Y-2.4875
X5.5375Y-3.2375
X5.6625Y-1.8375
X5.7125Y-1.3875
X5.9125Y-1.7375
X5.9437Y-3.3375
X5.9625Y-1.2875
X6.0375Y-2.5875
X6.1937Y-3.2375
X6.2875Y-2.4875
X6.4125Y-1.0875
X6.4125Y-1.8375
X6.4625Y-3.6375
X6.6625Y-0.9875
X6.6625Y-1.7375
X6.7125Y-3.5375
X6.7875Y-2.5875
X7.0375Y-2.4875
X7.0687Y-3.3375
X7.1625Y-1.0875
X7.1625Y-1.8375
X7.3187Y-3.2375
X7.4125Y-0.9875
X7.4125Y-1.7375
X7.5375Y-2.5875
X7.7875Y-2.4875
X7.9125Y-1.0875
X7.9125Y-1.8375
X8.1625Y-0.9875
X8.1625Y-1.7375
X8.475Y-2.5875
X8.6625Y-1.0875
X8.6625Y-1.8375
X8.725Y-2.4875
X8.9125Y-0.9875
X8.9125Y-1.7375
T2
G00X5.2674Y-0.8287
M15
G01X5.2674Y-0.8524
M16
G05
G00X5.2674Y-0.9835
M15
G01X5.2674Y-1.0268
M16
G05
G00X5.6076Y-0.8287
M15
G01X5.6076Y-0.8524
M16
G05
G00X5.6076Y-0.9835
M15
G01X5.6076Y-1.0268
M16
G05
T0
M30
