%TF.GenerationSoftware,KiCad,Pcbnew,(6.0.10)*%
%TF.CreationDate,2023-02-13T13:47:23-06:00*%
%TF.ProjectId,AlphaWetPCB,416c7068-6157-4657-9450-43422e6b6963,rev?*%
%TF.SameCoordinates,Original*%
%TF.FileFunction,Legend,Bot*%
%TF.FilePolarity,Positive*%
%FSLAX46Y46*%
G04 Gerber Fmt 4.6, Leading zero omitted, Abs format (unit mm)*
G04 Created by KiCad (PCBNEW (6.0.10)) date 2023-02-13 13:47:23*
%MOMM*%
%LPD*%
G01*
G04 APERTURE LIST*
%ADD10C,0.300000*%
%ADD11C,0.150000*%
%ADD12C,0.200000*%
%ADD13C,0.120000*%
%ADD14C,0.127000*%
G04 APERTURE END LIST*
D10*
X75357142Y-83843750D02*
X73928571Y-83843750D01*
X75642857Y-84700892D02*
X74642857Y-81700892D01*
X73642857Y-84700892D01*
X72214285Y-84700892D02*
X72500000Y-84558035D01*
X72642857Y-84272321D01*
X72642857Y-81700892D01*
X71071428Y-82700892D02*
X71071428Y-85700892D01*
X71071428Y-82843750D02*
X70785714Y-82700892D01*
X70214285Y-82700892D01*
X69928571Y-82843750D01*
X69785714Y-82986607D01*
X69642857Y-83272321D01*
X69642857Y-84129464D01*
X69785714Y-84415178D01*
X69928571Y-84558035D01*
X70214285Y-84700892D01*
X70785714Y-84700892D01*
X71071428Y-84558035D01*
X68357142Y-84700892D02*
X68357142Y-81700892D01*
X67071428Y-84700892D02*
X67071428Y-83129464D01*
X67214285Y-82843750D01*
X67500000Y-82700892D01*
X67928571Y-82700892D01*
X68214285Y-82843750D01*
X68357142Y-82986607D01*
X64357142Y-84700892D02*
X64357142Y-83129464D01*
X64500000Y-82843750D01*
X64785714Y-82700892D01*
X65357142Y-82700892D01*
X65642857Y-82843750D01*
X64357142Y-84558035D02*
X64642857Y-84700892D01*
X65357142Y-84700892D01*
X65642857Y-84558035D01*
X65785714Y-84272321D01*
X65785714Y-83986607D01*
X65642857Y-83700892D01*
X65357142Y-83558035D01*
X64642857Y-83558035D01*
X64357142Y-83415178D01*
X60928571Y-81700892D02*
X60214285Y-84700892D01*
X59642857Y-82558035D01*
X59071428Y-84700892D01*
X58357142Y-81700892D01*
X57214285Y-84700892D02*
X57214285Y-82700892D01*
X57214285Y-81700892D02*
X57357142Y-81843750D01*
X57214285Y-81986607D01*
X57071428Y-81843750D01*
X57214285Y-81700892D01*
X57214285Y-81986607D01*
X55357142Y-84700892D02*
X55642857Y-84558035D01*
X55785714Y-84272321D01*
X55785714Y-81700892D01*
X53785714Y-84700892D02*
X54071428Y-84558035D01*
X54214285Y-84272321D01*
X54214285Y-81700892D01*
X52928571Y-82700892D02*
X52214285Y-84700892D01*
X51500000Y-82700892D02*
X52214285Y-84700892D01*
X52500000Y-85415178D01*
X52642857Y-85558035D01*
X52928571Y-85700892D01*
D11*
X227575892Y-92479761D02*
X227433035Y-92527380D01*
X227194940Y-92527380D01*
X227099702Y-92479761D01*
X227052083Y-92432142D01*
X227004464Y-92336904D01*
X227004464Y-92241666D01*
X227052083Y-92146428D01*
X227099702Y-92098809D01*
X227194940Y-92051190D01*
X227385416Y-92003571D01*
X227480654Y-91955952D01*
X227528273Y-91908333D01*
X227575892Y-91813095D01*
X227575892Y-91717857D01*
X227528273Y-91622619D01*
X227480654Y-91575000D01*
X227385416Y-91527380D01*
X227147321Y-91527380D01*
X227004464Y-91575000D01*
X226671130Y-91527380D02*
X226433035Y-92527380D01*
X226242559Y-91813095D01*
X226052083Y-92527380D01*
X225813988Y-91527380D01*
X225433035Y-92527380D02*
X225433035Y-91527380D01*
X225194940Y-91527380D01*
X225052083Y-91575000D01*
X224956845Y-91670238D01*
X224909226Y-91765476D01*
X224861607Y-91955952D01*
X224861607Y-92098809D01*
X224909226Y-92289285D01*
X224956845Y-92384523D01*
X225052083Y-92479761D01*
X225194940Y-92527380D01*
X225433035Y-92527380D01*
D12*
X74285714Y-88784821D02*
X74285714Y-87284821D01*
X73428571Y-88784821D02*
X74071428Y-87927678D01*
X73428571Y-87284821D02*
X74285714Y-88141964D01*
X72785714Y-88784821D02*
X72785714Y-87784821D01*
X72785714Y-87284821D02*
X72857142Y-87356250D01*
X72785714Y-87427678D01*
X72714285Y-87356250D01*
X72785714Y-87284821D01*
X72785714Y-87427678D01*
X72142857Y-88713392D02*
X72000000Y-88784821D01*
X71714285Y-88784821D01*
X71571428Y-88713392D01*
X71500000Y-88570535D01*
X71500000Y-88499107D01*
X71571428Y-88356250D01*
X71714285Y-88284821D01*
X71928571Y-88284821D01*
X72071428Y-88213392D01*
X72142857Y-88070535D01*
X72142857Y-87999107D01*
X72071428Y-87856250D01*
X71928571Y-87784821D01*
X71714285Y-87784821D01*
X71571428Y-87856250D01*
X70285714Y-88713392D02*
X70428571Y-88784821D01*
X70714285Y-88784821D01*
X70857142Y-88713392D01*
X70928571Y-88570535D01*
X70928571Y-87999107D01*
X70857142Y-87856250D01*
X70714285Y-87784821D01*
X70428571Y-87784821D01*
X70285714Y-87856250D01*
X70214285Y-87999107D01*
X70214285Y-88141964D01*
X70928571Y-88284821D01*
X69571428Y-88784821D02*
X69571428Y-87784821D01*
X69571428Y-88070535D02*
X69500000Y-87927678D01*
X69428571Y-87856250D01*
X69285714Y-87784821D01*
X69142857Y-87784821D01*
X67500000Y-88784821D02*
X67500000Y-87284821D01*
X67142857Y-87284821D01*
X66928571Y-87356250D01*
X66785714Y-87499107D01*
X66714285Y-87641964D01*
X66642857Y-87927678D01*
X66642857Y-88141964D01*
X66714285Y-88427678D01*
X66785714Y-88570535D01*
X66928571Y-88713392D01*
X67142857Y-88784821D01*
X67500000Y-88784821D01*
X65428571Y-88713392D02*
X65571428Y-88784821D01*
X65857142Y-88784821D01*
X66000000Y-88713392D01*
X66071428Y-88570535D01*
X66071428Y-87999107D01*
X66000000Y-87856250D01*
X65857142Y-87784821D01*
X65571428Y-87784821D01*
X65428571Y-87856250D01*
X65357142Y-87999107D01*
X65357142Y-88141964D01*
X66071428Y-88284821D01*
X64785714Y-88713392D02*
X64642857Y-88784821D01*
X64357142Y-88784821D01*
X64214285Y-88713392D01*
X64142857Y-88570535D01*
X64142857Y-88499107D01*
X64214285Y-88356250D01*
X64357142Y-88284821D01*
X64571428Y-88284821D01*
X64714285Y-88213392D01*
X64785714Y-88070535D01*
X64785714Y-87999107D01*
X64714285Y-87856250D01*
X64571428Y-87784821D01*
X64357142Y-87784821D01*
X64214285Y-87856250D01*
X63500000Y-88784821D02*
X63500000Y-87784821D01*
X63500000Y-87284821D02*
X63571428Y-87356250D01*
X63500000Y-87427678D01*
X63428571Y-87356250D01*
X63500000Y-87284821D01*
X63500000Y-87427678D01*
X62142857Y-87784821D02*
X62142857Y-88999107D01*
X62214285Y-89141964D01*
X62285714Y-89213392D01*
X62428571Y-89284821D01*
X62642857Y-89284821D01*
X62785714Y-89213392D01*
X62142857Y-88713392D02*
X62285714Y-88784821D01*
X62571428Y-88784821D01*
X62714285Y-88713392D01*
X62785714Y-88641964D01*
X62857142Y-88499107D01*
X62857142Y-88070535D01*
X62785714Y-87927678D01*
X62714285Y-87856250D01*
X62571428Y-87784821D01*
X62285714Y-87784821D01*
X62142857Y-87856250D01*
X61428571Y-87784821D02*
X61428571Y-88784821D01*
X61428571Y-87927678D02*
X61357142Y-87856250D01*
X61214285Y-87784821D01*
X61000000Y-87784821D01*
X60857142Y-87856250D01*
X60785714Y-87999107D01*
X60785714Y-88784821D01*
X60142857Y-88713392D02*
X60000000Y-88784821D01*
X59714285Y-88784821D01*
X59571428Y-88713392D01*
X59500000Y-88570535D01*
X59500000Y-88499107D01*
X59571428Y-88356250D01*
X59714285Y-88284821D01*
X59928571Y-88284821D01*
X60071428Y-88213392D01*
X60142857Y-88070535D01*
X60142857Y-87999107D01*
X60071428Y-87856250D01*
X59928571Y-87784821D01*
X59714285Y-87784821D01*
X59571428Y-87856250D01*
X57785714Y-87427678D02*
X57714285Y-87356250D01*
X57571428Y-87284821D01*
X57214285Y-87284821D01*
X57071428Y-87356250D01*
X57000000Y-87427678D01*
X56928571Y-87570535D01*
X56928571Y-87713392D01*
X57000000Y-87927678D01*
X57857142Y-88784821D01*
X56928571Y-88784821D01*
X56000000Y-87284821D02*
X55857142Y-87284821D01*
X55714285Y-87356250D01*
X55642857Y-87427678D01*
X55571428Y-87570535D01*
X55500000Y-87856250D01*
X55500000Y-88213392D01*
X55571428Y-88499107D01*
X55642857Y-88641964D01*
X55714285Y-88713392D01*
X55857142Y-88784821D01*
X56000000Y-88784821D01*
X56142857Y-88713392D01*
X56214285Y-88641964D01*
X56285714Y-88499107D01*
X56357142Y-88213392D01*
X56357142Y-87856250D01*
X56285714Y-87570535D01*
X56214285Y-87427678D01*
X56142857Y-87356250D01*
X56000000Y-87284821D01*
X54928571Y-87427678D02*
X54857142Y-87356250D01*
X54714285Y-87284821D01*
X54357142Y-87284821D01*
X54214285Y-87356250D01*
X54142857Y-87427678D01*
X54071428Y-87570535D01*
X54071428Y-87713392D01*
X54142857Y-87927678D01*
X55000000Y-88784821D01*
X54071428Y-88784821D01*
X53571428Y-87284821D02*
X52642857Y-87284821D01*
X53142857Y-87856250D01*
X52928571Y-87856250D01*
X52785714Y-87927678D01*
X52714285Y-87999107D01*
X52642857Y-88141964D01*
X52642857Y-88499107D01*
X52714285Y-88641964D01*
X52785714Y-88713392D01*
X52928571Y-88784821D01*
X53357142Y-88784821D01*
X53500000Y-88713392D01*
X53571428Y-88641964D01*
D11*
%TO.C,R9*%
X224607076Y-90572589D02*
X224130886Y-90239256D01*
X224607076Y-90001160D02*
X223607076Y-90001160D01*
X223607076Y-90382113D01*
X223654696Y-90477351D01*
X223702315Y-90524970D01*
X223797553Y-90572589D01*
X223940410Y-90572589D01*
X224035648Y-90524970D01*
X224083267Y-90477351D01*
X224130886Y-90382113D01*
X224130886Y-90001160D01*
X224607076Y-91048779D02*
X224607076Y-91239256D01*
X224559457Y-91334494D01*
X224511838Y-91382113D01*
X224368981Y-91477351D01*
X224178505Y-91524970D01*
X223797553Y-91524970D01*
X223702315Y-91477351D01*
X223654696Y-91429732D01*
X223607076Y-91334494D01*
X223607076Y-91144017D01*
X223654696Y-91048779D01*
X223702315Y-91001160D01*
X223797553Y-90953541D01*
X224035648Y-90953541D01*
X224130886Y-91001160D01*
X224178505Y-91048779D01*
X224226124Y-91144017D01*
X224226124Y-91334494D01*
X224178505Y-91429732D01*
X224130886Y-91477351D01*
X224035648Y-91524970D01*
%TO.C,C11*%
X208981622Y-86299618D02*
X209029241Y-86347237D01*
X209172098Y-86394856D01*
X209267336Y-86394856D01*
X209410193Y-86347237D01*
X209505431Y-86251999D01*
X209553050Y-86156761D01*
X209600669Y-85966285D01*
X209600669Y-85823428D01*
X209553050Y-85632952D01*
X209505431Y-85537714D01*
X209410193Y-85442476D01*
X209267336Y-85394856D01*
X209172098Y-85394856D01*
X209029241Y-85442476D01*
X208981622Y-85490095D01*
X208029241Y-86394856D02*
X208600669Y-86394856D01*
X208314955Y-86394856D02*
X208314955Y-85394856D01*
X208410193Y-85537714D01*
X208505431Y-85632952D01*
X208600669Y-85680571D01*
X207076860Y-86394856D02*
X207648288Y-86394856D01*
X207362574Y-86394856D02*
X207362574Y-85394856D01*
X207457812Y-85537714D01*
X207553050Y-85632952D01*
X207648288Y-85680571D01*
%TO.C,C4*%
X195922539Y-90742979D02*
X195970158Y-90695360D01*
X196017777Y-90552503D01*
X196017777Y-90457265D01*
X195970158Y-90314407D01*
X195874920Y-90219169D01*
X195779682Y-90171550D01*
X195589206Y-90123931D01*
X195446349Y-90123931D01*
X195255873Y-90171550D01*
X195160635Y-90219169D01*
X195065397Y-90314407D01*
X195017777Y-90457265D01*
X195017777Y-90552503D01*
X195065397Y-90695360D01*
X195113016Y-90742979D01*
X195351111Y-91600122D02*
X196017777Y-91600122D01*
X194970158Y-91362026D02*
X195684444Y-91123931D01*
X195684444Y-91742979D01*
%TO.C,R4*%
X194214435Y-81666069D02*
X194547769Y-81189879D01*
X194785864Y-81666069D02*
X194785864Y-80666069D01*
X194404911Y-80666069D01*
X194309673Y-80713689D01*
X194262054Y-80761308D01*
X194214435Y-80856546D01*
X194214435Y-80999403D01*
X194262054Y-81094641D01*
X194309673Y-81142260D01*
X194404911Y-81189879D01*
X194785864Y-81189879D01*
X193357292Y-80999403D02*
X193357292Y-81666069D01*
X193595388Y-80618450D02*
X193833483Y-81332736D01*
X193214435Y-81332736D01*
%TO.C,U1*%
X192448918Y-85092484D02*
X192448918Y-85902008D01*
X192401299Y-85997246D01*
X192353680Y-86044865D01*
X192258442Y-86092484D01*
X192067966Y-86092484D01*
X191972728Y-86044865D01*
X191925109Y-85997246D01*
X191877490Y-85902008D01*
X191877490Y-85092484D01*
X190877490Y-86092484D02*
X191448918Y-86092484D01*
X191163204Y-86092484D02*
X191163204Y-85092484D01*
X191258442Y-85235342D01*
X191353680Y-85330580D01*
X191448918Y-85378199D01*
%TO.C,R8*%
X223230313Y-85790111D02*
X223563647Y-85313921D01*
X223801742Y-85790111D02*
X223801742Y-84790111D01*
X223420789Y-84790111D01*
X223325551Y-84837731D01*
X223277932Y-84885350D01*
X223230313Y-84980588D01*
X223230313Y-85123445D01*
X223277932Y-85218683D01*
X223325551Y-85266302D01*
X223420789Y-85313921D01*
X223801742Y-85313921D01*
X222658885Y-85218683D02*
X222754123Y-85171064D01*
X222801742Y-85123445D01*
X222849361Y-85028207D01*
X222849361Y-84980588D01*
X222801742Y-84885350D01*
X222754123Y-84837731D01*
X222658885Y-84790111D01*
X222468408Y-84790111D01*
X222373170Y-84837731D01*
X222325551Y-84885350D01*
X222277932Y-84980588D01*
X222277932Y-85028207D01*
X222325551Y-85123445D01*
X222373170Y-85171064D01*
X222468408Y-85218683D01*
X222658885Y-85218683D01*
X222754123Y-85266302D01*
X222801742Y-85313921D01*
X222849361Y-85409159D01*
X222849361Y-85599635D01*
X222801742Y-85694873D01*
X222754123Y-85742492D01*
X222658885Y-85790111D01*
X222468408Y-85790111D01*
X222373170Y-85742492D01*
X222325551Y-85694873D01*
X222277932Y-85599635D01*
X222277932Y-85409159D01*
X222325551Y-85313921D01*
X222373170Y-85266302D01*
X222468408Y-85218683D01*
%TO.C,C17*%
X208981622Y-92299618D02*
X209029241Y-92347237D01*
X209172098Y-92394856D01*
X209267336Y-92394856D01*
X209410193Y-92347237D01*
X209505431Y-92251999D01*
X209553050Y-92156761D01*
X209600669Y-91966285D01*
X209600669Y-91823428D01*
X209553050Y-91632952D01*
X209505431Y-91537714D01*
X209410193Y-91442476D01*
X209267336Y-91394856D01*
X209172098Y-91394856D01*
X209029241Y-91442476D01*
X208981622Y-91490095D01*
X208029241Y-92394856D02*
X208600669Y-92394856D01*
X208314955Y-92394856D02*
X208314955Y-91394856D01*
X208410193Y-91537714D01*
X208505431Y-91632952D01*
X208600669Y-91680571D01*
X207695907Y-91394856D02*
X207029241Y-91394856D01*
X207457812Y-92394856D01*
%TO.C,C10*%
X223690232Y-87194873D02*
X223737851Y-87242492D01*
X223880708Y-87290111D01*
X223975946Y-87290111D01*
X224118803Y-87242492D01*
X224214041Y-87147254D01*
X224261660Y-87052016D01*
X224309279Y-86861540D01*
X224309279Y-86718683D01*
X224261660Y-86528207D01*
X224214041Y-86432969D01*
X224118803Y-86337731D01*
X223975946Y-86290111D01*
X223880708Y-86290111D01*
X223737851Y-86337731D01*
X223690232Y-86385350D01*
X222737851Y-87290111D02*
X223309279Y-87290111D01*
X223023565Y-87290111D02*
X223023565Y-86290111D01*
X223118803Y-86432969D01*
X223214041Y-86528207D01*
X223309279Y-86575826D01*
X222118803Y-86290111D02*
X222023565Y-86290111D01*
X221928327Y-86337731D01*
X221880708Y-86385350D01*
X221833089Y-86480588D01*
X221785470Y-86671064D01*
X221785470Y-86909159D01*
X221833089Y-87099635D01*
X221880708Y-87194873D01*
X221928327Y-87242492D01*
X222023565Y-87290111D01*
X222118803Y-87290111D01*
X222214041Y-87242492D01*
X222261660Y-87194873D01*
X222309279Y-87099635D01*
X222356898Y-86909159D01*
X222356898Y-86671064D01*
X222309279Y-86480588D01*
X222261660Y-86385350D01*
X222214041Y-86337731D01*
X222118803Y-86290111D01*
%TO.C,C15*%
X205238891Y-87812417D02*
X205286510Y-87764798D01*
X205334129Y-87621941D01*
X205334129Y-87526703D01*
X205286510Y-87383846D01*
X205191272Y-87288608D01*
X205096034Y-87240989D01*
X204905558Y-87193370D01*
X204762701Y-87193370D01*
X204572225Y-87240989D01*
X204476987Y-87288608D01*
X204381749Y-87383846D01*
X204334129Y-87526703D01*
X204334129Y-87621941D01*
X204381749Y-87764798D01*
X204429368Y-87812417D01*
X205334129Y-88764798D02*
X205334129Y-88193370D01*
X205334129Y-88479084D02*
X204334129Y-88479084D01*
X204476987Y-88383846D01*
X204572225Y-88288608D01*
X204619844Y-88193370D01*
X204334129Y-89669560D02*
X204334129Y-89193370D01*
X204810320Y-89145751D01*
X204762701Y-89193370D01*
X204715082Y-89288608D01*
X204715082Y-89526703D01*
X204762701Y-89621941D01*
X204810320Y-89669560D01*
X204905558Y-89717179D01*
X205143653Y-89717179D01*
X205238891Y-89669560D01*
X205286510Y-89621941D01*
X205334129Y-89526703D01*
X205334129Y-89288608D01*
X205286510Y-89193370D01*
X205238891Y-89145751D01*
%TO.C,U3*%
X212101332Y-83643787D02*
X212910856Y-83643787D01*
X213006094Y-83691406D01*
X213053713Y-83739025D01*
X213101332Y-83834263D01*
X213101332Y-84024739D01*
X213053713Y-84119977D01*
X213006094Y-84167596D01*
X212910856Y-84215215D01*
X212101332Y-84215215D01*
X212101332Y-84596168D02*
X212101332Y-85215215D01*
X212482285Y-84881882D01*
X212482285Y-85024739D01*
X212529904Y-85119977D01*
X212577523Y-85167596D01*
X212672761Y-85215215D01*
X212910856Y-85215215D01*
X213006094Y-85167596D01*
X213053713Y-85119977D01*
X213101332Y-85024739D01*
X213101332Y-84739025D01*
X213053713Y-84643787D01*
X213006094Y-84596168D01*
%TO.C,C13*%
X217262434Y-91908148D02*
X217310053Y-91860529D01*
X217357672Y-91717672D01*
X217357672Y-91622434D01*
X217310053Y-91479577D01*
X217214815Y-91384339D01*
X217119577Y-91336720D01*
X216929101Y-91289101D01*
X216786244Y-91289101D01*
X216595768Y-91336720D01*
X216500530Y-91384339D01*
X216405292Y-91479577D01*
X216357672Y-91622434D01*
X216357672Y-91717672D01*
X216405292Y-91860529D01*
X216452911Y-91908148D01*
X217357672Y-92860529D02*
X217357672Y-92289101D01*
X217357672Y-92574815D02*
X216357672Y-92574815D01*
X216500530Y-92479577D01*
X216595768Y-92384339D01*
X216643387Y-92289101D01*
X216357672Y-93193863D02*
X216357672Y-93812910D01*
X216738625Y-93479577D01*
X216738625Y-93622434D01*
X216786244Y-93717672D01*
X216833863Y-93765291D01*
X216929101Y-93812910D01*
X217167196Y-93812910D01*
X217262434Y-93765291D01*
X217310053Y-93717672D01*
X217357672Y-93622434D01*
X217357672Y-93336720D01*
X217310053Y-93241482D01*
X217262434Y-93193863D01*
%TO.C,C2*%
X192001493Y-84544731D02*
X192049112Y-84592350D01*
X192191969Y-84639969D01*
X192287207Y-84639969D01*
X192430065Y-84592350D01*
X192525303Y-84497112D01*
X192572922Y-84401874D01*
X192620541Y-84211398D01*
X192620541Y-84068541D01*
X192572922Y-83878065D01*
X192525303Y-83782827D01*
X192430065Y-83687589D01*
X192287207Y-83639969D01*
X192191969Y-83639969D01*
X192049112Y-83687589D01*
X192001493Y-83735208D01*
X191620541Y-83735208D02*
X191572922Y-83687589D01*
X191477684Y-83639969D01*
X191239588Y-83639969D01*
X191144350Y-83687589D01*
X191096731Y-83735208D01*
X191049112Y-83830446D01*
X191049112Y-83925684D01*
X191096731Y-84068541D01*
X191668160Y-84639969D01*
X191049112Y-84639969D01*
%TO.C,R7*%
X208505431Y-87894856D02*
X208838765Y-87418666D01*
X209076860Y-87894856D02*
X209076860Y-86894856D01*
X208695907Y-86894856D01*
X208600669Y-86942476D01*
X208553050Y-86990095D01*
X208505431Y-87085333D01*
X208505431Y-87228190D01*
X208553050Y-87323428D01*
X208600669Y-87371047D01*
X208695907Y-87418666D01*
X209076860Y-87418666D01*
X208172098Y-86894856D02*
X207505431Y-86894856D01*
X207934003Y-87894856D01*
%TO.C,R5*%
X196385486Y-80780786D02*
X196718820Y-80304596D01*
X196956915Y-80780786D02*
X196956915Y-79780786D01*
X196575962Y-79780786D01*
X196480724Y-79828406D01*
X196433105Y-79876025D01*
X196385486Y-79971263D01*
X196385486Y-80114120D01*
X196433105Y-80209358D01*
X196480724Y-80256977D01*
X196575962Y-80304596D01*
X196956915Y-80304596D01*
X195480724Y-79780786D02*
X195956915Y-79780786D01*
X196004534Y-80256977D01*
X195956915Y-80209358D01*
X195861677Y-80161739D01*
X195623581Y-80161739D01*
X195528343Y-80209358D01*
X195480724Y-80256977D01*
X195433105Y-80352215D01*
X195433105Y-80590310D01*
X195480724Y-80685548D01*
X195528343Y-80733167D01*
X195623581Y-80780786D01*
X195861677Y-80780786D01*
X195956915Y-80733167D01*
X196004534Y-80685548D01*
%TO.C,C8*%
X208505431Y-84799618D02*
X208553050Y-84847237D01*
X208695907Y-84894856D01*
X208791145Y-84894856D01*
X208934003Y-84847237D01*
X209029241Y-84751999D01*
X209076860Y-84656761D01*
X209124479Y-84466285D01*
X209124479Y-84323428D01*
X209076860Y-84132952D01*
X209029241Y-84037714D01*
X208934003Y-83942476D01*
X208791145Y-83894856D01*
X208695907Y-83894856D01*
X208553050Y-83942476D01*
X208505431Y-83990095D01*
X207934003Y-84323428D02*
X208029241Y-84275809D01*
X208076860Y-84228190D01*
X208124479Y-84132952D01*
X208124479Y-84085333D01*
X208076860Y-83990095D01*
X208029241Y-83942476D01*
X207934003Y-83894856D01*
X207743526Y-83894856D01*
X207648288Y-83942476D01*
X207600669Y-83990095D01*
X207553050Y-84085333D01*
X207553050Y-84132952D01*
X207600669Y-84228190D01*
X207648288Y-84275809D01*
X207743526Y-84323428D01*
X207934003Y-84323428D01*
X208029241Y-84371047D01*
X208076860Y-84418666D01*
X208124479Y-84513904D01*
X208124479Y-84704380D01*
X208076860Y-84799618D01*
X208029241Y-84847237D01*
X207934003Y-84894856D01*
X207743526Y-84894856D01*
X207648288Y-84847237D01*
X207600669Y-84799618D01*
X207553050Y-84704380D01*
X207553050Y-84513904D01*
X207600669Y-84418666D01*
X207648288Y-84371047D01*
X207743526Y-84323428D01*
%TO.C,SWR1*%
X201308333Y-74102083D02*
X201208333Y-74135416D01*
X201041666Y-74135416D01*
X200975000Y-74102083D01*
X200941666Y-74068750D01*
X200908333Y-74002083D01*
X200908333Y-73935416D01*
X200941666Y-73868750D01*
X200975000Y-73835416D01*
X201041666Y-73802083D01*
X201175000Y-73768750D01*
X201241666Y-73735416D01*
X201275000Y-73702083D01*
X201308333Y-73635416D01*
X201308333Y-73568750D01*
X201275000Y-73502083D01*
X201241666Y-73468750D01*
X201175000Y-73435416D01*
X201008333Y-73435416D01*
X200908333Y-73468750D01*
X200675000Y-73435416D02*
X200508333Y-74135416D01*
X200375000Y-73635416D01*
X200241666Y-74135416D01*
X200075000Y-73435416D01*
X199408333Y-74135416D02*
X199641666Y-73802083D01*
X199808333Y-74135416D02*
X199808333Y-73435416D01*
X199541666Y-73435416D01*
X199475000Y-73468750D01*
X199441666Y-73502083D01*
X199408333Y-73568750D01*
X199408333Y-73668750D01*
X199441666Y-73735416D01*
X199475000Y-73768750D01*
X199541666Y-73802083D01*
X199808333Y-73802083D01*
X198741666Y-74135416D02*
X199141666Y-74135416D01*
X198941666Y-74135416D02*
X198941666Y-73435416D01*
X199008333Y-73535416D01*
X199075000Y-73602083D01*
X199141666Y-73635416D01*
%TO.C,C18*%
X208981622Y-90799618D02*
X209029241Y-90847237D01*
X209172098Y-90894856D01*
X209267336Y-90894856D01*
X209410193Y-90847237D01*
X209505431Y-90751999D01*
X209553050Y-90656761D01*
X209600669Y-90466285D01*
X209600669Y-90323428D01*
X209553050Y-90132952D01*
X209505431Y-90037714D01*
X209410193Y-89942476D01*
X209267336Y-89894856D01*
X209172098Y-89894856D01*
X209029241Y-89942476D01*
X208981622Y-89990095D01*
X208029241Y-90894856D02*
X208600669Y-90894856D01*
X208314955Y-90894856D02*
X208314955Y-89894856D01*
X208410193Y-90037714D01*
X208505431Y-90132952D01*
X208600669Y-90180571D01*
X207457812Y-90323428D02*
X207553050Y-90275809D01*
X207600669Y-90228190D01*
X207648288Y-90132952D01*
X207648288Y-90085333D01*
X207600669Y-89990095D01*
X207553050Y-89942476D01*
X207457812Y-89894856D01*
X207267336Y-89894856D01*
X207172098Y-89942476D01*
X207124479Y-89990095D01*
X207076860Y-90085333D01*
X207076860Y-90132952D01*
X207124479Y-90228190D01*
X207172098Y-90275809D01*
X207267336Y-90323428D01*
X207457812Y-90323428D01*
X207553050Y-90371047D01*
X207600669Y-90418666D01*
X207648288Y-90513904D01*
X207648288Y-90704380D01*
X207600669Y-90799618D01*
X207553050Y-90847237D01*
X207457812Y-90894856D01*
X207267336Y-90894856D01*
X207172098Y-90847237D01*
X207124479Y-90799618D01*
X207076860Y-90704380D01*
X207076860Y-90513904D01*
X207124479Y-90418666D01*
X207172098Y-90371047D01*
X207267336Y-90323428D01*
%TO.C,C5*%
X227207848Y-89303803D02*
X227255467Y-89256184D01*
X227303086Y-89113327D01*
X227303086Y-89018089D01*
X227255467Y-88875231D01*
X227160229Y-88779993D01*
X227064991Y-88732374D01*
X226874515Y-88684755D01*
X226731658Y-88684755D01*
X226541182Y-88732374D01*
X226445944Y-88779993D01*
X226350706Y-88875231D01*
X226303086Y-89018089D01*
X226303086Y-89113327D01*
X226350706Y-89256184D01*
X226398325Y-89303803D01*
X226303086Y-90208565D02*
X226303086Y-89732374D01*
X226779277Y-89684755D01*
X226731658Y-89732374D01*
X226684039Y-89827612D01*
X226684039Y-90065708D01*
X226731658Y-90160946D01*
X226779277Y-90208565D01*
X226874515Y-90256184D01*
X227112610Y-90256184D01*
X227207848Y-90208565D01*
X227255467Y-90160946D01*
X227303086Y-90065708D01*
X227303086Y-89827612D01*
X227255467Y-89732374D01*
X227207848Y-89684755D01*
%TO.C,C12*%
X214830290Y-91923916D02*
X214877909Y-91876297D01*
X214925528Y-91733440D01*
X214925528Y-91638202D01*
X214877909Y-91495345D01*
X214782671Y-91400107D01*
X214687433Y-91352488D01*
X214496957Y-91304869D01*
X214354100Y-91304869D01*
X214163624Y-91352488D01*
X214068386Y-91400107D01*
X213973148Y-91495345D01*
X213925528Y-91638202D01*
X213925528Y-91733440D01*
X213973148Y-91876297D01*
X214020767Y-91923916D01*
X214925528Y-92876297D02*
X214925528Y-92304869D01*
X214925528Y-92590583D02*
X213925528Y-92590583D01*
X214068386Y-92495345D01*
X214163624Y-92400107D01*
X214211243Y-92304869D01*
X214020767Y-93257250D02*
X213973148Y-93304869D01*
X213925528Y-93400107D01*
X213925528Y-93638202D01*
X213973148Y-93733440D01*
X214020767Y-93781059D01*
X214116005Y-93828678D01*
X214211243Y-93828678D01*
X214354100Y-93781059D01*
X214925528Y-93209631D01*
X214925528Y-93828678D01*
%TO.C,C9*%
X217234514Y-80997849D02*
X217282133Y-80950230D01*
X217329752Y-80807373D01*
X217329752Y-80712135D01*
X217282133Y-80569277D01*
X217186895Y-80474039D01*
X217091657Y-80426420D01*
X216901181Y-80378801D01*
X216758324Y-80378801D01*
X216567848Y-80426420D01*
X216472610Y-80474039D01*
X216377372Y-80569277D01*
X216329752Y-80712135D01*
X216329752Y-80807373D01*
X216377372Y-80950230D01*
X216424991Y-80997849D01*
X217329752Y-81474039D02*
X217329752Y-81664516D01*
X217282133Y-81759754D01*
X217234514Y-81807373D01*
X217091657Y-81902611D01*
X216901181Y-81950230D01*
X216520229Y-81950230D01*
X216424991Y-81902611D01*
X216377372Y-81854992D01*
X216329752Y-81759754D01*
X216329752Y-81569277D01*
X216377372Y-81474039D01*
X216424991Y-81426420D01*
X216520229Y-81378801D01*
X216758324Y-81378801D01*
X216853562Y-81426420D01*
X216901181Y-81474039D01*
X216948800Y-81569277D01*
X216948800Y-81759754D01*
X216901181Y-81854992D01*
X216853562Y-81902611D01*
X216758324Y-81950230D01*
%TO.C,C14*%
X211150440Y-82336235D02*
X211198059Y-82383854D01*
X211340916Y-82431473D01*
X211436154Y-82431473D01*
X211579011Y-82383854D01*
X211674249Y-82288616D01*
X211721868Y-82193378D01*
X211769487Y-82002902D01*
X211769487Y-81860045D01*
X211721868Y-81669569D01*
X211674249Y-81574331D01*
X211579011Y-81479093D01*
X211436154Y-81431473D01*
X211340916Y-81431473D01*
X211198059Y-81479093D01*
X211150440Y-81526712D01*
X210198059Y-82431473D02*
X210769487Y-82431473D01*
X210483773Y-82431473D02*
X210483773Y-81431473D01*
X210579011Y-81574331D01*
X210674249Y-81669569D01*
X210769487Y-81717188D01*
X209340916Y-81764807D02*
X209340916Y-82431473D01*
X209579011Y-81383854D02*
X209817106Y-82098140D01*
X209198059Y-82098140D01*
%TO.C,U2*%
X203549854Y-82714092D02*
X204359378Y-82714092D01*
X204454616Y-82761711D01*
X204502235Y-82809330D01*
X204549854Y-82904568D01*
X204549854Y-83095044D01*
X204502235Y-83190282D01*
X204454616Y-83237901D01*
X204359378Y-83285520D01*
X203549854Y-83285520D01*
X203645093Y-83714092D02*
X203597474Y-83761711D01*
X203549854Y-83856949D01*
X203549854Y-84095044D01*
X203597474Y-84190282D01*
X203645093Y-84237901D01*
X203740331Y-84285520D01*
X203835569Y-84285520D01*
X203978426Y-84237901D01*
X204549854Y-83666473D01*
X204549854Y-84285520D01*
%TO.C,R6*%
X208505431Y-89394856D02*
X208838765Y-88918666D01*
X209076860Y-89394856D02*
X209076860Y-88394856D01*
X208695907Y-88394856D01*
X208600669Y-88442476D01*
X208553050Y-88490095D01*
X208505431Y-88585333D01*
X208505431Y-88728190D01*
X208553050Y-88823428D01*
X208600669Y-88871047D01*
X208695907Y-88918666D01*
X209076860Y-88918666D01*
X207648288Y-88394856D02*
X207838765Y-88394856D01*
X207934003Y-88442476D01*
X207981622Y-88490095D01*
X208076860Y-88632952D01*
X208124479Y-88823428D01*
X208124479Y-89204380D01*
X208076860Y-89299618D01*
X208029241Y-89347237D01*
X207934003Y-89394856D01*
X207743526Y-89394856D01*
X207648288Y-89347237D01*
X207600669Y-89299618D01*
X207553050Y-89204380D01*
X207553050Y-88966285D01*
X207600669Y-88871047D01*
X207648288Y-88823428D01*
X207743526Y-88775809D01*
X207934003Y-88775809D01*
X208029241Y-88823428D01*
X208076860Y-88871047D01*
X208124479Y-88966285D01*
%TO.C,SWR2*%
X217977083Y-74102083D02*
X217877083Y-74135416D01*
X217710416Y-74135416D01*
X217643750Y-74102083D01*
X217610416Y-74068750D01*
X217577083Y-74002083D01*
X217577083Y-73935416D01*
X217610416Y-73868750D01*
X217643750Y-73835416D01*
X217710416Y-73802083D01*
X217843750Y-73768750D01*
X217910416Y-73735416D01*
X217943750Y-73702083D01*
X217977083Y-73635416D01*
X217977083Y-73568750D01*
X217943750Y-73502083D01*
X217910416Y-73468750D01*
X217843750Y-73435416D01*
X217677083Y-73435416D01*
X217577083Y-73468750D01*
X217343750Y-73435416D02*
X217177083Y-74135416D01*
X217043750Y-73635416D01*
X216910416Y-74135416D01*
X216743750Y-73435416D01*
X216077083Y-74135416D02*
X216310416Y-73802083D01*
X216477083Y-74135416D02*
X216477083Y-73435416D01*
X216210416Y-73435416D01*
X216143750Y-73468750D01*
X216110416Y-73502083D01*
X216077083Y-73568750D01*
X216077083Y-73668750D01*
X216110416Y-73735416D01*
X216143750Y-73768750D01*
X216210416Y-73802083D01*
X216477083Y-73802083D01*
X215810416Y-73502083D02*
X215777083Y-73468750D01*
X215710416Y-73435416D01*
X215543750Y-73435416D01*
X215477083Y-73468750D01*
X215443750Y-73502083D01*
X215410416Y-73568750D01*
X215410416Y-73635416D01*
X215443750Y-73735416D01*
X215843750Y-74135416D01*
X215410416Y-74135416D01*
%TO.C,C7*%
X223230313Y-88494873D02*
X223277932Y-88542492D01*
X223420789Y-88590111D01*
X223516027Y-88590111D01*
X223658885Y-88542492D01*
X223754123Y-88447254D01*
X223801742Y-88352016D01*
X223849361Y-88161540D01*
X223849361Y-88018683D01*
X223801742Y-87828207D01*
X223754123Y-87732969D01*
X223658885Y-87637731D01*
X223516027Y-87590111D01*
X223420789Y-87590111D01*
X223277932Y-87637731D01*
X223230313Y-87685350D01*
X222896980Y-87590111D02*
X222230313Y-87590111D01*
X222658885Y-88590111D01*
%TO.C,C1*%
X192991901Y-89454065D02*
X193039520Y-89501684D01*
X193182377Y-89549303D01*
X193277615Y-89549303D01*
X193420473Y-89501684D01*
X193515711Y-89406446D01*
X193563330Y-89311208D01*
X193610949Y-89120732D01*
X193610949Y-88977875D01*
X193563330Y-88787399D01*
X193515711Y-88692161D01*
X193420473Y-88596923D01*
X193277615Y-88549303D01*
X193182377Y-88549303D01*
X193039520Y-88596923D01*
X192991901Y-88644542D01*
X192039520Y-89549303D02*
X192610949Y-89549303D01*
X192325235Y-89549303D02*
X192325235Y-88549303D01*
X192420473Y-88692161D01*
X192515711Y-88787399D01*
X192610949Y-88835018D01*
%TO.C,C6*%
X226926806Y-82643102D02*
X226974425Y-82595483D01*
X227022044Y-82452626D01*
X227022044Y-82357388D01*
X226974425Y-82214530D01*
X226879187Y-82119292D01*
X226783949Y-82071673D01*
X226593473Y-82024054D01*
X226450616Y-82024054D01*
X226260140Y-82071673D01*
X226164902Y-82119292D01*
X226069664Y-82214530D01*
X226022044Y-82357388D01*
X226022044Y-82452626D01*
X226069664Y-82595483D01*
X226117283Y-82643102D01*
X226022044Y-83500245D02*
X226022044Y-83309769D01*
X226069664Y-83214530D01*
X226117283Y-83166911D01*
X226260140Y-83071673D01*
X226450616Y-83024054D01*
X226831568Y-83024054D01*
X226926806Y-83071673D01*
X226974425Y-83119292D01*
X227022044Y-83214530D01*
X227022044Y-83405007D01*
X226974425Y-83500245D01*
X226926806Y-83547864D01*
X226831568Y-83595483D01*
X226593473Y-83595483D01*
X226498235Y-83547864D01*
X226450616Y-83500245D01*
X226402997Y-83405007D01*
X226402997Y-83214530D01*
X226450616Y-83119292D01*
X226498235Y-83071673D01*
X226593473Y-83024054D01*
%TO.C,Y1*%
X229482745Y-88446246D02*
X229958935Y-88446246D01*
X228958935Y-88112913D02*
X229482745Y-88446246D01*
X228958935Y-88779579D01*
X229958935Y-89636722D02*
X229958935Y-89065294D01*
X229958935Y-89351008D02*
X228958935Y-89351008D01*
X229101793Y-89255770D01*
X229197031Y-89160532D01*
X229244650Y-89065294D01*
D13*
%TO.C,R9*%
X222202196Y-90976514D02*
X222202196Y-90501998D01*
X223247196Y-90976514D02*
X223247196Y-90501998D01*
%TO.C,U4*%
X138112500Y-30960000D02*
X137312500Y-30960000D01*
X140212500Y-28450000D02*
X140212500Y-27840000D01*
X138112500Y-30960000D02*
X138912500Y-30960000D01*
X140212500Y-27840000D02*
X137312500Y-27840000D01*
%TO.C,D3*%
X94662500Y-33206250D02*
X94662500Y-29306250D01*
X92662500Y-33206250D02*
X92662500Y-29306250D01*
X94662500Y-33206250D02*
X92662500Y-33206250D01*
%TO.C,R1*%
X134053761Y-29003782D02*
X134528277Y-29003782D01*
X134053761Y-27958782D02*
X134528277Y-27958782D01*
%TO.C,D28*%
X199437500Y-70512500D02*
X197437500Y-70512500D01*
X199437500Y-70512500D02*
X199437500Y-66612500D01*
X197437500Y-70512500D02*
X197437500Y-66612500D01*
%TO.C,C11*%
X211095336Y-86658750D02*
X210879664Y-86658750D01*
X211095336Y-87378750D02*
X210879664Y-87378750D01*
%TO.C,D27*%
X178387500Y-71306250D02*
X178387500Y-67406250D01*
X180387500Y-71306250D02*
X180387500Y-67406250D01*
X180387500Y-71306250D02*
X178387500Y-71306250D01*
%TO.C,F1*%
X131878750Y-24004186D02*
X131878750Y-25208314D01*
X130058750Y-24004186D02*
X130058750Y-25208314D01*
%TO.C,D2*%
X75612500Y-33206250D02*
X75612500Y-29306250D01*
X75612500Y-33206250D02*
X73612500Y-33206250D01*
X73612500Y-33206250D02*
X73612500Y-29306250D01*
%TO.C,D35*%
X175212500Y-75537500D02*
X177212500Y-75537500D01*
X175212500Y-75537500D02*
X175212500Y-79437500D01*
X177212500Y-75537500D02*
X177212500Y-79437500D01*
%TO.C,D24*%
X121237500Y-71306250D02*
X121237500Y-67406250D01*
X123237500Y-71306250D02*
X121237500Y-71306250D01*
X123237500Y-71306250D02*
X123237500Y-67406250D01*
%TO.C,C4*%
X196327500Y-89610914D02*
X196327500Y-89826586D01*
X197047500Y-89610914D02*
X197047500Y-89826586D01*
%TO.C,D9*%
X208962500Y-33206250D02*
X206962500Y-33206250D01*
X208962500Y-33206250D02*
X208962500Y-29306250D01*
X206962500Y-33206250D02*
X206962500Y-29306250D01*
%TO.C,R4*%
X195250242Y-83041250D02*
X195724758Y-83041250D01*
X195250242Y-81996250D02*
X195724758Y-81996250D01*
%TO.C,D4*%
X113712500Y-33206250D02*
X111712500Y-33206250D01*
X111712500Y-33206250D02*
X111712500Y-29306250D01*
X113712500Y-33206250D02*
X113712500Y-29306250D01*
%TO.C,U1*%
X194734795Y-84974478D02*
X195384795Y-84974478D01*
X194734795Y-88094478D02*
X193059795Y-88094478D01*
X194734795Y-84974478D02*
X194084795Y-84974478D01*
X194734795Y-88094478D02*
X195384795Y-88094478D01*
%TO.C,D33*%
X162512500Y-75537500D02*
X162512500Y-79437500D01*
X164512500Y-75537500D02*
X164512500Y-79437500D01*
X162512500Y-75537500D02*
X164512500Y-75537500D01*
%TO.C,D12*%
X75612500Y-52256250D02*
X73612500Y-52256250D01*
X73612500Y-52256250D02*
X73612500Y-48356250D01*
X75612500Y-52256250D02*
X75612500Y-48356250D01*
%TO.C,D7*%
X170862500Y-33206250D02*
X170862500Y-29306250D01*
X170862500Y-33206250D02*
X168862500Y-33206250D01*
X168862500Y-33206250D02*
X168862500Y-29306250D01*
%TO.C,R8*%
X225651807Y-85383956D02*
X225344525Y-85383956D01*
X225651807Y-86143956D02*
X225344525Y-86143956D01*
%TO.C,C17*%
X211095336Y-90658750D02*
X210879664Y-90658750D01*
X211095336Y-91378750D02*
X210879664Y-91378750D01*
%TO.C,D13*%
X92662500Y-52256250D02*
X92662500Y-48356250D01*
X94662500Y-52256250D02*
X92662500Y-52256250D01*
X94662500Y-52256250D02*
X94662500Y-48356250D01*
%TO.C,D6*%
X149812500Y-25531250D02*
X149812500Y-29431250D01*
X151812500Y-25531250D02*
X151812500Y-29431250D01*
X149812500Y-25531250D02*
X151812500Y-25531250D01*
%TO.C,D8*%
X187912500Y-33206250D02*
X187912500Y-29306250D01*
X189912500Y-33206250D02*
X189912500Y-29306250D01*
X189912500Y-33206250D02*
X187912500Y-33206250D01*
%TO.C,D22*%
X83137500Y-71306250D02*
X83137500Y-67406250D01*
X85137500Y-71306250D02*
X85137500Y-67406250D01*
X85137500Y-71306250D02*
X83137500Y-71306250D01*
%TO.C,D23*%
X102187500Y-71306250D02*
X102187500Y-67406250D01*
X104187500Y-71306250D02*
X104187500Y-67406250D01*
X104187500Y-71306250D02*
X102187500Y-71306250D01*
%TO.C,C10*%
X225390330Y-86410506D02*
X225606002Y-86410506D01*
X225390330Y-87130506D02*
X225606002Y-87130506D01*
%TO.C,D29*%
X223250000Y-71306250D02*
X221250000Y-71306250D01*
X221250000Y-71306250D02*
X221250000Y-67406250D01*
X223250000Y-71306250D02*
X223250000Y-67406250D01*
%TO.C,D18*%
X189912500Y-52256250D02*
X187912500Y-52256250D01*
X187912500Y-52256250D02*
X187912500Y-48356250D01*
X189912500Y-52256250D02*
X189912500Y-48356250D01*
%TO.C,C15*%
X204527500Y-85926586D02*
X204527500Y-85710914D01*
X205247500Y-85926586D02*
X205247500Y-85710914D01*
%TO.C,J1*%
X142812500Y-20400000D02*
X142812500Y-18500000D01*
X133412500Y-20400000D02*
X133412500Y-18500000D01*
X133412500Y-18500000D02*
X142812500Y-18500000D01*
X133412500Y-24300000D02*
X133412500Y-22300000D01*
X142812500Y-24300000D02*
X142812500Y-22300000D01*
%TO.C,D16*%
X149812500Y-52256250D02*
X149812500Y-48356250D01*
X151812500Y-52256250D02*
X149812500Y-52256250D01*
X151812500Y-52256250D02*
X151812500Y-48356250D01*
D14*
%TO.C,U3*%
X220987500Y-90018750D02*
X220987500Y-89538750D01*
X220987500Y-83018750D02*
X220507500Y-83018750D01*
X213987500Y-83018750D02*
X213987500Y-83498750D01*
X213987500Y-90018750D02*
X213987500Y-89538750D01*
X213987500Y-90018750D02*
X214467500Y-90018750D01*
X213987500Y-83018750D02*
X214467500Y-83018750D01*
X220987500Y-90018750D02*
X220507500Y-90018750D01*
X220987500Y-83018750D02*
X220987500Y-83498750D01*
D12*
X214987500Y-82043750D02*
G75*
G03*
X214987500Y-82043750I-100000J0D01*
G01*
D13*
%TO.C,C13*%
X218623631Y-91931462D02*
X218623631Y-92147134D01*
X217903631Y-91931462D02*
X217903631Y-92147134D01*
%TO.C,D5*%
X124412500Y-25531250D02*
X126412500Y-25531250D01*
X124412500Y-25531250D02*
X124412500Y-29431250D01*
X126412500Y-25531250D02*
X126412500Y-29431250D01*
%TO.C,D32*%
X111712500Y-75537500D02*
X111712500Y-79437500D01*
X111712500Y-75537500D02*
X113712500Y-75537500D01*
X113712500Y-75537500D02*
X113712500Y-79437500D01*
%TO.C,C2*%
X193950075Y-83707246D02*
X194165747Y-83707246D01*
X193950075Y-84427246D02*
X194165747Y-84427246D01*
%TO.C,D10*%
X228012500Y-33206250D02*
X226012500Y-33206250D01*
X226012500Y-33206250D02*
X226012500Y-29306250D01*
X228012500Y-33206250D02*
X228012500Y-29306250D01*
%TO.C,R7*%
X211141141Y-87638750D02*
X210833859Y-87638750D01*
X211141141Y-88398750D02*
X210833859Y-88398750D01*
%TO.C,R5*%
X198441141Y-80698750D02*
X198133859Y-80698750D01*
X198441141Y-79938750D02*
X198133859Y-79938750D01*
%TO.C,C8*%
X211095336Y-86378750D02*
X210879664Y-86378750D01*
X211095336Y-85658750D02*
X210879664Y-85658750D01*
%TO.C,D1*%
X56562500Y-33206250D02*
X54562500Y-33206250D01*
X54562500Y-33206250D02*
X54562500Y-29306250D01*
X56562500Y-33206250D02*
X56562500Y-29306250D01*
%TO.C,D25*%
X140287500Y-71306250D02*
X140287500Y-67406250D01*
X142287500Y-71306250D02*
X142287500Y-67406250D01*
X142287500Y-71306250D02*
X140287500Y-71306250D01*
%TO.C,SWR1*%
X198325000Y-76118750D02*
X198775000Y-76568750D01*
X201725000Y-76118750D02*
X201275000Y-76568750D01*
X198325000Y-71518750D02*
X198775000Y-71068750D01*
X201275000Y-71068750D02*
X198775000Y-71068750D01*
X202775000Y-72818750D02*
X202775000Y-74818750D01*
X201725000Y-71518750D02*
X201275000Y-71068750D01*
X197275000Y-72818750D02*
X197275000Y-74818750D01*
X201275000Y-76568750D02*
X198775000Y-76568750D01*
%TO.C,D19*%
X206962500Y-52256250D02*
X206962500Y-48356250D01*
X208962500Y-52256250D02*
X208962500Y-48356250D01*
X208962500Y-52256250D02*
X206962500Y-52256250D01*
%TO.C,C18*%
X211095336Y-90378750D02*
X210879664Y-90378750D01*
X211095336Y-89658750D02*
X210879664Y-89658750D01*
%TO.C,SWD2*%
X226680000Y-95786250D02*
X221540000Y-95786250D01*
X229280000Y-95786250D02*
X229280000Y-94456250D01*
X227950000Y-95786250D02*
X229280000Y-95786250D01*
X226680000Y-95786250D02*
X226680000Y-93126250D01*
X221540000Y-95786250D02*
X221540000Y-93126250D01*
X226680000Y-93126250D02*
X221540000Y-93126250D01*
%TO.C,R3*%
X142199695Y-29003782D02*
X141725179Y-29003782D01*
X142199695Y-27958782D02*
X141725179Y-27958782D01*
%TO.C,C5*%
X227358166Y-86878342D02*
X227358166Y-86662670D01*
X226638166Y-86878342D02*
X226638166Y-86662670D01*
%TO.C,C12*%
X212627500Y-92410914D02*
X212627500Y-92626586D01*
X213347500Y-92410914D02*
X213347500Y-92626586D01*
%TO.C,D15*%
X132762500Y-52256250D02*
X130762500Y-52256250D01*
X130762500Y-52256250D02*
X130762500Y-48356250D01*
X132762500Y-52256250D02*
X132762500Y-48356250D01*
%TO.C,D20*%
X228012500Y-52256250D02*
X228012500Y-48356250D01*
X228012500Y-52256250D02*
X226012500Y-52256250D01*
X226012500Y-52256250D02*
X226012500Y-48356250D01*
%TO.C,D30*%
X99012500Y-75537500D02*
X101012500Y-75537500D01*
X99012500Y-75537500D02*
X99012500Y-79437500D01*
X101012500Y-75537500D02*
X101012500Y-79437500D01*
%TO.C,D31*%
X105362500Y-75537500D02*
X107362500Y-75537500D01*
X107362500Y-75537500D02*
X107362500Y-79437500D01*
X105362500Y-75537500D02*
X105362500Y-79437500D01*
%TO.C,C9*%
X218587444Y-81164516D02*
X218587444Y-80948844D01*
X217867444Y-81164516D02*
X217867444Y-80948844D01*
%TO.C,C14*%
X213195336Y-82278750D02*
X212979664Y-82278750D01*
X213195336Y-81558750D02*
X212979664Y-81558750D01*
%TO.C,U2*%
X203012500Y-88343750D02*
X202752500Y-88343750D01*
X203012500Y-85618750D02*
X203012500Y-82893750D01*
X197562500Y-82893750D02*
X197822500Y-82893750D01*
X203012500Y-82893750D02*
X202752500Y-82893750D01*
X203012500Y-85618750D02*
X203012500Y-88343750D01*
X197822500Y-82893750D02*
X197822500Y-81218750D01*
X197562500Y-85618750D02*
X197562500Y-88343750D01*
X197562500Y-85618750D02*
X197562500Y-82893750D01*
X197562500Y-88343750D02*
X197822500Y-88343750D01*
%TO.C,R6*%
X211141141Y-88638750D02*
X210833859Y-88638750D01*
X211141141Y-89398750D02*
X210833859Y-89398750D01*
%TO.C,SWR2*%
X213943750Y-72818750D02*
X213943750Y-74818750D01*
X214993750Y-76118750D02*
X215443750Y-76568750D01*
X217943750Y-76568750D02*
X215443750Y-76568750D01*
X214993750Y-71518750D02*
X215443750Y-71068750D01*
X218393750Y-76118750D02*
X217943750Y-76568750D01*
X219443750Y-72818750D02*
X219443750Y-74818750D01*
X218393750Y-71518750D02*
X217943750Y-71068750D01*
X217943750Y-71068750D02*
X215443750Y-71068750D01*
%TO.C,C7*%
X225390330Y-87410506D02*
X225606002Y-87410506D01*
X225390330Y-88130506D02*
X225606002Y-88130506D01*
%TO.C,D11*%
X54562500Y-52256250D02*
X54562500Y-48356250D01*
X56562500Y-52256250D02*
X56562500Y-48356250D01*
X56562500Y-52256250D02*
X54562500Y-52256250D01*
%TO.C,D14*%
X113712500Y-52256250D02*
X113712500Y-48356250D01*
X111712500Y-52256250D02*
X111712500Y-48356250D01*
X113712500Y-52256250D02*
X111712500Y-52256250D01*
%TO.C,C1*%
X194890336Y-89260000D02*
X194674664Y-89260000D01*
X194890336Y-88540000D02*
X194674664Y-88540000D01*
%TO.C,C6*%
X226638166Y-84898342D02*
X226638166Y-84682670D01*
X227358166Y-84898342D02*
X227358166Y-84682670D01*
%TO.C,D17*%
X170862500Y-52256250D02*
X168862500Y-52256250D01*
X170862500Y-52256250D02*
X170862500Y-48356250D01*
X168862500Y-52256250D02*
X168862500Y-48356250D01*
%TO.C,D21*%
X61325000Y-71306250D02*
X61325000Y-67406250D01*
X59325000Y-71306250D02*
X59325000Y-67406250D01*
X61325000Y-71306250D02*
X59325000Y-71306250D01*
%TO.C,Y1*%
X231148166Y-87770506D02*
X227848166Y-87770506D01*
X227848166Y-87770506D02*
X227848166Y-83770506D01*
%TO.C,D34*%
X170862500Y-75537500D02*
X170862500Y-79437500D01*
X168862500Y-75537500D02*
X170862500Y-75537500D01*
X168862500Y-75537500D02*
X168862500Y-79437500D01*
%TO.C,D26*%
X161337500Y-71306250D02*
X161337500Y-67406250D01*
X159337500Y-71306250D02*
X159337500Y-67406250D01*
X161337500Y-71306250D02*
X159337500Y-71306250D01*
%TD*%
M02*
