%TF.GenerationSoftware,KiCad,Pcbnew,(6.0.10)*%
%TF.CreationDate,2023-02-13T13:47:23-06:00*%
%TF.ProjectId,AlphaWetPCB,416c7068-6157-4657-9450-43422e6b6963,rev?*%
%TF.SameCoordinates,Original*%
%TF.FileFunction,Legend,Top*%
%TF.FilePolarity,Positive*%
%FSLAX46Y46*%
G04 Gerber Fmt 4.6, Leading zero omitted, Abs format (unit mm)*
G04 Created by KiCad (PCBNEW (6.0.10)) date 2023-02-13 13:47:23*
%MOMM*%
%LPD*%
G01*
G04 APERTURE LIST*
%ADD10C,0.500000*%
G04 APERTURE END LIST*
D10*
X147637500Y-77787500D02*
X147637500Y-58737500D01*
X176212500Y-58737500D02*
X176212500Y-20637500D01*
X42862500Y-77787500D02*
X232568750Y-77787500D01*
X185737500Y-77787500D02*
X185737500Y-58737500D01*
X195262500Y-58737500D02*
X195262500Y-20637500D01*
X157162500Y-58737500D02*
X157162500Y-20637500D01*
X166687500Y-77787500D02*
X166687500Y-58737500D01*
X119062500Y-58737500D02*
X119062500Y-20637500D01*
X171450000Y-96837500D02*
X171450000Y-77787500D01*
X109537500Y-77787500D02*
X109537500Y-58737500D01*
X80962500Y-96837500D02*
X80962500Y-77787500D01*
X90487500Y-77787500D02*
X90487500Y-58737500D01*
X61912500Y-58737500D02*
X61912500Y-20637500D01*
X104775000Y-96837500D02*
X104775000Y-77787500D01*
X128587500Y-77787500D02*
X128587500Y-58737500D01*
X42862500Y-39687500D02*
X232568750Y-39687500D01*
X214312500Y-58737500D02*
X214312500Y-20637500D01*
X71437500Y-77787500D02*
X71437500Y-58737500D01*
X138112500Y-58737500D02*
X138112500Y-20637500D01*
X42862500Y-58737500D02*
X232568750Y-58737500D01*
X138112500Y-96837500D02*
X138112500Y-77787500D01*
X80962500Y-58737500D02*
X80962500Y-20637500D01*
X204787500Y-77787500D02*
X204787500Y-58737500D01*
X100012500Y-58737500D02*
X100012500Y-20637500D01*
X195262500Y-96837500D02*
X195262500Y-77787500D01*
M02*
