%TF.GenerationSoftware,KiCad,Pcbnew,(6.0.10)*%
%TF.CreationDate,2023-02-13T13:56:49-06:00*%
%TF.ProjectId,WilliamPlate,57696c6c-6961-46d5-906c-6174652e6b69,rev?*%
%TF.SameCoordinates,Original*%
%TF.FileFunction,Soldermask,Top*%
%TF.FilePolarity,Negative*%
%FSLAX46Y46*%
G04 Gerber Fmt 4.6, Leading zero omitted, Abs format (unit mm)*
G04 Created by KiCad (PCBNEW (6.0.10)) date 2023-02-13 13:56:49*
%MOMM*%
%LPD*%
G01*
G04 APERTURE LIST*
%ADD10C,2.000000*%
G04 APERTURE END LIST*
D10*
X97956250Y-108537500D02*
X104956250Y-108537500D01*
X241806250Y-66387500D02*
X227806250Y-66387500D01*
X213231250Y-90487500D02*
X213231250Y-104487500D01*
X180181250Y-104487500D02*
X180181250Y-90487500D01*
X146556250Y-85437500D02*
X132556250Y-85437500D01*
X89406250Y-71437500D02*
X89406250Y-85437500D01*
X75406250Y-52387500D02*
X89406250Y-52387500D01*
X137031250Y-104487500D02*
X123031250Y-104487500D01*
X170656250Y-85437500D02*
X170656250Y-71437500D01*
X162106250Y-109537500D02*
X184656250Y-109537500D01*
X227806250Y-52387500D02*
X241806250Y-52387500D01*
X104956250Y-108537500D02*
X104956250Y-109537500D01*
X94456250Y-85437500D02*
X94456250Y-71437500D01*
X161131250Y-104487500D02*
X161131250Y-90487500D01*
X227806250Y-71437500D02*
X241806250Y-71437500D01*
X75406250Y-85437500D02*
X75406250Y-71437500D01*
X189706250Y-66387500D02*
X189706250Y-52387500D01*
X137031250Y-90487500D02*
X137031250Y-104487500D01*
X213231250Y-104487500D02*
X199231250Y-104487500D01*
X98931250Y-90487500D02*
X98931250Y-104487500D01*
X184656250Y-71437500D02*
X184656250Y-85437500D01*
X70356250Y-85437500D02*
X56356250Y-85437500D01*
X132556250Y-85437500D02*
X132556250Y-71437500D01*
X156081250Y-104487500D02*
X142081250Y-104487500D01*
X117981250Y-104487500D02*
X103981250Y-104487500D01*
X165606250Y-71437500D02*
X165606250Y-85437500D01*
X56356250Y-66387500D02*
X56356250Y-52387500D01*
X75406250Y-66387500D02*
X75406250Y-52387500D01*
X187325000Y-123537500D02*
X187325000Y-109537500D01*
X132556250Y-52387500D02*
X146556250Y-52387500D01*
X187325000Y-109537500D02*
X193206250Y-109537500D01*
X108456250Y-52387500D02*
X108456250Y-66387500D01*
X175131250Y-104487500D02*
X161131250Y-104487500D01*
X84931250Y-90487500D02*
X98931250Y-90487500D01*
X61118750Y-104487500D02*
X61118750Y-90487500D01*
X75118750Y-104487500D02*
X61118750Y-104487500D01*
X222756250Y-71437500D02*
X222756250Y-85437500D01*
X227806250Y-85437500D02*
X227806250Y-71437500D01*
X223043750Y-90487500D02*
X237043750Y-90487500D01*
X184656250Y-109537500D02*
X184656250Y-123537500D01*
X65631250Y-128762500D02*
G75*
G03*
X65631250Y-128762500I-1275000J0D01*
G01*
X142081250Y-90487500D02*
X156081250Y-90487500D01*
X123031250Y-104487500D02*
X123031250Y-90487500D01*
X162106250Y-108537500D02*
X162106250Y-109537500D01*
X193206250Y-109537500D02*
X193206250Y-108537500D01*
X170656250Y-66387500D02*
X170656250Y-52387500D01*
X161131250Y-90487500D02*
X175131250Y-90487500D01*
X151606250Y-66387500D02*
X151606250Y-52387500D01*
X146556250Y-66387500D02*
X132556250Y-66387500D01*
X103981250Y-90487500D02*
X117981250Y-90487500D01*
X155106250Y-109537500D02*
X155106250Y-108537500D01*
X208756250Y-52387500D02*
X222756250Y-52387500D01*
X103981250Y-104487500D02*
X103981250Y-90487500D01*
X222756250Y-85437500D02*
X208756250Y-85437500D01*
X89406250Y-52387500D02*
X89406250Y-66387500D01*
X70356250Y-71437500D02*
X70356250Y-85437500D01*
X96837500Y-109537500D02*
X97956250Y-109537500D01*
X170656250Y-52387500D02*
X184656250Y-52387500D01*
X170656250Y-71437500D02*
X184656250Y-71437500D01*
X94456250Y-52387500D02*
X108456250Y-52387500D01*
X156081250Y-90487500D02*
X156081250Y-104487500D01*
X65631250Y-47162500D02*
G75*
G03*
X65631250Y-47162500I-1275000J0D01*
G01*
X56356250Y-52387500D02*
X70356250Y-52387500D01*
X132556250Y-71437500D02*
X146556250Y-71437500D01*
X113506250Y-109537500D02*
X136056250Y-109537500D01*
X199231250Y-90487500D02*
X213231250Y-90487500D01*
X241806250Y-85437500D02*
X227806250Y-85437500D01*
X97956250Y-109537500D02*
X97956250Y-108537500D01*
X98931250Y-104487500D02*
X84931250Y-104487500D01*
X94456250Y-66387500D02*
X94456250Y-52387500D01*
X203706250Y-52387500D02*
X203706250Y-66387500D01*
X194181250Y-90487500D02*
X194181250Y-104487500D01*
X136056250Y-109537500D02*
X136056250Y-108537500D01*
X155106250Y-108537500D02*
X162106250Y-108537500D01*
X146556250Y-52387500D02*
X146556250Y-66387500D01*
X56356250Y-71437500D02*
X70356250Y-71437500D01*
X61118750Y-90487500D02*
X75118750Y-90487500D01*
X127506250Y-71437500D02*
X127506250Y-85437500D01*
X143056250Y-108537500D02*
X143056250Y-109537500D01*
X146556250Y-71437500D02*
X146556250Y-85437500D01*
X200206250Y-108537500D02*
X200206250Y-109537500D01*
X75406250Y-71437500D02*
X89406250Y-71437500D01*
X113506250Y-123537500D02*
X113506250Y-109537500D01*
X151606250Y-71437500D02*
X165606250Y-71437500D01*
X189706250Y-52387500D02*
X203706250Y-52387500D01*
X201325000Y-109537500D02*
X201325000Y-123537500D01*
X113506250Y-66387500D02*
X113506250Y-52387500D01*
X227806250Y-66387500D02*
X227806250Y-52387500D01*
X108456250Y-66387500D02*
X94456250Y-66387500D01*
X127506250Y-85437500D02*
X113506250Y-85437500D01*
X110837500Y-123537500D02*
X96837500Y-123537500D01*
X56356250Y-85437500D02*
X56356250Y-71437500D01*
X203706250Y-71437500D02*
X203706250Y-85437500D01*
X175131250Y-90487500D02*
X175131250Y-104487500D01*
X208756250Y-85437500D02*
X208756250Y-71437500D01*
X127506250Y-52387500D02*
X127506250Y-66387500D01*
X199231250Y-104487500D02*
X199231250Y-90487500D01*
X113506250Y-52387500D02*
X127506250Y-52387500D01*
X117981250Y-90487500D02*
X117981250Y-104487500D01*
X241806250Y-52387500D02*
X241806250Y-66387500D01*
X94456250Y-71437500D02*
X108456250Y-71437500D01*
X241806250Y-71437500D02*
X241806250Y-85437500D01*
X151606250Y-52387500D02*
X165606250Y-52387500D01*
X165606250Y-52387500D02*
X165606250Y-66387500D01*
X189706250Y-71437500D02*
X203706250Y-71437500D01*
X84931250Y-104487500D02*
X84931250Y-90487500D01*
X151606250Y-85437500D02*
X151606250Y-71437500D01*
X180181250Y-90487500D02*
X194181250Y-90487500D01*
X113506250Y-71437500D02*
X127506250Y-71437500D01*
X70356250Y-52387500D02*
X70356250Y-66387500D01*
X184656250Y-123537500D02*
X113506250Y-123537500D01*
X136056250Y-108537500D02*
X143056250Y-108537500D01*
X165606250Y-85437500D02*
X151606250Y-85437500D01*
X223043750Y-104487500D02*
X223043750Y-90487500D01*
X132556250Y-66387500D02*
X132556250Y-52387500D01*
X96837500Y-123537500D02*
X96837500Y-109537500D01*
X222756250Y-52387500D02*
X222756250Y-66387500D01*
X237043750Y-90487500D02*
X237043750Y-104487500D01*
X184656250Y-85437500D02*
X170656250Y-85437500D01*
X194181250Y-104487500D02*
X180181250Y-104487500D01*
X108456250Y-71437500D02*
X108456250Y-85437500D01*
X89406250Y-66387500D02*
X75406250Y-66387500D01*
X201325000Y-123537500D02*
X187325000Y-123537500D01*
X184656250Y-52387500D02*
X184656250Y-66387500D01*
X104956250Y-109537500D02*
X110837500Y-109537500D01*
X193206250Y-108537500D02*
X200206250Y-108537500D01*
X70356250Y-66387500D02*
X56356250Y-66387500D01*
X165606250Y-66387500D02*
X151606250Y-66387500D01*
X184656250Y-66387500D02*
X170656250Y-66387500D01*
X222756250Y-66387500D02*
X208756250Y-66387500D01*
X89406250Y-85437500D02*
X75406250Y-85437500D01*
X200206250Y-109537500D02*
X201325000Y-109537500D01*
X108456250Y-85437500D02*
X94456250Y-85437500D01*
X208756250Y-66387500D02*
X208756250Y-52387500D01*
X143056250Y-109537500D02*
X155106250Y-109537500D01*
X127506250Y-66387500D02*
X113506250Y-66387500D01*
X189706250Y-85437500D02*
X189706250Y-71437500D01*
X123031250Y-90487500D02*
X137031250Y-90487500D01*
X113506250Y-85437500D02*
X113506250Y-71437500D01*
X235081250Y-47162500D02*
G75*
G03*
X235081250Y-47162500I-1275000J0D01*
G01*
X237043750Y-104487500D02*
X223043750Y-104487500D01*
X142081250Y-104487500D02*
X142081250Y-90487500D01*
X110837500Y-109537500D02*
X110837500Y-123537500D01*
X208756250Y-71437500D02*
X222756250Y-71437500D01*
X75118750Y-90487500D02*
X75118750Y-104487500D01*
X203706250Y-66387500D02*
X189706250Y-66387500D01*
X203706250Y-85437500D02*
X189706250Y-85437500D01*
X235081250Y-128762500D02*
G75*
G03*
X235081250Y-128762500I-1275000J0D01*
G01*
M02*
