%TF.GenerationSoftware,KiCad,Pcbnew,(6.0.10)*%
%TF.CreationDate,2023-02-13T13:56:49-06:00*%
%TF.ProjectId,WilliamPlate,57696c6c-6961-46d5-906c-6174652e6b69,rev?*%
%TF.SameCoordinates,Original*%
%TF.FileFunction,Copper,L1,Top*%
%TF.FilePolarity,Positive*%
%FSLAX46Y46*%
G04 Gerber Fmt 4.6, Leading zero omitted, Abs format (unit mm)*
G04 Created by KiCad (PCBNEW (6.0.10)) date 2023-02-13 13:56:49*
%MOMM*%
%LPD*%
G01*
G04 APERTURE LIST*
G04 APERTURE END LIST*
%TA.AperFunction,NonConductor*%
G36*
X70735459Y-44413903D02*
G01*
X70791846Y-44418425D01*
X70793809Y-44418599D01*
X70935125Y-44432197D01*
X70952993Y-44435227D01*
X71020175Y-44451670D01*
X71037566Y-44455927D01*
X71043402Y-44457505D01*
X71150294Y-44489175D01*
X71163571Y-44493931D01*
X71248070Y-44529662D01*
X71257152Y-44533938D01*
X71352907Y-44583796D01*
X71361652Y-44588804D01*
X71439356Y-44637527D01*
X71450867Y-44645677D01*
X71538105Y-44715084D01*
X71542735Y-44718952D01*
X71573271Y-44745738D01*
X71608223Y-44776399D01*
X71620955Y-44789302D01*
X71712357Y-44896351D01*
X71713652Y-44897893D01*
X71750618Y-44942615D01*
X71756718Y-44950627D01*
X74183281Y-48417145D01*
X74880343Y-49412947D01*
X74878355Y-49414339D01*
X74878664Y-49414654D01*
X74877900Y-49415291D01*
X75004992Y-49547008D01*
X75149901Y-49658826D01*
X75153912Y-49661076D01*
X75153914Y-49661077D01*
X75305504Y-49746101D01*
X75309540Y-49748365D01*
X75313840Y-49750009D01*
X75313845Y-49750011D01*
X75476211Y-49812076D01*
X75476215Y-49812077D01*
X75480510Y-49813719D01*
X75569841Y-49833607D01*
X75654682Y-49852495D01*
X75654687Y-49852496D01*
X75659171Y-49853494D01*
X75663757Y-49853829D01*
X75663761Y-49853830D01*
X75741408Y-49859509D01*
X75841719Y-49866846D01*
X75841719Y-49864007D01*
X75846473Y-49863500D01*
X222313294Y-49863500D01*
X222320781Y-49864167D01*
X222320781Y-49866831D01*
X222336615Y-49865673D01*
X222336616Y-49865673D01*
X222373415Y-49862981D01*
X222503326Y-49853480D01*
X222577566Y-49836951D01*
X222677495Y-49814704D01*
X222677500Y-49814703D01*
X222681985Y-49813704D01*
X222852954Y-49748352D01*
X223012591Y-49658813D01*
X223067339Y-49616567D01*
X223153853Y-49549809D01*
X223153856Y-49549806D01*
X223157498Y-49546996D01*
X223284589Y-49415281D01*
X223284102Y-49414875D01*
X223284426Y-49414539D01*
X223282156Y-49412950D01*
X224857471Y-47162500D01*
X232525376Y-47162500D01*
X232544835Y-47384921D01*
X232602622Y-47600585D01*
X232604944Y-47605565D01*
X232604945Y-47605567D01*
X232694655Y-47797950D01*
X232694658Y-47797955D01*
X232696981Y-47802937D01*
X232825044Y-47985830D01*
X232982920Y-48143706D01*
X232987428Y-48146863D01*
X232987431Y-48146865D01*
X233157311Y-48265816D01*
X233165813Y-48271769D01*
X233170795Y-48274092D01*
X233170800Y-48274095D01*
X233363183Y-48363805D01*
X233368165Y-48366128D01*
X233373473Y-48367550D01*
X233373475Y-48367551D01*
X233441050Y-48385658D01*
X233583829Y-48423915D01*
X233806250Y-48443374D01*
X234028671Y-48423915D01*
X234171450Y-48385658D01*
X234239025Y-48367551D01*
X234239027Y-48367550D01*
X234244335Y-48366128D01*
X234249317Y-48363805D01*
X234441700Y-48274095D01*
X234441705Y-48274092D01*
X234446687Y-48271769D01*
X234455189Y-48265816D01*
X234625069Y-48146865D01*
X234625072Y-48146863D01*
X234629580Y-48143706D01*
X234787456Y-47985830D01*
X234915519Y-47802937D01*
X234917842Y-47797955D01*
X234917845Y-47797950D01*
X235007555Y-47605567D01*
X235007556Y-47605565D01*
X235009878Y-47600585D01*
X235067665Y-47384921D01*
X235087124Y-47162500D01*
X235067665Y-46940079D01*
X235009878Y-46724415D01*
X235007555Y-46719433D01*
X234917845Y-46527050D01*
X234917842Y-46527045D01*
X234915519Y-46522063D01*
X234787456Y-46339170D01*
X234629580Y-46181294D01*
X234625072Y-46178137D01*
X234625069Y-46178135D01*
X234451196Y-46056388D01*
X234451194Y-46056387D01*
X234446687Y-46053231D01*
X234441705Y-46050908D01*
X234441700Y-46050905D01*
X234249317Y-45961195D01*
X234249315Y-45961194D01*
X234244335Y-45958872D01*
X234239027Y-45957450D01*
X234239025Y-45957449D01*
X234171450Y-45939342D01*
X234028671Y-45901085D01*
X233806250Y-45881626D01*
X233583829Y-45901085D01*
X233441050Y-45939342D01*
X233373475Y-45957449D01*
X233373473Y-45957450D01*
X233368165Y-45958872D01*
X233363185Y-45961194D01*
X233363183Y-45961195D01*
X233170800Y-46050905D01*
X233170795Y-46050908D01*
X233165813Y-46053231D01*
X233161306Y-46056387D01*
X233161304Y-46056388D01*
X232987431Y-46178135D01*
X232987428Y-46178137D01*
X232982920Y-46181294D01*
X232825044Y-46339170D01*
X232696981Y-46522063D01*
X232694658Y-46527045D01*
X232694655Y-46527050D01*
X232604945Y-46719433D01*
X232602622Y-46724415D01*
X232544835Y-46940079D01*
X232525376Y-47162500D01*
X224857471Y-47162500D01*
X226405949Y-44950389D01*
X226412052Y-44942372D01*
X226447594Y-44899371D01*
X226448899Y-44897818D01*
X226541778Y-44789061D01*
X226554492Y-44776177D01*
X226618968Y-44719620D01*
X226623604Y-44715746D01*
X226711671Y-44645677D01*
X226711991Y-44645422D01*
X226723492Y-44637280D01*
X226800322Y-44589105D01*
X226809051Y-44584107D01*
X226905903Y-44533678D01*
X226914980Y-44529403D01*
X226998535Y-44494072D01*
X227011785Y-44489325D01*
X227120103Y-44457232D01*
X227125863Y-44455675D01*
X227209195Y-44435279D01*
X227227064Y-44432248D01*
X227282256Y-44426931D01*
X227370625Y-44418419D01*
X227372443Y-44418258D01*
X227426742Y-44413903D01*
X227436813Y-44413500D01*
X240175387Y-44413500D01*
X240185459Y-44413903D01*
X240241846Y-44418425D01*
X240243809Y-44418599D01*
X240385125Y-44432197D01*
X240402993Y-44435227D01*
X240470175Y-44451670D01*
X240487566Y-44455927D01*
X240493402Y-44457505D01*
X240600294Y-44489175D01*
X240613571Y-44493931D01*
X240698070Y-44529662D01*
X240707152Y-44533938D01*
X240802907Y-44583796D01*
X240811652Y-44588804D01*
X240889356Y-44637527D01*
X240900867Y-44645677D01*
X240988105Y-44715084D01*
X240992735Y-44718952D01*
X241023271Y-44745738D01*
X241058223Y-44776399D01*
X241070955Y-44789302D01*
X241162357Y-44896351D01*
X241163652Y-44897893D01*
X241200618Y-44942615D01*
X241206718Y-44950627D01*
X243651305Y-48442895D01*
X244101718Y-49086342D01*
X244106925Y-49094420D01*
X244123661Y-49122701D01*
X244125222Y-49125417D01*
X244208825Y-49275234D01*
X244215730Y-49289701D01*
X244244071Y-49360314D01*
X244247310Y-49369369D01*
X244287213Y-49495968D01*
X244289751Y-49505240D01*
X244293049Y-49519391D01*
X244307031Y-49579382D01*
X244309668Y-49595181D01*
X244316396Y-49661061D01*
X244327011Y-49765013D01*
X244327292Y-49768167D01*
X244329883Y-49802058D01*
X244330250Y-49811663D01*
X244330250Y-126113663D01*
X244329883Y-126123270D01*
X244327404Y-126155690D01*
X244327118Y-126158896D01*
X244309608Y-126330194D01*
X244306972Y-126345982D01*
X244289925Y-126419122D01*
X244287386Y-126428398D01*
X244247089Y-126556248D01*
X244243851Y-126565301D01*
X244215890Y-126634970D01*
X244208989Y-126649430D01*
X244124679Y-126800545D01*
X244123083Y-126803323D01*
X244107114Y-126830309D01*
X244101900Y-126838397D01*
X241206551Y-130974611D01*
X241200448Y-130982628D01*
X241164906Y-131025629D01*
X241163601Y-131027182D01*
X241070722Y-131135939D01*
X241058008Y-131148823D01*
X240993535Y-131205378D01*
X240988896Y-131209254D01*
X240927537Y-131258074D01*
X240900509Y-131279578D01*
X240889008Y-131287720D01*
X240812178Y-131335895D01*
X240803449Y-131340893D01*
X240706597Y-131391322D01*
X240697520Y-131395597D01*
X240613965Y-131430928D01*
X240600715Y-131435675D01*
X240492397Y-131467768D01*
X240486637Y-131469325D01*
X240403305Y-131489721D01*
X240385436Y-131492752D01*
X240330244Y-131498069D01*
X240241875Y-131506581D01*
X240240057Y-131506742D01*
X240186795Y-131511014D01*
X240185758Y-131511097D01*
X240175687Y-131511500D01*
X227437113Y-131511500D01*
X227427040Y-131511097D01*
X227370654Y-131506575D01*
X227368691Y-131506401D01*
X227227375Y-131492803D01*
X227209507Y-131489773D01*
X227142325Y-131473330D01*
X227124934Y-131469073D01*
X227119098Y-131467495D01*
X227012206Y-131435825D01*
X226998927Y-131431068D01*
X226914430Y-131395338D01*
X226905348Y-131391062D01*
X226809591Y-131341203D01*
X226800848Y-131336196D01*
X226723144Y-131287473D01*
X226711633Y-131279323D01*
X226624395Y-131209916D01*
X226619765Y-131206048D01*
X226589229Y-131179262D01*
X226554277Y-131148601D01*
X226541545Y-131135698D01*
X226450143Y-131028649D01*
X226448848Y-131027107D01*
X226411882Y-130982385D01*
X226405777Y-130974366D01*
X225753748Y-130042895D01*
X224857471Y-128762500D01*
X232525376Y-128762500D01*
X232544835Y-128984921D01*
X232602622Y-129200585D01*
X232604944Y-129205565D01*
X232604945Y-129205567D01*
X232694655Y-129397950D01*
X232694658Y-129397955D01*
X232696981Y-129402937D01*
X232825044Y-129585830D01*
X232982920Y-129743706D01*
X232987428Y-129746863D01*
X232987431Y-129746865D01*
X233157311Y-129865816D01*
X233165813Y-129871769D01*
X233170795Y-129874092D01*
X233170800Y-129874095D01*
X233363183Y-129963805D01*
X233368165Y-129966128D01*
X233373473Y-129967550D01*
X233373475Y-129967551D01*
X233441050Y-129985658D01*
X233583829Y-130023915D01*
X233806250Y-130043374D01*
X234028671Y-130023915D01*
X234171450Y-129985658D01*
X234239025Y-129967551D01*
X234239027Y-129967550D01*
X234244335Y-129966128D01*
X234249317Y-129963805D01*
X234441700Y-129874095D01*
X234441705Y-129874092D01*
X234446687Y-129871769D01*
X234455189Y-129865816D01*
X234625069Y-129746865D01*
X234625072Y-129746863D01*
X234629580Y-129743706D01*
X234787456Y-129585830D01*
X234915519Y-129402937D01*
X234917842Y-129397955D01*
X234917845Y-129397950D01*
X235007555Y-129205567D01*
X235007556Y-129205565D01*
X235009878Y-129200585D01*
X235067665Y-128984921D01*
X235087124Y-128762500D01*
X235067665Y-128540079D01*
X235009878Y-128324415D01*
X235007555Y-128319433D01*
X234917845Y-128127050D01*
X234917842Y-128127045D01*
X234915519Y-128122063D01*
X234787456Y-127939170D01*
X234629580Y-127781294D01*
X234625072Y-127778137D01*
X234625069Y-127778135D01*
X234451196Y-127656388D01*
X234451194Y-127656387D01*
X234446687Y-127653231D01*
X234441705Y-127650908D01*
X234441700Y-127650905D01*
X234249317Y-127561195D01*
X234249315Y-127561194D01*
X234244335Y-127558872D01*
X234239027Y-127557450D01*
X234239025Y-127557449D01*
X234171450Y-127539342D01*
X234028671Y-127501085D01*
X233806250Y-127481626D01*
X233583829Y-127501085D01*
X233441050Y-127539342D01*
X233373475Y-127557449D01*
X233373473Y-127557450D01*
X233368165Y-127558872D01*
X233363185Y-127561194D01*
X233363183Y-127561195D01*
X233170800Y-127650905D01*
X233170795Y-127650908D01*
X233165813Y-127653231D01*
X233161306Y-127656387D01*
X233161304Y-127656388D01*
X232987431Y-127778135D01*
X232987428Y-127778137D01*
X232982920Y-127781294D01*
X232825044Y-127939170D01*
X232696981Y-128122063D01*
X232694658Y-128127045D01*
X232694655Y-128127050D01*
X232604945Y-128319433D01*
X232602622Y-128324415D01*
X232544835Y-128540079D01*
X232525376Y-128762500D01*
X224857471Y-128762500D01*
X223282156Y-126512050D01*
X223284156Y-126510650D01*
X223283847Y-126510336D01*
X223284600Y-126509709D01*
X223157508Y-126377992D01*
X223012599Y-126266174D01*
X223008586Y-126263923D01*
X222856979Y-126178889D01*
X222856977Y-126178888D01*
X222852960Y-126176635D01*
X222848660Y-126174991D01*
X222848655Y-126174989D01*
X222686289Y-126112924D01*
X222686285Y-126112923D01*
X222681990Y-126111281D01*
X222592659Y-126091393D01*
X222507818Y-126072505D01*
X222507813Y-126072504D01*
X222503329Y-126071506D01*
X222498743Y-126071171D01*
X222498739Y-126071170D01*
X222421092Y-126065491D01*
X222320781Y-126058154D01*
X222320781Y-126060993D01*
X222316027Y-126061500D01*
X75849206Y-126061500D01*
X75841719Y-126060833D01*
X75841719Y-126058169D01*
X75825885Y-126059327D01*
X75825884Y-126059327D01*
X75797296Y-126061418D01*
X75659174Y-126071520D01*
X75584934Y-126088049D01*
X75485005Y-126110296D01*
X75485000Y-126110297D01*
X75480515Y-126111296D01*
X75309546Y-126176648D01*
X75149909Y-126266187D01*
X75146270Y-126268995D01*
X75094047Y-126309293D01*
X75005002Y-126378004D01*
X74877911Y-126509719D01*
X74878398Y-126510125D01*
X74878072Y-126510463D01*
X74880343Y-126512053D01*
X71756551Y-130974611D01*
X71750448Y-130982628D01*
X71714906Y-131025629D01*
X71713601Y-131027182D01*
X71620722Y-131135939D01*
X71608008Y-131148823D01*
X71543535Y-131205378D01*
X71538896Y-131209254D01*
X71477537Y-131258074D01*
X71450509Y-131279578D01*
X71439008Y-131287720D01*
X71362178Y-131335895D01*
X71353449Y-131340893D01*
X71256597Y-131391322D01*
X71247520Y-131395597D01*
X71163965Y-131430928D01*
X71150715Y-131435675D01*
X71042397Y-131467768D01*
X71036637Y-131469325D01*
X70953305Y-131489721D01*
X70935436Y-131492752D01*
X70880244Y-131498069D01*
X70791875Y-131506581D01*
X70790057Y-131506742D01*
X70736795Y-131511014D01*
X70735758Y-131511097D01*
X70725687Y-131511500D01*
X57987113Y-131511500D01*
X57977040Y-131511097D01*
X57920654Y-131506575D01*
X57918691Y-131506401D01*
X57777375Y-131492803D01*
X57759507Y-131489773D01*
X57692325Y-131473330D01*
X57674934Y-131469073D01*
X57669098Y-131467495D01*
X57562206Y-131435825D01*
X57548927Y-131431068D01*
X57464430Y-131395338D01*
X57455348Y-131391062D01*
X57359591Y-131341203D01*
X57350848Y-131336196D01*
X57273144Y-131287473D01*
X57261633Y-131279323D01*
X57174395Y-131209916D01*
X57169765Y-131206048D01*
X57139229Y-131179262D01*
X57104277Y-131148601D01*
X57091545Y-131135698D01*
X57000143Y-131028649D01*
X56998848Y-131027107D01*
X56961882Y-130982385D01*
X56955777Y-130974366D01*
X56303748Y-130042895D01*
X55407471Y-128762500D01*
X63075376Y-128762500D01*
X63094835Y-128984921D01*
X63152622Y-129200585D01*
X63154944Y-129205565D01*
X63154945Y-129205567D01*
X63244655Y-129397950D01*
X63244658Y-129397955D01*
X63246981Y-129402937D01*
X63375044Y-129585830D01*
X63532920Y-129743706D01*
X63537428Y-129746863D01*
X63537431Y-129746865D01*
X63707311Y-129865816D01*
X63715813Y-129871769D01*
X63720795Y-129874092D01*
X63720800Y-129874095D01*
X63913183Y-129963805D01*
X63918165Y-129966128D01*
X63923473Y-129967550D01*
X63923475Y-129967551D01*
X63991050Y-129985658D01*
X64133829Y-130023915D01*
X64356250Y-130043374D01*
X64578671Y-130023915D01*
X64721450Y-129985658D01*
X64789025Y-129967551D01*
X64789027Y-129967550D01*
X64794335Y-129966128D01*
X64799317Y-129963805D01*
X64991700Y-129874095D01*
X64991705Y-129874092D01*
X64996687Y-129871769D01*
X65005189Y-129865816D01*
X65175069Y-129746865D01*
X65175072Y-129746863D01*
X65179580Y-129743706D01*
X65337456Y-129585830D01*
X65465519Y-129402937D01*
X65467842Y-129397955D01*
X65467845Y-129397950D01*
X65557555Y-129205567D01*
X65557556Y-129205565D01*
X65559878Y-129200585D01*
X65617665Y-128984921D01*
X65637124Y-128762500D01*
X65617665Y-128540079D01*
X65559878Y-128324415D01*
X65557555Y-128319433D01*
X65467845Y-128127050D01*
X65467842Y-128127045D01*
X65465519Y-128122063D01*
X65337456Y-127939170D01*
X65179580Y-127781294D01*
X65175072Y-127778137D01*
X65175069Y-127778135D01*
X65001196Y-127656388D01*
X65001194Y-127656387D01*
X64996687Y-127653231D01*
X64991705Y-127650908D01*
X64991700Y-127650905D01*
X64799317Y-127561195D01*
X64799315Y-127561194D01*
X64794335Y-127558872D01*
X64789027Y-127557450D01*
X64789025Y-127557449D01*
X64721450Y-127539342D01*
X64578671Y-127501085D01*
X64356250Y-127481626D01*
X64133829Y-127501085D01*
X63991050Y-127539342D01*
X63923475Y-127557449D01*
X63923473Y-127557450D01*
X63918165Y-127558872D01*
X63913185Y-127561194D01*
X63913183Y-127561195D01*
X63720800Y-127650905D01*
X63720795Y-127650908D01*
X63715813Y-127653231D01*
X63711306Y-127656387D01*
X63711304Y-127656388D01*
X63537431Y-127778135D01*
X63537428Y-127778137D01*
X63532920Y-127781294D01*
X63375044Y-127939170D01*
X63246981Y-128122063D01*
X63244658Y-128127045D01*
X63244655Y-128127050D01*
X63154945Y-128319433D01*
X63152622Y-128324415D01*
X63094835Y-128540079D01*
X63075376Y-128762500D01*
X55407471Y-128762500D01*
X54060777Y-126838651D01*
X54055570Y-126830572D01*
X54038839Y-126802299D01*
X54037278Y-126799583D01*
X53953675Y-126649766D01*
X53946770Y-126635299D01*
X53918429Y-126564686D01*
X53915190Y-126555631D01*
X53875287Y-126429032D01*
X53872748Y-126419755D01*
X53872601Y-126419122D01*
X53863945Y-126381987D01*
X53855469Y-126345618D01*
X53852832Y-126329819D01*
X53837419Y-126178889D01*
X53835489Y-126159987D01*
X53835208Y-126156833D01*
X53832617Y-126122942D01*
X53832250Y-126113337D01*
X53832250Y-123537500D01*
X96836418Y-123537500D01*
X96836500Y-123537698D01*
X96836735Y-123538265D01*
X96837500Y-123538582D01*
X96837698Y-123538500D01*
X110837302Y-123538500D01*
X110837500Y-123538582D01*
X110838265Y-123538265D01*
X110838500Y-123537698D01*
X110838582Y-123537500D01*
X113505168Y-123537500D01*
X113505250Y-123537698D01*
X113505485Y-123538265D01*
X113506250Y-123538582D01*
X113506448Y-123538500D01*
X184656052Y-123538500D01*
X184656250Y-123538582D01*
X184657015Y-123538265D01*
X184657250Y-123537698D01*
X184657332Y-123537500D01*
X187323918Y-123537500D01*
X187324000Y-123537698D01*
X187324235Y-123538265D01*
X187325000Y-123538582D01*
X187325198Y-123538500D01*
X201324802Y-123538500D01*
X201325000Y-123538582D01*
X201325765Y-123538265D01*
X201326000Y-123537698D01*
X201326082Y-123537500D01*
X201326000Y-123537302D01*
X201326000Y-109537698D01*
X201326082Y-109537500D01*
X201325765Y-109536735D01*
X201325198Y-109536500D01*
X201325000Y-109536418D01*
X201324802Y-109536500D01*
X200333250Y-109536500D01*
X200265129Y-109516498D01*
X200218636Y-109462842D01*
X200207250Y-109410500D01*
X200207250Y-108537698D01*
X200207332Y-108537500D01*
X200207015Y-108536735D01*
X200206448Y-108536500D01*
X200206250Y-108536418D01*
X200206052Y-108536500D01*
X193206448Y-108536500D01*
X193206250Y-108536418D01*
X193206052Y-108536500D01*
X193205485Y-108536735D01*
X193205168Y-108537500D01*
X193205250Y-108537698D01*
X193205250Y-109410500D01*
X193185248Y-109478621D01*
X193131592Y-109525114D01*
X193079250Y-109536500D01*
X187325198Y-109536500D01*
X187325000Y-109536418D01*
X187324802Y-109536500D01*
X187324235Y-109536735D01*
X187323918Y-109537500D01*
X187324000Y-109537698D01*
X187324000Y-123537302D01*
X187323918Y-123537500D01*
X184657332Y-123537500D01*
X184657250Y-123537302D01*
X184657250Y-109537698D01*
X184657332Y-109537500D01*
X184657015Y-109536735D01*
X184656448Y-109536500D01*
X184656250Y-109536418D01*
X184656052Y-109536500D01*
X162233250Y-109536500D01*
X162165129Y-109516498D01*
X162118636Y-109462842D01*
X162107250Y-109410500D01*
X162107250Y-108537698D01*
X162107332Y-108537500D01*
X162107015Y-108536735D01*
X162106448Y-108536500D01*
X162106250Y-108536418D01*
X162106052Y-108536500D01*
X155106448Y-108536500D01*
X155106250Y-108536418D01*
X155106052Y-108536500D01*
X155105485Y-108536735D01*
X155105168Y-108537500D01*
X155105250Y-108537698D01*
X155105250Y-109410500D01*
X155085248Y-109478621D01*
X155031592Y-109525114D01*
X154979250Y-109536500D01*
X143183250Y-109536500D01*
X143115129Y-109516498D01*
X143068636Y-109462842D01*
X143057250Y-109410500D01*
X143057250Y-108537698D01*
X143057332Y-108537500D01*
X143057015Y-108536735D01*
X143056448Y-108536500D01*
X143056250Y-108536418D01*
X143056052Y-108536500D01*
X136056448Y-108536500D01*
X136056250Y-108536418D01*
X136056052Y-108536500D01*
X136055485Y-108536735D01*
X136055168Y-108537500D01*
X136055250Y-108537698D01*
X136055250Y-109410500D01*
X136035248Y-109478621D01*
X135981592Y-109525114D01*
X135929250Y-109536500D01*
X113506448Y-109536500D01*
X113506250Y-109536418D01*
X113506052Y-109536500D01*
X113505485Y-109536735D01*
X113505168Y-109537500D01*
X113505250Y-109537698D01*
X113505250Y-123537302D01*
X113505168Y-123537500D01*
X110838582Y-123537500D01*
X110838500Y-123537302D01*
X110838500Y-109537698D01*
X110838582Y-109537500D01*
X110838265Y-109536735D01*
X110837698Y-109536500D01*
X110837500Y-109536418D01*
X110837302Y-109536500D01*
X105083250Y-109536500D01*
X105015129Y-109516498D01*
X104968636Y-109462842D01*
X104957250Y-109410500D01*
X104957250Y-108537698D01*
X104957332Y-108537500D01*
X104957015Y-108536735D01*
X104956448Y-108536500D01*
X104956250Y-108536418D01*
X104956052Y-108536500D01*
X97956448Y-108536500D01*
X97956250Y-108536418D01*
X97956052Y-108536500D01*
X97955485Y-108536735D01*
X97955168Y-108537500D01*
X97955250Y-108537698D01*
X97955250Y-109410500D01*
X97935248Y-109478621D01*
X97881592Y-109525114D01*
X97829250Y-109536500D01*
X96837698Y-109536500D01*
X96837500Y-109536418D01*
X96837302Y-109536500D01*
X96836735Y-109536735D01*
X96836418Y-109537500D01*
X96836500Y-109537698D01*
X96836500Y-123537302D01*
X96836418Y-123537500D01*
X53832250Y-123537500D01*
X53832250Y-104487500D01*
X61117668Y-104487500D01*
X61117750Y-104487698D01*
X61117985Y-104488265D01*
X61118750Y-104488582D01*
X61118948Y-104488500D01*
X75118552Y-104488500D01*
X75118750Y-104488582D01*
X75119515Y-104488265D01*
X75119750Y-104487698D01*
X75119832Y-104487500D01*
X84930168Y-104487500D01*
X84930250Y-104487698D01*
X84930485Y-104488265D01*
X84931250Y-104488582D01*
X84931448Y-104488500D01*
X98931052Y-104488500D01*
X98931250Y-104488582D01*
X98932015Y-104488265D01*
X98932250Y-104487698D01*
X98932332Y-104487500D01*
X103980168Y-104487500D01*
X103980250Y-104487698D01*
X103980485Y-104488265D01*
X103981250Y-104488582D01*
X103981448Y-104488500D01*
X117981052Y-104488500D01*
X117981250Y-104488582D01*
X117982015Y-104488265D01*
X117982250Y-104487698D01*
X117982332Y-104487500D01*
X123030168Y-104487500D01*
X123030250Y-104487698D01*
X123030485Y-104488265D01*
X123031250Y-104488582D01*
X123031448Y-104488500D01*
X137031052Y-104488500D01*
X137031250Y-104488582D01*
X137032015Y-104488265D01*
X137032250Y-104487698D01*
X137032332Y-104487500D01*
X142080168Y-104487500D01*
X142080250Y-104487698D01*
X142080485Y-104488265D01*
X142081250Y-104488582D01*
X142081448Y-104488500D01*
X156081052Y-104488500D01*
X156081250Y-104488582D01*
X156082015Y-104488265D01*
X156082250Y-104487698D01*
X156082332Y-104487500D01*
X161130168Y-104487500D01*
X161130250Y-104487698D01*
X161130485Y-104488265D01*
X161131250Y-104488582D01*
X161131448Y-104488500D01*
X175131052Y-104488500D01*
X175131250Y-104488582D01*
X175132015Y-104488265D01*
X175132250Y-104487698D01*
X175132332Y-104487500D01*
X180180168Y-104487500D01*
X180180250Y-104487698D01*
X180180485Y-104488265D01*
X180181250Y-104488582D01*
X180181448Y-104488500D01*
X194181052Y-104488500D01*
X194181250Y-104488582D01*
X194182015Y-104488265D01*
X194182250Y-104487698D01*
X194182332Y-104487500D01*
X199230168Y-104487500D01*
X199230250Y-104487698D01*
X199230485Y-104488265D01*
X199231250Y-104488582D01*
X199231448Y-104488500D01*
X213231052Y-104488500D01*
X213231250Y-104488582D01*
X213232015Y-104488265D01*
X213232250Y-104487698D01*
X213232332Y-104487500D01*
X223042668Y-104487500D01*
X223042750Y-104487698D01*
X223042985Y-104488265D01*
X223043750Y-104488582D01*
X223043948Y-104488500D01*
X237043552Y-104488500D01*
X237043750Y-104488582D01*
X237044515Y-104488265D01*
X237044750Y-104487698D01*
X237044832Y-104487500D01*
X237044750Y-104487302D01*
X237044750Y-90487698D01*
X237044832Y-90487500D01*
X237044515Y-90486735D01*
X237043948Y-90486500D01*
X237043750Y-90486418D01*
X237043552Y-90486500D01*
X223043948Y-90486500D01*
X223043750Y-90486418D01*
X223043552Y-90486500D01*
X223042985Y-90486735D01*
X223042668Y-90487500D01*
X223042750Y-90487698D01*
X223042750Y-104487302D01*
X223042668Y-104487500D01*
X213232332Y-104487500D01*
X213232250Y-104487302D01*
X213232250Y-90487698D01*
X213232332Y-90487500D01*
X213232015Y-90486735D01*
X213231448Y-90486500D01*
X213231250Y-90486418D01*
X213231052Y-90486500D01*
X199231448Y-90486500D01*
X199231250Y-90486418D01*
X199231052Y-90486500D01*
X199230485Y-90486735D01*
X199230168Y-90487500D01*
X199230250Y-90487698D01*
X199230250Y-104487302D01*
X199230168Y-104487500D01*
X194182332Y-104487500D01*
X194182250Y-104487302D01*
X194182250Y-90487698D01*
X194182332Y-90487500D01*
X194182015Y-90486735D01*
X194181448Y-90486500D01*
X194181250Y-90486418D01*
X194181052Y-90486500D01*
X180181448Y-90486500D01*
X180181250Y-90486418D01*
X180181052Y-90486500D01*
X180180485Y-90486735D01*
X180180168Y-90487500D01*
X180180250Y-90487698D01*
X180180250Y-104487302D01*
X180180168Y-104487500D01*
X175132332Y-104487500D01*
X175132250Y-104487302D01*
X175132250Y-90487698D01*
X175132332Y-90487500D01*
X175132015Y-90486735D01*
X175131448Y-90486500D01*
X175131250Y-90486418D01*
X175131052Y-90486500D01*
X161131448Y-90486500D01*
X161131250Y-90486418D01*
X161131052Y-90486500D01*
X161130485Y-90486735D01*
X161130168Y-90487500D01*
X161130250Y-90487698D01*
X161130250Y-104487302D01*
X161130168Y-104487500D01*
X156082332Y-104487500D01*
X156082250Y-104487302D01*
X156082250Y-90487698D01*
X156082332Y-90487500D01*
X156082015Y-90486735D01*
X156081448Y-90486500D01*
X156081250Y-90486418D01*
X156081052Y-90486500D01*
X142081448Y-90486500D01*
X142081250Y-90486418D01*
X142081052Y-90486500D01*
X142080485Y-90486735D01*
X142080168Y-90487500D01*
X142080250Y-90487698D01*
X142080250Y-104487302D01*
X142080168Y-104487500D01*
X137032332Y-104487500D01*
X137032250Y-104487302D01*
X137032250Y-90487698D01*
X137032332Y-90487500D01*
X137032015Y-90486735D01*
X137031448Y-90486500D01*
X137031250Y-90486418D01*
X137031052Y-90486500D01*
X123031448Y-90486500D01*
X123031250Y-90486418D01*
X123031052Y-90486500D01*
X123030485Y-90486735D01*
X123030168Y-90487500D01*
X123030250Y-90487698D01*
X123030250Y-104487302D01*
X123030168Y-104487500D01*
X117982332Y-104487500D01*
X117982250Y-104487302D01*
X117982250Y-90487698D01*
X117982332Y-90487500D01*
X117982015Y-90486735D01*
X117981448Y-90486500D01*
X117981250Y-90486418D01*
X117981052Y-90486500D01*
X103981448Y-90486500D01*
X103981250Y-90486418D01*
X103981052Y-90486500D01*
X103980485Y-90486735D01*
X103980168Y-90487500D01*
X103980250Y-90487698D01*
X103980250Y-104487302D01*
X103980168Y-104487500D01*
X98932332Y-104487500D01*
X98932250Y-104487302D01*
X98932250Y-90487698D01*
X98932332Y-90487500D01*
X98932015Y-90486735D01*
X98931448Y-90486500D01*
X98931250Y-90486418D01*
X98931052Y-90486500D01*
X84931448Y-90486500D01*
X84931250Y-90486418D01*
X84931052Y-90486500D01*
X84930485Y-90486735D01*
X84930168Y-90487500D01*
X84930250Y-90487698D01*
X84930250Y-104487302D01*
X84930168Y-104487500D01*
X75119832Y-104487500D01*
X75119750Y-104487302D01*
X75119750Y-90487698D01*
X75119832Y-90487500D01*
X75119515Y-90486735D01*
X75118948Y-90486500D01*
X75118750Y-90486418D01*
X75118552Y-90486500D01*
X61118948Y-90486500D01*
X61118750Y-90486418D01*
X61118552Y-90486500D01*
X61117985Y-90486735D01*
X61117668Y-90487500D01*
X61117750Y-90487698D01*
X61117750Y-104487302D01*
X61117668Y-104487500D01*
X53832250Y-104487500D01*
X53832250Y-85437500D01*
X56355168Y-85437500D01*
X56355250Y-85437698D01*
X56355485Y-85438265D01*
X56356250Y-85438582D01*
X56356448Y-85438500D01*
X70356052Y-85438500D01*
X70356250Y-85438582D01*
X70357015Y-85438265D01*
X70357250Y-85437698D01*
X70357332Y-85437500D01*
X75405168Y-85437500D01*
X75405250Y-85437698D01*
X75405485Y-85438265D01*
X75406250Y-85438582D01*
X75406448Y-85438500D01*
X89406052Y-85438500D01*
X89406250Y-85438582D01*
X89407015Y-85438265D01*
X89407250Y-85437698D01*
X89407332Y-85437500D01*
X94455168Y-85437500D01*
X94455250Y-85437698D01*
X94455485Y-85438265D01*
X94456250Y-85438582D01*
X94456448Y-85438500D01*
X108456052Y-85438500D01*
X108456250Y-85438582D01*
X108457015Y-85438265D01*
X108457250Y-85437698D01*
X108457332Y-85437500D01*
X113505168Y-85437500D01*
X113505250Y-85437698D01*
X113505485Y-85438265D01*
X113506250Y-85438582D01*
X113506448Y-85438500D01*
X127506052Y-85438500D01*
X127506250Y-85438582D01*
X127507015Y-85438265D01*
X127507250Y-85437698D01*
X127507332Y-85437500D01*
X132555168Y-85437500D01*
X132555250Y-85437698D01*
X132555485Y-85438265D01*
X132556250Y-85438582D01*
X132556448Y-85438500D01*
X146556052Y-85438500D01*
X146556250Y-85438582D01*
X146557015Y-85438265D01*
X146557250Y-85437698D01*
X146557332Y-85437500D01*
X151605168Y-85437500D01*
X151605250Y-85437698D01*
X151605485Y-85438265D01*
X151606250Y-85438582D01*
X151606448Y-85438500D01*
X165606052Y-85438500D01*
X165606250Y-85438582D01*
X165607015Y-85438265D01*
X165607250Y-85437698D01*
X165607332Y-85437500D01*
X170655168Y-85437500D01*
X170655250Y-85437698D01*
X170655485Y-85438265D01*
X170656250Y-85438582D01*
X170656448Y-85438500D01*
X184656052Y-85438500D01*
X184656250Y-85438582D01*
X184657015Y-85438265D01*
X184657250Y-85437698D01*
X184657332Y-85437500D01*
X189705168Y-85437500D01*
X189705250Y-85437698D01*
X189705485Y-85438265D01*
X189706250Y-85438582D01*
X189706448Y-85438500D01*
X203706052Y-85438500D01*
X203706250Y-85438582D01*
X203707015Y-85438265D01*
X203707250Y-85437698D01*
X203707332Y-85437500D01*
X208755168Y-85437500D01*
X208755250Y-85437698D01*
X208755485Y-85438265D01*
X208756250Y-85438582D01*
X208756448Y-85438500D01*
X222756052Y-85438500D01*
X222756250Y-85438582D01*
X222757015Y-85438265D01*
X222757250Y-85437698D01*
X222757332Y-85437500D01*
X227805168Y-85437500D01*
X227805250Y-85437698D01*
X227805485Y-85438265D01*
X227806250Y-85438582D01*
X227806448Y-85438500D01*
X241806052Y-85438500D01*
X241806250Y-85438582D01*
X241807015Y-85438265D01*
X241807250Y-85437698D01*
X241807332Y-85437500D01*
X241807250Y-85437302D01*
X241807250Y-71437698D01*
X241807332Y-71437500D01*
X241807015Y-71436735D01*
X241806448Y-71436500D01*
X241806250Y-71436418D01*
X241806052Y-71436500D01*
X227806448Y-71436500D01*
X227806250Y-71436418D01*
X227806052Y-71436500D01*
X227805485Y-71436735D01*
X227805168Y-71437500D01*
X227805250Y-71437698D01*
X227805250Y-85437302D01*
X227805168Y-85437500D01*
X222757332Y-85437500D01*
X222757250Y-85437302D01*
X222757250Y-71437698D01*
X222757332Y-71437500D01*
X222757015Y-71436735D01*
X222756448Y-71436500D01*
X222756250Y-71436418D01*
X222756052Y-71436500D01*
X208756448Y-71436500D01*
X208756250Y-71436418D01*
X208756052Y-71436500D01*
X208755485Y-71436735D01*
X208755168Y-71437500D01*
X208755250Y-71437698D01*
X208755250Y-85437302D01*
X208755168Y-85437500D01*
X203707332Y-85437500D01*
X203707250Y-85437302D01*
X203707250Y-71437698D01*
X203707332Y-71437500D01*
X203707015Y-71436735D01*
X203706448Y-71436500D01*
X203706250Y-71436418D01*
X203706052Y-71436500D01*
X189706448Y-71436500D01*
X189706250Y-71436418D01*
X189706052Y-71436500D01*
X189705485Y-71436735D01*
X189705168Y-71437500D01*
X189705250Y-71437698D01*
X189705250Y-85437302D01*
X189705168Y-85437500D01*
X184657332Y-85437500D01*
X184657250Y-85437302D01*
X184657250Y-71437698D01*
X184657332Y-71437500D01*
X184657015Y-71436735D01*
X184656448Y-71436500D01*
X184656250Y-71436418D01*
X184656052Y-71436500D01*
X170656448Y-71436500D01*
X170656250Y-71436418D01*
X170656052Y-71436500D01*
X170655485Y-71436735D01*
X170655168Y-71437500D01*
X170655250Y-71437698D01*
X170655250Y-85437302D01*
X170655168Y-85437500D01*
X165607332Y-85437500D01*
X165607250Y-85437302D01*
X165607250Y-71437698D01*
X165607332Y-71437500D01*
X165607015Y-71436735D01*
X165606448Y-71436500D01*
X165606250Y-71436418D01*
X165606052Y-71436500D01*
X151606448Y-71436500D01*
X151606250Y-71436418D01*
X151606052Y-71436500D01*
X151605485Y-71436735D01*
X151605168Y-71437500D01*
X151605250Y-71437698D01*
X151605250Y-85437302D01*
X151605168Y-85437500D01*
X146557332Y-85437500D01*
X146557250Y-85437302D01*
X146557250Y-71437698D01*
X146557332Y-71437500D01*
X146557015Y-71436735D01*
X146556448Y-71436500D01*
X146556250Y-71436418D01*
X146556052Y-71436500D01*
X132556448Y-71436500D01*
X132556250Y-71436418D01*
X132556052Y-71436500D01*
X132555485Y-71436735D01*
X132555168Y-71437500D01*
X132555250Y-71437698D01*
X132555250Y-85437302D01*
X132555168Y-85437500D01*
X127507332Y-85437500D01*
X127507250Y-85437302D01*
X127507250Y-71437698D01*
X127507332Y-71437500D01*
X127507015Y-71436735D01*
X127506448Y-71436500D01*
X127506250Y-71436418D01*
X127506052Y-71436500D01*
X113506448Y-71436500D01*
X113506250Y-71436418D01*
X113506052Y-71436500D01*
X113505485Y-71436735D01*
X113505168Y-71437500D01*
X113505250Y-71437698D01*
X113505250Y-85437302D01*
X113505168Y-85437500D01*
X108457332Y-85437500D01*
X108457250Y-85437302D01*
X108457250Y-71437698D01*
X108457332Y-71437500D01*
X108457015Y-71436735D01*
X108456448Y-71436500D01*
X108456250Y-71436418D01*
X108456052Y-71436500D01*
X94456448Y-71436500D01*
X94456250Y-71436418D01*
X94456052Y-71436500D01*
X94455485Y-71436735D01*
X94455168Y-71437500D01*
X94455250Y-71437698D01*
X94455250Y-85437302D01*
X94455168Y-85437500D01*
X89407332Y-85437500D01*
X89407250Y-85437302D01*
X89407250Y-71437698D01*
X89407332Y-71437500D01*
X89407015Y-71436735D01*
X89406448Y-71436500D01*
X89406250Y-71436418D01*
X89406052Y-71436500D01*
X75406448Y-71436500D01*
X75406250Y-71436418D01*
X75406052Y-71436500D01*
X75405485Y-71436735D01*
X75405168Y-71437500D01*
X75405250Y-71437698D01*
X75405250Y-85437302D01*
X75405168Y-85437500D01*
X70357332Y-85437500D01*
X70357250Y-85437302D01*
X70357250Y-71437698D01*
X70357332Y-71437500D01*
X70357015Y-71436735D01*
X70356448Y-71436500D01*
X70356250Y-71436418D01*
X70356052Y-71436500D01*
X56356448Y-71436500D01*
X56356250Y-71436418D01*
X56356052Y-71436500D01*
X56355485Y-71436735D01*
X56355168Y-71437500D01*
X56355250Y-71437698D01*
X56355250Y-85437302D01*
X56355168Y-85437500D01*
X53832250Y-85437500D01*
X53832250Y-66387500D01*
X56355168Y-66387500D01*
X56355250Y-66387698D01*
X56355485Y-66388265D01*
X56356250Y-66388582D01*
X56356448Y-66388500D01*
X70356052Y-66388500D01*
X70356250Y-66388582D01*
X70357015Y-66388265D01*
X70357250Y-66387698D01*
X70357332Y-66387500D01*
X75405168Y-66387500D01*
X75405250Y-66387698D01*
X75405485Y-66388265D01*
X75406250Y-66388582D01*
X75406448Y-66388500D01*
X89406052Y-66388500D01*
X89406250Y-66388582D01*
X89407015Y-66388265D01*
X89407250Y-66387698D01*
X89407332Y-66387500D01*
X94455168Y-66387500D01*
X94455250Y-66387698D01*
X94455485Y-66388265D01*
X94456250Y-66388582D01*
X94456448Y-66388500D01*
X108456052Y-66388500D01*
X108456250Y-66388582D01*
X108457015Y-66388265D01*
X108457250Y-66387698D01*
X108457332Y-66387500D01*
X113505168Y-66387500D01*
X113505250Y-66387698D01*
X113505485Y-66388265D01*
X113506250Y-66388582D01*
X113506448Y-66388500D01*
X127506052Y-66388500D01*
X127506250Y-66388582D01*
X127507015Y-66388265D01*
X127507250Y-66387698D01*
X127507332Y-66387500D01*
X132555168Y-66387500D01*
X132555250Y-66387698D01*
X132555485Y-66388265D01*
X132556250Y-66388582D01*
X132556448Y-66388500D01*
X146556052Y-66388500D01*
X146556250Y-66388582D01*
X146557015Y-66388265D01*
X146557250Y-66387698D01*
X146557332Y-66387500D01*
X151605168Y-66387500D01*
X151605250Y-66387698D01*
X151605485Y-66388265D01*
X151606250Y-66388582D01*
X151606448Y-66388500D01*
X165606052Y-66388500D01*
X165606250Y-66388582D01*
X165607015Y-66388265D01*
X165607250Y-66387698D01*
X165607332Y-66387500D01*
X170655168Y-66387500D01*
X170655250Y-66387698D01*
X170655485Y-66388265D01*
X170656250Y-66388582D01*
X170656448Y-66388500D01*
X184656052Y-66388500D01*
X184656250Y-66388582D01*
X184657015Y-66388265D01*
X184657250Y-66387698D01*
X184657332Y-66387500D01*
X189705168Y-66387500D01*
X189705250Y-66387698D01*
X189705485Y-66388265D01*
X189706250Y-66388582D01*
X189706448Y-66388500D01*
X203706052Y-66388500D01*
X203706250Y-66388582D01*
X203707015Y-66388265D01*
X203707250Y-66387698D01*
X203707332Y-66387500D01*
X208755168Y-66387500D01*
X208755250Y-66387698D01*
X208755485Y-66388265D01*
X208756250Y-66388582D01*
X208756448Y-66388500D01*
X222756052Y-66388500D01*
X222756250Y-66388582D01*
X222757015Y-66388265D01*
X222757250Y-66387698D01*
X222757332Y-66387500D01*
X227805168Y-66387500D01*
X227805250Y-66387698D01*
X227805485Y-66388265D01*
X227806250Y-66388582D01*
X227806448Y-66388500D01*
X241806052Y-66388500D01*
X241806250Y-66388582D01*
X241807015Y-66388265D01*
X241807250Y-66387698D01*
X241807332Y-66387500D01*
X241807250Y-66387302D01*
X241807250Y-52387698D01*
X241807332Y-52387500D01*
X241807015Y-52386735D01*
X241806448Y-52386500D01*
X241806250Y-52386418D01*
X241806052Y-52386500D01*
X227806448Y-52386500D01*
X227806250Y-52386418D01*
X227806052Y-52386500D01*
X227805485Y-52386735D01*
X227805168Y-52387500D01*
X227805250Y-52387698D01*
X227805250Y-66387302D01*
X227805168Y-66387500D01*
X222757332Y-66387500D01*
X222757250Y-66387302D01*
X222757250Y-52387698D01*
X222757332Y-52387500D01*
X222757015Y-52386735D01*
X222756448Y-52386500D01*
X222756250Y-52386418D01*
X222756052Y-52386500D01*
X208756448Y-52386500D01*
X208756250Y-52386418D01*
X208756052Y-52386500D01*
X208755485Y-52386735D01*
X208755168Y-52387500D01*
X208755250Y-52387698D01*
X208755250Y-66387302D01*
X208755168Y-66387500D01*
X203707332Y-66387500D01*
X203707250Y-66387302D01*
X203707250Y-52387698D01*
X203707332Y-52387500D01*
X203707015Y-52386735D01*
X203706448Y-52386500D01*
X203706250Y-52386418D01*
X203706052Y-52386500D01*
X189706448Y-52386500D01*
X189706250Y-52386418D01*
X189706052Y-52386500D01*
X189705485Y-52386735D01*
X189705168Y-52387500D01*
X189705250Y-52387698D01*
X189705250Y-66387302D01*
X189705168Y-66387500D01*
X184657332Y-66387500D01*
X184657250Y-66387302D01*
X184657250Y-52387698D01*
X184657332Y-52387500D01*
X184657015Y-52386735D01*
X184656448Y-52386500D01*
X184656250Y-52386418D01*
X184656052Y-52386500D01*
X170656448Y-52386500D01*
X170656250Y-52386418D01*
X170656052Y-52386500D01*
X170655485Y-52386735D01*
X170655168Y-52387500D01*
X170655250Y-52387698D01*
X170655250Y-66387302D01*
X170655168Y-66387500D01*
X165607332Y-66387500D01*
X165607250Y-66387302D01*
X165607250Y-52387698D01*
X165607332Y-52387500D01*
X165607015Y-52386735D01*
X165606448Y-52386500D01*
X165606250Y-52386418D01*
X165606052Y-52386500D01*
X151606448Y-52386500D01*
X151606250Y-52386418D01*
X151606052Y-52386500D01*
X151605485Y-52386735D01*
X151605168Y-52387500D01*
X151605250Y-52387698D01*
X151605250Y-66387302D01*
X151605168Y-66387500D01*
X146557332Y-66387500D01*
X146557250Y-66387302D01*
X146557250Y-52387698D01*
X146557332Y-52387500D01*
X146557015Y-52386735D01*
X146556448Y-52386500D01*
X146556250Y-52386418D01*
X146556052Y-52386500D01*
X132556448Y-52386500D01*
X132556250Y-52386418D01*
X132556052Y-52386500D01*
X132555485Y-52386735D01*
X132555168Y-52387500D01*
X132555250Y-52387698D01*
X132555250Y-66387302D01*
X132555168Y-66387500D01*
X127507332Y-66387500D01*
X127507250Y-66387302D01*
X127507250Y-52387698D01*
X127507332Y-52387500D01*
X127507015Y-52386735D01*
X127506448Y-52386500D01*
X127506250Y-52386418D01*
X127506052Y-52386500D01*
X113506448Y-52386500D01*
X113506250Y-52386418D01*
X113506052Y-52386500D01*
X113505485Y-52386735D01*
X113505168Y-52387500D01*
X113505250Y-52387698D01*
X113505250Y-66387302D01*
X113505168Y-66387500D01*
X108457332Y-66387500D01*
X108457250Y-66387302D01*
X108457250Y-52387698D01*
X108457332Y-52387500D01*
X108457015Y-52386735D01*
X108456448Y-52386500D01*
X108456250Y-52386418D01*
X108456052Y-52386500D01*
X94456448Y-52386500D01*
X94456250Y-52386418D01*
X94456052Y-52386500D01*
X94455485Y-52386735D01*
X94455168Y-52387500D01*
X94455250Y-52387698D01*
X94455250Y-66387302D01*
X94455168Y-66387500D01*
X89407332Y-66387500D01*
X89407250Y-66387302D01*
X89407250Y-52387698D01*
X89407332Y-52387500D01*
X89407015Y-52386735D01*
X89406448Y-52386500D01*
X89406250Y-52386418D01*
X89406052Y-52386500D01*
X75406448Y-52386500D01*
X75406250Y-52386418D01*
X75406052Y-52386500D01*
X75405485Y-52386735D01*
X75405168Y-52387500D01*
X75405250Y-52387698D01*
X75405250Y-66387302D01*
X75405168Y-66387500D01*
X70357332Y-66387500D01*
X70357250Y-66387302D01*
X70357250Y-52387698D01*
X70357332Y-52387500D01*
X70357015Y-52386735D01*
X70356448Y-52386500D01*
X70356250Y-52386418D01*
X70356052Y-52386500D01*
X56356448Y-52386500D01*
X56356250Y-52386418D01*
X56356052Y-52386500D01*
X56355485Y-52386735D01*
X56355168Y-52387500D01*
X56355250Y-52387698D01*
X56355250Y-66387302D01*
X56355168Y-66387500D01*
X53832250Y-66387500D01*
X53832250Y-49811337D01*
X53832617Y-49801730D01*
X53835096Y-49769310D01*
X53835382Y-49766104D01*
X53852892Y-49594806D01*
X53855528Y-49579018D01*
X53872575Y-49505878D01*
X53875114Y-49496602D01*
X53915411Y-49368752D01*
X53918649Y-49359699D01*
X53946610Y-49290030D01*
X53953511Y-49275570D01*
X54037821Y-49124455D01*
X54039417Y-49121677D01*
X54055386Y-49094691D01*
X54060600Y-49086603D01*
X55407472Y-47162500D01*
X63075376Y-47162500D01*
X63094835Y-47384921D01*
X63152622Y-47600585D01*
X63154944Y-47605565D01*
X63154945Y-47605567D01*
X63244655Y-47797950D01*
X63244658Y-47797955D01*
X63246981Y-47802937D01*
X63375044Y-47985830D01*
X63532920Y-48143706D01*
X63537428Y-48146863D01*
X63537431Y-48146865D01*
X63707311Y-48265816D01*
X63715813Y-48271769D01*
X63720795Y-48274092D01*
X63720800Y-48274095D01*
X63913183Y-48363805D01*
X63918165Y-48366128D01*
X63923473Y-48367550D01*
X63923475Y-48367551D01*
X63991050Y-48385658D01*
X64133829Y-48423915D01*
X64356250Y-48443374D01*
X64578671Y-48423915D01*
X64721450Y-48385658D01*
X64789025Y-48367551D01*
X64789027Y-48367550D01*
X64794335Y-48366128D01*
X64799317Y-48363805D01*
X64991700Y-48274095D01*
X64991705Y-48274092D01*
X64996687Y-48271769D01*
X65005189Y-48265816D01*
X65175069Y-48146865D01*
X65175072Y-48146863D01*
X65179580Y-48143706D01*
X65337456Y-47985830D01*
X65465519Y-47802937D01*
X65467842Y-47797955D01*
X65467845Y-47797950D01*
X65557555Y-47605567D01*
X65557556Y-47605565D01*
X65559878Y-47600585D01*
X65617665Y-47384921D01*
X65637124Y-47162500D01*
X65617665Y-46940079D01*
X65559878Y-46724415D01*
X65557555Y-46719433D01*
X65467845Y-46527050D01*
X65467842Y-46527045D01*
X65465519Y-46522063D01*
X65337456Y-46339170D01*
X65179580Y-46181294D01*
X65175072Y-46178137D01*
X65175069Y-46178135D01*
X65001196Y-46056388D01*
X65001194Y-46056387D01*
X64996687Y-46053231D01*
X64991705Y-46050908D01*
X64991700Y-46050905D01*
X64799317Y-45961195D01*
X64799315Y-45961194D01*
X64794335Y-45958872D01*
X64789027Y-45957450D01*
X64789025Y-45957449D01*
X64721450Y-45939342D01*
X64578671Y-45901085D01*
X64356250Y-45881626D01*
X64133829Y-45901085D01*
X63991050Y-45939342D01*
X63923475Y-45957449D01*
X63923473Y-45957450D01*
X63918165Y-45958872D01*
X63913185Y-45961194D01*
X63913183Y-45961195D01*
X63720800Y-46050905D01*
X63720795Y-46050908D01*
X63715813Y-46053231D01*
X63711306Y-46056387D01*
X63711304Y-46056388D01*
X63537431Y-46178135D01*
X63537428Y-46178137D01*
X63532920Y-46181294D01*
X63375044Y-46339170D01*
X63246981Y-46522063D01*
X63244658Y-46527045D01*
X63244655Y-46527050D01*
X63154945Y-46719433D01*
X63152622Y-46724415D01*
X63094835Y-46940079D01*
X63075376Y-47162500D01*
X55407472Y-47162500D01*
X56955949Y-44950389D01*
X56962052Y-44942372D01*
X56997594Y-44899371D01*
X56998899Y-44897818D01*
X57091778Y-44789061D01*
X57104492Y-44776177D01*
X57168968Y-44719620D01*
X57173604Y-44715746D01*
X57261671Y-44645677D01*
X57261991Y-44645422D01*
X57273492Y-44637280D01*
X57350322Y-44589105D01*
X57359051Y-44584107D01*
X57455903Y-44533678D01*
X57464980Y-44529403D01*
X57548535Y-44494072D01*
X57561785Y-44489325D01*
X57670103Y-44457232D01*
X57675863Y-44455675D01*
X57759195Y-44435279D01*
X57777064Y-44432248D01*
X57832256Y-44426931D01*
X57920625Y-44418419D01*
X57922443Y-44418258D01*
X57976742Y-44413903D01*
X57986813Y-44413500D01*
X70725387Y-44413500D01*
X70735459Y-44413903D01*
G37*
%TD.AperFunction*%
M02*
