%TF.GenerationSoftware,KiCad,Pcbnew,(6.0.10)*%
%TF.CreationDate,2023-02-13T13:56:49-06:00*%
%TF.ProjectId,WilliamPlate,57696c6c-6961-46d5-906c-6174652e6b69,rev?*%
%TF.SameCoordinates,Original*%
%TF.FileFunction,Profile,NP*%
%FSLAX46Y46*%
G04 Gerber Fmt 4.6, Leading zero omitted, Abs format (unit mm)*
G04 Created by KiCad (PCBNEW (6.0.10)) date 2023-02-13 13:56:49*
%MOMM*%
%LPD*%
G01*
G04 APERTURE LIST*
%TA.AperFunction,Profile*%
%ADD10C,0.200000*%
%TD*%
G04 APERTURE END LIST*
D10*
X187325000Y-109537500D02*
X193206250Y-109537500D01*
X223281261Y-126512491D02*
G75*
G03*
X222320781Y-126062500I-960461J-800009D01*
G01*
X155106250Y-109537500D02*
X155106250Y-108537500D01*
X94456250Y-71437500D02*
X108456250Y-71437500D01*
X61118750Y-90487500D02*
X75118750Y-90487500D01*
X227806250Y-52387500D02*
X241806250Y-52387500D01*
X237043750Y-90487500D02*
X237043750Y-104487500D01*
X200206250Y-109537500D02*
X201325000Y-109537500D01*
X208756250Y-71437500D02*
X222756250Y-71437500D01*
X117981250Y-104487500D02*
X103981250Y-104487500D01*
X97956250Y-108537500D02*
X104956250Y-108537500D01*
X104956250Y-108537500D02*
X104956250Y-109537500D01*
X223043750Y-90487500D02*
X237043750Y-90487500D01*
X137031250Y-90487500D02*
X137031250Y-104487500D01*
X75406250Y-66387500D02*
X75406250Y-52387500D01*
X222756250Y-85437500D02*
X208756250Y-85437500D01*
X241806250Y-85437500D02*
X227806250Y-85437500D01*
X123031250Y-90487500D02*
X137031250Y-90487500D01*
X235081250Y-47162500D02*
G75*
G03*
X235081250Y-47162500I-1275000J0D01*
G01*
X162106250Y-109537500D02*
X184656250Y-109537500D01*
X89406250Y-52387500D02*
X89406250Y-66387500D01*
X57982069Y-44412500D02*
X70730431Y-44412500D01*
X123031250Y-104487500D02*
X123031250Y-90487500D01*
X89406250Y-71437500D02*
X89406250Y-85437500D01*
X227432069Y-44412475D02*
G75*
G03*
X226408030Y-44945672I31J-1250025D01*
G01*
X180181250Y-104487500D02*
X180181250Y-90487500D01*
X56356250Y-52387500D02*
X70356250Y-52387500D01*
X170656250Y-66387500D02*
X170656250Y-52387500D01*
X103981250Y-90487500D02*
X117981250Y-90487500D01*
X70730431Y-131512500D02*
X57982069Y-131512500D01*
X241806250Y-66387500D02*
X227806250Y-66387500D01*
X175131250Y-104487500D02*
X161131250Y-104487500D01*
X155106250Y-108537500D02*
X162106250Y-108537500D01*
X244105290Y-126835300D02*
X241204470Y-130979328D01*
X96837500Y-109537500D02*
X97956250Y-109537500D01*
X110837500Y-109537500D02*
X110837500Y-123537500D01*
X162106250Y-108537500D02*
X162106250Y-109537500D01*
X151606250Y-66387500D02*
X151606250Y-52387500D01*
X96837500Y-123537500D02*
X96837500Y-109537500D01*
X142081250Y-104487500D02*
X142081250Y-90487500D01*
X203706250Y-52387500D02*
X203706250Y-66387500D01*
X113506250Y-85437500D02*
X113506250Y-71437500D01*
X74881239Y-49412509D02*
G75*
G03*
X75841719Y-49862500I960461J800009D01*
G01*
X103981250Y-104487500D02*
X103981250Y-90487500D01*
X241806250Y-52387500D02*
X241806250Y-66387500D01*
X70356250Y-71437500D02*
X70356250Y-85437500D01*
X175131250Y-90487500D02*
X175131250Y-104487500D01*
X75841719Y-126062514D02*
G75*
G03*
X74881250Y-126512500I-19J-1249986D01*
G01*
X142081250Y-90487500D02*
X156081250Y-90487500D01*
X208756250Y-52387500D02*
X222756250Y-52387500D01*
X184656250Y-109537500D02*
X184656250Y-123537500D01*
X53831275Y-126118472D02*
G75*
G03*
X54057210Y-126835300I1250025J-28D01*
G01*
X65631250Y-128762500D02*
G75*
G03*
X65631250Y-128762500I-1275000J0D01*
G01*
X223043750Y-104487500D02*
X223043750Y-90487500D01*
X201325000Y-123537500D02*
X187325000Y-123537500D01*
X56356250Y-66387500D02*
X56356250Y-52387500D01*
X61118750Y-104487500D02*
X61118750Y-90487500D01*
X65631250Y-47162500D02*
G75*
G03*
X65631250Y-47162500I-1275000J0D01*
G01*
X194181250Y-104487500D02*
X180181250Y-104487500D01*
X227806250Y-71437500D02*
X241806250Y-71437500D01*
X165606250Y-71437500D02*
X165606250Y-85437500D01*
X70730431Y-131512525D02*
G75*
G03*
X71754470Y-130979328I-31J1250025D01*
G01*
X184656250Y-85437500D02*
X170656250Y-85437500D01*
X189706250Y-71437500D02*
X203706250Y-71437500D01*
X194181250Y-90487500D02*
X194181250Y-104487500D01*
X97956250Y-109537500D02*
X97956250Y-108537500D01*
X54057210Y-49089700D02*
X56958030Y-44945672D01*
X165606250Y-66387500D02*
X151606250Y-66387500D01*
X208756250Y-85437500D02*
X208756250Y-71437500D01*
X132556250Y-66387500D02*
X132556250Y-52387500D01*
X180181250Y-90487500D02*
X194181250Y-90487500D01*
X113506250Y-52387500D02*
X127506250Y-52387500D01*
X203706250Y-66387500D02*
X189706250Y-66387500D01*
X136056250Y-108537500D02*
X143056250Y-108537500D01*
X203706250Y-71437500D02*
X203706250Y-85437500D01*
X208756250Y-66387500D02*
X208756250Y-52387500D01*
X184656250Y-52387500D02*
X184656250Y-66387500D01*
X143056250Y-108537500D02*
X143056250Y-109537500D01*
X226408050Y-130979314D02*
G75*
G03*
X227432069Y-131512500I1024050J716814D01*
G01*
X222756250Y-52387500D02*
X222756250Y-66387500D01*
X127506250Y-66387500D02*
X113506250Y-66387500D01*
X184656250Y-71437500D02*
X184656250Y-85437500D01*
X75118750Y-90487500D02*
X75118750Y-104487500D01*
X241204450Y-44945686D02*
G75*
G03*
X240180431Y-44412500I-1024050J-716814D01*
G01*
X151606250Y-71437500D02*
X165606250Y-71437500D01*
X136056250Y-109537500D02*
X136056250Y-108537500D01*
X199231250Y-90487500D02*
X213231250Y-90487500D01*
X70356250Y-85437500D02*
X56356250Y-85437500D01*
X203706250Y-85437500D02*
X189706250Y-85437500D01*
X89406250Y-85437500D02*
X75406250Y-85437500D01*
X94456250Y-66387500D02*
X94456250Y-52387500D01*
X199231250Y-104487500D02*
X199231250Y-90487500D01*
X56958030Y-130979328D02*
X54057210Y-126835300D01*
X201325000Y-109537500D02*
X201325000Y-123537500D01*
X53831250Y-126118472D02*
X53831250Y-49806528D01*
X143056250Y-109537500D02*
X155106250Y-109537500D01*
X113506250Y-66387500D02*
X113506250Y-52387500D01*
X222320781Y-49862486D02*
G75*
G03*
X223281250Y-49412500I19J1249986D01*
G01*
X146556250Y-71437500D02*
X146556250Y-85437500D01*
X57982069Y-44412475D02*
G75*
G03*
X56958030Y-44945672I31J-1250025D01*
G01*
X151606250Y-52387500D02*
X165606250Y-52387500D01*
X84931250Y-104487500D02*
X84931250Y-90487500D01*
X113506250Y-71437500D02*
X127506250Y-71437500D01*
X213231250Y-104487500D02*
X199231250Y-104487500D01*
X189706250Y-66387500D02*
X189706250Y-52387500D01*
X74881250Y-126512500D02*
X71754470Y-130979328D01*
X170656250Y-85437500D02*
X170656250Y-71437500D01*
X113506250Y-123537500D02*
X113506250Y-109537500D01*
X227806250Y-85437500D02*
X227806250Y-71437500D01*
X113506250Y-109537500D02*
X136056250Y-109537500D01*
X71754470Y-44945672D02*
X74881250Y-49412500D01*
X170656250Y-52387500D02*
X184656250Y-52387500D01*
X89406250Y-66387500D02*
X75406250Y-66387500D01*
X84931250Y-90487500D02*
X98931250Y-90487500D01*
X117981250Y-90487500D02*
X117981250Y-104487500D01*
X71754450Y-44945686D02*
G75*
G03*
X70730431Y-44412500I-1024050J-716814D01*
G01*
X127506250Y-52387500D02*
X127506250Y-66387500D01*
X241204470Y-44945672D02*
X244105290Y-49089700D01*
X244331225Y-49806528D02*
G75*
G03*
X244105290Y-49089700I-1250025J28D01*
G01*
X184656250Y-123537500D02*
X113506250Y-123537500D01*
X161131250Y-90487500D02*
X175131250Y-90487500D01*
X56356250Y-71437500D02*
X70356250Y-71437500D01*
X108456250Y-85437500D02*
X94456250Y-85437500D01*
X75118750Y-104487500D02*
X61118750Y-104487500D01*
X193206250Y-108537500D02*
X200206250Y-108537500D01*
X108456250Y-52387500D02*
X108456250Y-66387500D01*
X146556250Y-52387500D02*
X146556250Y-66387500D01*
X222756250Y-71437500D02*
X222756250Y-85437500D01*
X108456250Y-71437500D02*
X108456250Y-85437500D01*
X70356250Y-52387500D02*
X70356250Y-66387500D01*
X75406250Y-85437500D02*
X75406250Y-71437500D01*
X184656250Y-66387500D02*
X170656250Y-66387500D01*
X189706250Y-52387500D02*
X203706250Y-52387500D01*
X56356250Y-85437500D02*
X56356250Y-71437500D01*
X244331250Y-49806528D02*
X244331250Y-126118472D01*
X98931250Y-104487500D02*
X84931250Y-104487500D01*
X241806250Y-71437500D02*
X241806250Y-85437500D01*
X132556250Y-71437500D02*
X146556250Y-71437500D01*
X156081250Y-90487500D02*
X156081250Y-104487500D01*
X54057190Y-49089686D02*
G75*
G03*
X53831250Y-49806528I1024110J-716814D01*
G01*
X222756250Y-66387500D02*
X208756250Y-66387500D01*
X127506250Y-71437500D02*
X127506250Y-85437500D01*
X240180431Y-131512525D02*
G75*
G03*
X241204470Y-130979328I-31J1250025D01*
G01*
X108456250Y-66387500D02*
X94456250Y-66387500D01*
X170656250Y-71437500D02*
X184656250Y-71437500D01*
X244105310Y-126835314D02*
G75*
G03*
X244331250Y-126118472I-1024110J716814D01*
G01*
X161131250Y-104487500D02*
X161131250Y-90487500D01*
X94456250Y-52387500D02*
X108456250Y-52387500D01*
X237043750Y-104487500D02*
X223043750Y-104487500D01*
X227432069Y-44412500D02*
X240180431Y-44412500D01*
X189706250Y-85437500D02*
X189706250Y-71437500D01*
X104956250Y-109537500D02*
X110837500Y-109537500D01*
X240180431Y-131512500D02*
X227432069Y-131512500D01*
X227806250Y-66387500D02*
X227806250Y-52387500D01*
X94456250Y-85437500D02*
X94456250Y-71437500D01*
X146556250Y-85437500D02*
X132556250Y-85437500D01*
X132556250Y-52387500D02*
X146556250Y-52387500D01*
X213231250Y-90487500D02*
X213231250Y-104487500D01*
X70356250Y-66387500D02*
X56356250Y-66387500D01*
X75406250Y-52387500D02*
X89406250Y-52387500D01*
X110837500Y-123537500D02*
X96837500Y-123537500D01*
X165606250Y-52387500D02*
X165606250Y-66387500D01*
X156081250Y-104487500D02*
X142081250Y-104487500D01*
X165606250Y-85437500D02*
X151606250Y-85437500D01*
X226408030Y-130979328D02*
X223281250Y-126512500D01*
X222320781Y-126062500D02*
X75841719Y-126062500D01*
X235081250Y-128762500D02*
G75*
G03*
X235081250Y-128762500I-1275000J0D01*
G01*
X193206250Y-109537500D02*
X193206250Y-108537500D01*
X223281250Y-49412500D02*
X226408030Y-44945672D01*
X98931250Y-90487500D02*
X98931250Y-104487500D01*
X75406250Y-71437500D02*
X89406250Y-71437500D01*
X146556250Y-66387500D02*
X132556250Y-66387500D01*
X187325000Y-123537500D02*
X187325000Y-109537500D01*
X137031250Y-104487500D02*
X123031250Y-104487500D01*
X127506250Y-85437500D02*
X113506250Y-85437500D01*
X132556250Y-85437500D02*
X132556250Y-71437500D01*
X151606250Y-85437500D02*
X151606250Y-71437500D01*
X200206250Y-108537500D02*
X200206250Y-109537500D01*
X56958050Y-130979314D02*
G75*
G03*
X57982069Y-131512500I1024050J716814D01*
G01*
X75841719Y-49862500D02*
X222320781Y-49862500D01*
M02*
